{"glyphs":{"0":{"ha":861,"x_min":0,"x_max":0,"o":"m 416 -17 b 66 513 125 -17 66 269 b 451 1031 66 863 227 1031 b 796 501 742 1031 796 745 b 416 -17 796 151 640 -17 m 444 142 b 556 178 501 142 537 158 b 603 429 576 197 603 240 b 419 866 603 753 570 866 b 306 831 360 866 324 849 b 258 590 285 811 258 767 b 444 142 258 274 291 142 m 427 391 b 522 520 483 391 522 433 b 436 653 522 582 509 653 b 339 524 380 653 339 611 b 427 391 339 463 353 391 "},"1":{"ha":861,"x_min":0,"x_max":0,"o":"m 88 169 l 340 169 l 340 822 l 90 777 l 104 946 l 477 1021 l 544 1021 l 544 169 l 792 169 l 767 0 l 113 0 "},"2":{"ha":861,"x_min":0,"x_max":0,"o":"m 388 1031 b 97 971 289 1031 187 1008 l 88 778 b 369 854 186 827 285 854 b 530 732 474 854 530 812 b 261 317 530 638 449 483 l 78 154 l 130 0 l 764 0 l 815 168 l 335 168 l 442 260 b 732 740 576 376 732 537 b 388 1031 732 924 604 1031 "},"3":{"ha":861,"x_min":0,"x_max":0,"o":"m 235 515 l 237 493 b 599 310 464 449 599 401 b 249 165 599 204 415 165 b 100 178 182 165 136 172 l 140 -11 b 242 -17 164 -14 195 -17 b 772 333 599 -17 772 167 b 492 595 772 463 665 544 l 711 850 l 680 1014 l 111 1014 l 61 846 l 506 846 "},"4":{"ha":861,"x_min":0,"x_max":0,"o":"m 492 1021 l 699 1021 l 699 458 l 832 458 l 832 315 l 699 315 l 699 0 l 495 0 l 495 315 l 42 315 l 29 440 m 495 438 l 495 799 l 197 438 "},"5":{"ha":861,"x_min":0,"x_max":0,"o":"m 187 1014 l 135 514 b 594 324 408 461 594 422 b 235 179 594 224 394 179 b 106 190 186 179 146 183 l 149 -11 b 230 -17 169 -14 193 -17 b 758 349 488 -17 758 102 b 299 666 758 547 565 605 l 322 846 l 738 846 l 703 1014 "},"6":{"ha":861,"x_min":0,"x_max":0,"o":"m 74 458 b 665 1031 74 851 272 1013 l 710 853 b 304 746 460 843 338 788 b 270 496 275 708 271 588 l 292 496 b 546 599 376 569 461 599 b 790 340 677 599 790 526 b 444 -17 790 136 651 -17 b 74 458 206 -17 74 156 m 276 385 b 479 119 276 201 378 119 b 598 288 570 119 598 184 b 468 453 598 407 558 453 b 276 385 378 453 306 406 "},"7":{"ha":861,"x_min":0,"x_max":0,"o":"m 763 857 b 434 0 690 716 521 451 l 192 0 b 565 838 263 325 436 640 l 67 838 l 117 1014 l 727 1014 l 763 857 "},"8":{"ha":861,"x_min":0,"x_max":0,"o":"m 456 1031 b 752 787 665 1031 752 917 b 590 537 752 695 706 610 b 810 271 767 448 810 387 b 413 -17 810 91 621 -17 b 65 247 204 -17 65 94 b 267 490 65 375 166 444 b 111 753 162 563 111 650 b 456 1031 111 923 249 1031 m 265 300 b 458 135 265 189 352 135 b 581 170 523 135 561 152 b 613 237 593 181 613 202 b 398 419 613 295 581 340 b 347 442 380 426 363 435 b 265 300 290 401 265 353 m 281 790 b 474 590 281 696 357 641 l 516 572 b 583 725 551 607 583 658 b 408 886 583 833 510 886 b 310 858 363 886 329 876 b 281 790 295 846 281 822 "},"9":{"ha":861,"x_min":0,"x_max":0,"o":"m 787 556 b 196 -17 787 163 590 1 l 151 160 b 557 268 401 171 524 226 b 591 519 586 306 590 426 l 569 519 b 315 415 485 445 400 415 b 72 674 184 415 72 488 b 417 1031 72 878 210 1031 b 787 556 656 1031 787 859 m 585 629 b 382 895 585 813 483 895 b 263 727 292 895 263 830 b 393 561 263 607 303 561 b 585 629 483 561 555 608 "}," ":{"ha":861,"x_min":0,"x_max":0,"o":""},"A":{"ha":861,"x_min":0,"x_max":0,"o":"m 624 0 l 561 231 l 288 231 l 227 0 l 19 0 l 320 1014 l 540 1014 l 842 0 m 523 375 l 429 722 l 419 722 l 326 375 "},"Á":{"ha":861,"x_min":0,"x_max":0,"o":"m 624 0 l 561 231 l 288 231 l 227 0 l 19 0 l 320 1014 l 540 1014 l 842 0 m 519 1128 l 692 1304 l 476 1304 l 345 1128 m 523 375 l 429 722 l 419 722 l 326 375 "},"Ă":{"ha":861,"x_min":0,"x_max":0,"o":"m 624 0 l 561 231 l 288 231 l 227 0 l 19 0 l 320 1014 l 540 1014 l 842 0 m 317 1305 b 431 1215 317 1251 350 1215 b 545 1305 511 1215 545 1251 l 670 1305 b 431 1116 676 1183 594 1116 b 192 1305 267 1116 185 1183 l 317 1305 m 523 375 l 429 722 l 419 722 l 326 375 "},"Â":{"ha":861,"x_min":0,"x_max":0,"o":"m 624 0 l 561 231 l 288 231 l 227 0 l 19 0 l 320 1014 l 540 1014 l 842 0 m 313 1305 l 549 1305 l 712 1128 l 532 1128 l 431 1249 l 329 1128 l 150 1128 m 523 375 l 429 722 l 419 722 l 326 375 "},"Ä":{"ha":861,"x_min":0,"x_max":0,"o":"m 624 0 l 561 231 l 288 231 l 227 0 l 19 0 l 320 1014 l 540 1014 l 842 0 m 240 1129 b 135 1229 178 1129 135 1168 b 240 1328 135 1290 178 1328 b 346 1229 303 1328 346 1290 b 240 1129 346 1168 303 1129 m 622 1129 b 517 1229 559 1129 517 1168 b 622 1328 517 1290 559 1328 b 728 1229 685 1328 728 1290 b 622 1129 728 1168 685 1129 m 523 375 l 429 722 l 419 722 l 326 375 "},"Ạ":{"ha":861,"x_min":0,"x_max":0,"o":"m 624 0 l 561 231 l 288 231 l 227 0 l 19 0 l 320 1014 l 540 1014 l 842 0 m 431 -365 b 299 -242 352 -365 299 -317 b 431 -122 299 -168 352 -122 b 562 -242 509 -122 562 -168 b 431 -365 562 -317 509 -365 m 523 375 l 429 722 l 419 722 l 326 375 "},"À":{"ha":861,"x_min":0,"x_max":0,"o":"m 624 0 l 561 231 l 288 231 l 227 0 l 19 0 l 320 1014 l 540 1014 l 842 0 m 342 1128 l 169 1304 l 385 1304 l 516 1128 m 523 375 l 429 722 l 419 722 l 326 375 "},"Ā":{"ha":861,"x_min":0,"x_max":0,"o":"m 624 0 l 561 231 l 288 231 l 227 0 l 19 0 l 320 1014 l 540 1014 l 842 0 m 668 1179 l 193 1179 l 193 1302 l 668 1302 m 523 375 l 429 722 l 419 722 l 326 375 "},"Ą":{"ha":861,"x_min":0,"x_max":0,"o":"m 842 0 b 742 -130 767 -54 742 -94 b 822 -184 742 -162 762 -184 l 842 -184 l 842 -303 l 772 -303 b 565 -170 605 -303 565 -237 b 667 0 565 -110 597 -58 l 624 0 l 561 231 l 288 231 l 227 0 l 19 0 l 320 1014 l 540 1014 l 842 0 m 523 375 l 429 722 l 419 722 l 326 375 "},"Å":{"ha":861,"x_min":0,"x_max":0,"o":"m 624 0 l 561 231 l 288 231 l 227 0 l 19 0 l 319 1010 b 264 1142 285 1042 264 1088 b 431 1313 264 1240 333 1313 b 598 1142 528 1313 598 1240 b 541 1010 598 1087 576 1040 l 842 0 m 431 1052 b 517 1142 484 1052 517 1090 b 431 1231 517 1192 484 1231 b 344 1142 378 1231 344 1192 b 431 1052 344 1090 378 1052 m 523 375 l 429 722 l 419 722 l 326 375 "},"Ã":{"ha":861,"x_min":0,"x_max":0,"o":"m 624 0 l 561 231 l 288 231 l 227 0 l 19 0 l 320 1014 l 540 1014 l 842 0 m 301 1321 b 519 1231 408 1321 449 1231 b 595 1316 558 1231 586 1258 l 727 1290 b 559 1115 714 1180 651 1115 b 342 1205 452 1115 412 1205 b 266 1120 303 1205 275 1177 l 134 1146 b 301 1321 147 1256 210 1321 m 523 375 l 429 722 l 419 722 l 326 375 "},"Æ":{"ha":861,"x_min":0,"x_max":0,"o":"m 428 227 l 263 227 l 224 0 l 19 0 l 224 1014 l 840 1014 l 860 845 l 617 845 l 617 588 l 760 588 l 760 427 l 617 427 l 617 169 l 860 169 l 840 0 l 428 0 m 428 375 l 428 844 l 369 844 l 289 375 "},"Ǽ":{"ha":861,"x_min":0,"x_max":0,"o":"m 428 227 l 263 227 l 224 0 l 19 0 l 224 1014 l 840 1014 l 860 845 l 617 845 l 617 588 l 760 588 l 760 427 l 617 427 l 617 169 l 860 169 l 840 0 l 428 0 m 605 1128 l 778 1304 l 563 1304 l 431 1128 m 428 375 l 428 844 l 369 844 l 289 375 "},"B":{"ha":861,"x_min":0,"x_max":0,"o":"m 99 1014 l 438 1014 b 767 804 617 1016 767 969 b 558 566 767 658 651 602 l 558 559 b 816 303 700 527 816 467 b 413 0 816 105 649 0 l 99 0 m 388 146 b 606 300 555 146 606 228 b 326 475 606 415 477 467 l 308 476 l 308 146 m 328 563 b 564 758 472 589 564 659 b 388 869 564 836 505 869 l 308 869 l 308 560 "},"C":{"ha":861,"x_min":0,"x_max":0,"o":"m 613 1030 b 768 1017 674 1030 724 1024 l 770 830 b 557 847 705 839 638 847 b 361 803 451 847 399 838 b 289 583 329 775 289 722 b 597 154 289 220 435 154 b 769 177 654 154 717 163 l 761 6 b 572 -17 715 -5 651 -17 b 81 509 288 -17 81 110 b 613 1030 81 845 231 1030 "},"Ć":{"ha":861,"x_min":0,"x_max":0,"o":"m 613 1030 b 768 1017 674 1030 724 1024 l 770 830 b 557 847 705 839 638 847 b 361 803 451 847 399 838 b 289 583 329 775 289 722 b 597 154 289 220 435 154 b 769 177 654 154 717 163 l 761 6 b 572 -17 715 -5 651 -17 b 81 509 288 -17 81 110 b 613 1030 81 845 231 1030 m 585 1128 l 758 1304 l 542 1304 l 411 1128 "},"Č":{"ha":861,"x_min":0,"x_max":0,"o":"m 613 1030 b 768 1017 674 1030 724 1024 l 770 830 b 557 847 705 839 638 847 b 361 803 451 847 399 838 b 289 583 329 775 289 722 b 597 154 289 220 435 154 b 769 177 654 154 717 163 l 761 6 b 572 -17 715 -5 651 -17 b 81 509 288 -17 81 110 b 613 1030 81 845 231 1030 m 378 1128 l 615 1128 l 778 1305 l 598 1305 l 497 1183 l 395 1305 l 216 1305 "},"Ç":{"ha":861,"x_min":0,"x_max":0,"o":"m 613 1030 b 768 1017 674 1030 724 1024 l 770 830 b 557 847 705 839 638 847 b 361 803 451 847 399 838 b 289 583 329 775 289 722 b 597 154 289 220 435 154 b 769 177 654 154 717 163 l 761 6 b 572 -17 715 -5 651 -17 b 515 -15 553 -17 534 -17 l 517 -110 b 639 -273 597 -131 639 -178 b 414 -434 639 -370 594 -434 l 352 -434 l 352 -330 l 397 -330 b 493 -262 466 -330 493 -306 b 400 -185 493 -210 453 -192 l 400 2 b 81 509 208 50 81 196 b 613 1030 81 845 231 1030 "},"Ĉ":{"ha":861,"x_min":0,"x_max":0,"o":"m 613 1030 b 768 1017 674 1030 724 1024 l 770 830 b 557 847 705 839 638 847 b 361 803 451 847 399 838 b 289 583 329 775 289 722 b 597 154 289 220 435 154 b 769 177 654 154 717 163 l 761 6 b 572 -17 715 -5 651 -17 b 81 509 288 -17 81 110 b 613 1030 81 845 231 1030 m 378 1305 l 615 1305 l 778 1128 l 598 1128 l 497 1249 l 395 1128 l 216 1128 "},"Ċ":{"ha":861,"x_min":0,"x_max":0,"o":"m 613 1030 b 768 1017 674 1030 724 1024 l 770 830 b 557 847 705 839 638 847 b 361 803 451 847 399 838 b 289 583 329 775 289 722 b 597 154 289 220 435 154 b 769 177 654 154 717 163 l 761 6 b 572 -17 715 -5 651 -17 b 81 509 288 -17 81 110 b 613 1030 81 845 231 1030 m 494 1129 b 387 1229 430 1129 387 1168 b 494 1328 387 1290 430 1328 b 602 1229 558 1328 602 1290 b 494 1129 602 1168 558 1129 "},"D":{"ha":861,"x_min":0,"x_max":0,"o":"m 101 1014 l 328 1014 b 785 540 555 1014 785 956 b 328 0 785 219 660 0 l 101 0 m 337 175 b 510 211 418 175 475 185 b 571 515 545 238 571 298 b 339 857 571 819 487 857 l 305 857 l 305 175 "},"Ď":{"ha":861,"x_min":0,"x_max":0,"o":"m 101 1014 l 328 1014 b 785 540 555 1014 785 956 b 328 0 785 219 660 0 l 101 0 m 313 1128 l 549 1128 l 712 1305 l 532 1305 l 431 1183 l 329 1305 l 150 1305 m 337 175 b 510 211 418 175 475 185 b 571 515 545 238 571 298 b 339 857 571 819 487 857 l 305 857 l 305 175 "},"Đ":{"ha":861,"x_min":0,"x_max":0,"o":"m 448 426 l 305 426 l 305 175 l 337 175 b 510 211 418 175 475 185 b 571 515 545 238 571 298 b 339 857 571 819 487 857 l 305 857 l 305 596 l 448 596 m 101 426 l 13 426 l 13 596 l 101 596 l 101 1014 l 328 1014 b 785 540 555 1014 785 956 b 328 0 785 219 660 0 l 101 0 "},"Ð":{"ha":861,"x_min":0,"x_max":0,"o":"m 448 426 l 305 426 l 305 175 l 337 175 b 510 211 418 175 475 185 b 571 515 545 238 571 298 b 339 857 571 819 487 857 l 305 857 l 305 596 l 448 596 m 101 426 l 13 426 l 13 596 l 101 596 l 101 1014 l 328 1014 b 785 540 555 1014 785 956 b 328 0 785 219 660 0 l 101 0 "},"E":{"ha":861,"x_min":0,"x_max":0,"o":"m 108 1014 l 749 1014 l 769 845 l 312 845 l 312 588 l 670 588 l 670 427 l 312 427 l 312 169 l 769 169 l 749 0 l 108 0 "},"É":{"ha":861,"x_min":0,"x_max":0,"o":"m 108 1014 l 749 1014 l 769 845 l 312 845 l 312 588 l 670 588 l 670 427 l 312 427 l 312 169 l 769 169 l 749 0 l 108 0 m 519 1128 l 692 1304 l 476 1304 l 345 1128 "},"Ĕ":{"ha":861,"x_min":0,"x_max":0,"o":"m 108 1014 l 749 1014 l 769 845 l 312 845 l 312 588 l 670 588 l 670 427 l 312 427 l 312 169 l 769 169 l 749 0 l 108 0 m 317 1305 b 431 1215 317 1251 350 1215 b 545 1305 511 1215 545 1251 l 670 1305 b 431 1116 676 1183 594 1116 b 192 1305 267 1116 185 1183 l 317 1305 "},"Ě":{"ha":861,"x_min":0,"x_max":0,"o":"m 108 1014 l 749 1014 l 769 845 l 312 845 l 312 588 l 670 588 l 670 427 l 312 427 l 312 169 l 769 169 l 749 0 l 108 0 m 313 1128 l 549 1128 l 712 1305 l 532 1305 l 431 1183 l 329 1305 l 150 1305 "},"Ê":{"ha":861,"x_min":0,"x_max":0,"o":"m 108 1014 l 749 1014 l 769 845 l 312 845 l 312 588 l 670 588 l 670 427 l 312 427 l 312 169 l 769 169 l 749 0 l 108 0 m 313 1305 l 549 1305 l 712 1128 l 532 1128 l 431 1249 l 329 1128 l 150 1128 "},"Ë":{"ha":861,"x_min":0,"x_max":0,"o":"m 108 1014 l 749 1014 l 769 845 l 312 845 l 312 588 l 670 588 l 670 427 l 312 427 l 312 169 l 769 169 l 749 0 l 108 0 m 240 1129 b 135 1229 178 1129 135 1168 b 240 1328 135 1290 178 1328 b 346 1229 303 1328 346 1290 b 240 1129 346 1168 303 1129 m 622 1129 b 517 1229 559 1129 517 1168 b 622 1328 517 1290 559 1328 b 728 1229 685 1328 728 1290 b 622 1129 728 1168 685 1129 "},"Ė":{"ha":861,"x_min":0,"x_max":0,"o":"m 108 1014 l 749 1014 l 769 845 l 312 845 l 312 588 l 670 588 l 670 427 l 312 427 l 312 169 l 769 169 l 749 0 l 108 0 m 428 1129 b 321 1229 364 1129 321 1168 b 428 1328 321 1290 364 1328 b 536 1229 492 1328 536 1290 b 428 1129 536 1168 492 1129 "},"Ẹ":{"ha":861,"x_min":0,"x_max":0,"o":"m 108 1014 l 749 1014 l 769 845 l 312 845 l 312 588 l 670 588 l 670 427 l 312 427 l 312 169 l 769 169 l 749 0 l 108 0 m 431 -365 b 299 -242 352 -365 299 -317 b 431 -122 299 -168 352 -122 b 562 -242 509 -122 562 -168 b 431 -365 562 -317 509 -365 "},"È":{"ha":861,"x_min":0,"x_max":0,"o":"m 108 1014 l 749 1014 l 769 845 l 312 845 l 312 588 l 670 588 l 670 427 l 312 427 l 312 169 l 769 169 l 749 0 l 108 0 m 342 1128 l 169 1304 l 385 1304 l 516 1128 "},"Ē":{"ha":861,"x_min":0,"x_max":0,"o":"m 108 1014 l 749 1014 l 769 845 l 312 845 l 312 588 l 670 588 l 670 427 l 312 427 l 312 169 l 769 169 l 749 0 l 108 0 m 668 1179 l 193 1179 l 193 1302 l 668 1302 "},"Ę":{"ha":861,"x_min":0,"x_max":0,"o":"m 108 1014 l 749 1014 l 769 845 l 312 845 l 312 588 l 670 588 l 670 427 l 312 427 l 312 169 l 769 169 l 749 0 b 649 -130 674 -54 649 -94 b 729 -184 649 -162 668 -184 l 749 -184 l 749 -303 l 679 -303 b 472 -170 511 -303 472 -237 b 574 0 472 -110 504 -58 l 108 0 "},"Ẽ":{"ha":861,"x_min":0,"x_max":0,"o":"m 108 1014 l 749 1014 l 769 845 l 312 845 l 312 588 l 670 588 l 670 427 l 312 427 l 312 169 l 769 169 l 749 0 l 108 0 m 301 1321 b 519 1231 408 1321 449 1231 b 595 1316 558 1231 586 1258 l 727 1290 b 559 1115 714 1180 651 1115 b 342 1205 452 1115 412 1205 b 266 1120 303 1205 275 1177 l 134 1146 b 301 1321 147 1256 210 1321 "},"Ə":{"ha":861,"x_min":0,"x_max":0,"o":"m 416 -13 b 65 560 127 -13 65 270 l 593 560 l 593 579 b 313 874 593 758 561 874 b 85 842 211 874 138 859 l 88 988 b 371 1031 151 1010 240 1031 b 796 508 656 1031 796 910 b 416 -13 796 156 638 -13 m 274 402 b 434 142 280 251 309 142 b 551 178 497 142 532 159 b 590 402 565 193 583 222 l 274 402 "},"F":{"ha":861,"x_min":0,"x_max":0,"o":"m 115 0 l 115 1014 l 762 1014 l 782 844 l 319 844 l 319 551 l 683 551 l 681 389 l 319 389 l 319 0 "},"G":{"ha":861,"x_min":0,"x_max":0,"o":"m 771 831 b 567 847 708 840 642 847 b 346 799 432 847 382 831 b 283 547 308 764 283 685 b 538 143 283 224 392 143 b 609 149 564 143 588 146 l 609 402 l 463 402 l 482 560 l 779 560 l 780 13 b 547 -17 720 -1 643 -17 b 77 498 260 -17 77 115 b 619 1030 77 847 230 1030 b 767 1018 681 1030 728 1025 l 771 831 "},"Ğ":{"ha":861,"x_min":0,"x_max":0,"o":"m 771 831 b 567 847 708 840 642 847 b 346 799 432 847 382 831 b 283 547 308 764 283 685 b 538 143 283 224 392 143 b 609 149 564 143 588 146 l 609 402 l 463 402 l 482 560 l 779 560 l 780 13 b 547 -17 720 -1 643 -17 b 77 498 260 -17 77 115 b 619 1030 77 847 230 1030 b 767 1018 681 1030 728 1025 l 771 831 m 388 1305 b 502 1215 388 1251 422 1215 b 617 1305 583 1215 617 1251 l 742 1305 b 502 1116 747 1183 666 1116 b 263 1305 339 1116 258 1183 l 388 1305 "},"Ǧ":{"ha":861,"x_min":0,"x_max":0,"o":"m 771 831 b 567 847 708 840 642 847 b 346 799 432 847 382 831 b 283 547 308 764 283 685 b 538 143 283 224 392 143 b 609 149 564 143 588 146 l 609 402 l 463 402 l 482 560 l 779 560 l 780 13 b 547 -17 720 -1 643 -17 b 77 498 260 -17 77 115 b 619 1030 77 847 230 1030 b 767 1018 681 1030 728 1025 l 771 831 m 384 1128 l 621 1128 l 783 1305 l 603 1305 l 502 1183 l 401 1305 l 222 1305 "},"Ĝ":{"ha":861,"x_min":0,"x_max":0,"o":"m 771 831 b 567 847 708 840 642 847 b 346 799 432 847 382 831 b 283 547 308 764 283 685 b 538 143 283 224 392 143 b 609 149 564 143 588 146 l 609 402 l 463 402 l 482 560 l 779 560 l 780 13 b 547 -17 720 -1 643 -17 b 77 498 260 -17 77 115 b 619 1030 77 847 230 1030 b 767 1018 681 1030 728 1025 l 771 831 m 384 1305 l 621 1305 l 783 1128 l 603 1128 l 502 1250 l 401 1128 l 222 1128 "},"Ģ":{"ha":861,"x_min":0,"x_max":0,"o":"m 771 831 b 567 847 708 840 642 847 b 346 799 432 847 382 831 b 283 547 308 764 283 685 b 538 143 283 224 392 143 b 609 149 564 143 588 146 l 609 402 l 463 402 l 482 560 l 779 560 l 780 13 b 547 -17 720 -1 643 -17 b 77 498 260 -17 77 115 b 619 1030 77 847 230 1030 b 767 1018 681 1030 728 1025 l 771 831 m 494 -351 b 371 -237 424 -351 371 -308 b 495 -124 371 -167 423 -124 b 631 -278 572 -124 631 -172 b 418 -541 631 -415 526 -496 l 360 -469 b 517 -350 426 -436 490 -403 b 494 -351 510 -351 502 -351 "},"Ġ":{"ha":861,"x_min":0,"x_max":0,"o":"m 771 831 b 567 847 708 840 642 847 b 346 799 432 847 382 831 b 283 547 308 764 283 685 b 538 143 283 224 392 143 b 609 149 564 143 588 146 l 609 402 l 463 402 l 482 560 l 779 560 l 780 13 b 547 -17 720 -1 643 -17 b 77 498 260 -17 77 115 b 619 1030 77 847 230 1030 b 767 1018 681 1030 728 1025 l 771 831 m 500 1129 b 392 1229 436 1129 392 1168 b 500 1328 392 1290 436 1328 b 608 1229 564 1328 608 1290 b 500 1129 608 1168 564 1129 "},"H":{"ha":861,"x_min":0,"x_max":0,"o":"m 101 0 l 101 1014 l 310 1014 l 310 593 l 551 593 l 551 1014 l 761 1014 l 761 0 l 551 0 l 551 425 l 310 425 l 310 0 "},"Ħ":{"ha":861,"x_min":0,"x_max":0,"o":"m 833 753 l 761 753 l 761 0 l 551 0 l 551 425 l 310 425 l 310 0 l 101 0 l 101 753 l 28 753 l 28 889 l 101 889 l 101 1014 l 310 1014 l 310 889 l 551 889 l 551 1014 l 761 1014 l 761 889 l 833 889 m 551 593 l 551 753 l 310 753 l 310 593 "},"Ĥ":{"ha":861,"x_min":0,"x_max":0,"o":"m 101 0 l 101 1014 l 310 1014 l 310 593 l 551 593 l 551 1014 l 761 1014 l 761 0 l 551 0 l 551 425 l 310 425 l 310 0 m 313 1305 l 549 1305 l 712 1128 l 532 1128 l 431 1249 l 329 1128 l 150 1128 "},"I":{"ha":861,"x_min":0,"x_max":0,"o":"m 94 169 l 329 169 l 329 845 l 94 845 l 108 1014 l 751 1014 l 765 845 l 533 845 l 533 169 l 765 169 l 751 0 l 108 0 "},"Ĳ":{"ha":861,"x_min":0,"x_max":0,"o":"m 710 339 b 325 -16 710 89 603 -16 b 127 7 240 -16 183 -7 l 102 190 b 352 156 174 173 242 156 b 481 185 420 156 463 169 b 509 283 499 200 509 228 l 509 853 l 405 853 l 425 1014 l 710 1014 l 710 339 m 113 394 l 113 1014 l 306 1014 l 306 394 "},"Í":{"ha":861,"x_min":0,"x_max":0,"o":"m 94 169 l 329 169 l 329 845 l 94 845 l 108 1014 l 751 1014 l 765 845 l 533 845 l 533 169 l 765 169 l 751 0 l 108 0 m 519 1128 l 692 1304 l 476 1304 l 345 1128 "},"Ĭ":{"ha":861,"x_min":0,"x_max":0,"o":"m 94 169 l 329 169 l 329 845 l 94 845 l 108 1014 l 751 1014 l 765 845 l 533 845 l 533 169 l 765 169 l 751 0 l 108 0 m 317 1305 b 431 1215 317 1251 350 1215 b 545 1305 511 1215 545 1251 l 670 1305 b 431 1116 676 1183 594 1116 b 192 1305 267 1116 185 1183 l 317 1305 "},"Î":{"ha":861,"x_min":0,"x_max":0,"o":"m 94 169 l 329 169 l 329 845 l 94 845 l 108 1014 l 751 1014 l 765 845 l 533 845 l 533 169 l 765 169 l 751 0 l 108 0 m 313 1305 l 549 1305 l 712 1128 l 532 1128 l 431 1249 l 329 1128 l 150 1128 "},"Ï":{"ha":861,"x_min":0,"x_max":0,"o":"m 94 169 l 329 169 l 329 845 l 94 845 l 108 1014 l 751 1014 l 765 845 l 533 845 l 533 169 l 765 169 l 751 0 l 108 0 m 240 1129 b 135 1229 178 1129 135 1168 b 240 1328 135 1290 178 1328 b 346 1229 303 1328 346 1290 b 240 1129 346 1168 303 1129 m 622 1129 b 517 1229 559 1129 517 1168 b 622 1328 517 1290 559 1328 b 728 1229 685 1328 728 1290 b 622 1129 728 1168 685 1129 "},"İ":{"ha":861,"x_min":0,"x_max":0,"o":"m 94 169 l 329 169 l 329 845 l 94 845 l 108 1014 l 751 1014 l 765 845 l 533 845 l 533 169 l 765 169 l 751 0 l 108 0 m 428 1129 b 321 1229 364 1129 321 1168 b 428 1328 321 1290 364 1328 b 536 1229 492 1328 536 1290 b 428 1129 536 1168 492 1129 "},"Ị":{"ha":861,"x_min":0,"x_max":0,"o":"m 94 169 l 329 169 l 329 845 l 94 845 l 108 1014 l 751 1014 l 765 845 l 533 845 l 533 169 l 765 169 l 751 0 l 108 0 m 431 -365 b 299 -242 352 -365 299 -317 b 431 -122 299 -168 352 -122 b 562 -242 509 -122 562 -168 b 431 -365 562 -317 509 -365 "},"Ì":{"ha":861,"x_min":0,"x_max":0,"o":"m 94 169 l 329 169 l 329 845 l 94 845 l 108 1014 l 751 1014 l 765 845 l 533 845 l 533 169 l 765 169 l 751 0 l 108 0 m 342 1128 l 169 1304 l 385 1304 l 516 1128 "},"Ī":{"ha":861,"x_min":0,"x_max":0,"o":"m 94 169 l 329 169 l 329 845 l 94 845 l 108 1014 l 751 1014 l 765 845 l 533 845 l 533 169 l 765 169 l 751 0 l 108 0 m 668 1179 l 193 1179 l 193 1302 l 668 1302 "},"Į":{"ha":861,"x_min":0,"x_max":0,"o":"m 533 0 b 433 -130 458 -54 433 -94 b 513 -184 433 -162 453 -184 l 533 -184 l 533 -303 l 463 -303 b 256 -170 296 -303 256 -237 b 358 0 256 -110 288 -58 l 108 0 l 94 169 l 329 169 l 329 845 l 94 845 l 108 1014 l 751 1014 l 765 845 l 533 845 l 533 169 l 765 169 l 751 0 l 533 0 "},"Ĩ":{"ha":861,"x_min":0,"x_max":0,"o":"m 94 169 l 329 169 l 329 845 l 94 845 l 108 1014 l 751 1014 l 765 845 l 533 845 l 533 169 l 765 169 l 751 0 l 108 0 m 301 1321 b 519 1231 408 1321 449 1231 b 595 1316 558 1231 586 1258 l 727 1290 b 559 1115 714 1180 651 1115 b 342 1205 452 1115 412 1205 b 266 1120 303 1205 275 1177 l 134 1146 b 301 1321 147 1256 210 1321 "},"J":{"ha":861,"x_min":0,"x_max":0,"o":"m 710 339 b 325 -16 710 89 603 -16 b 127 7 240 -16 183 -7 l 102 190 b 352 156 174 173 242 156 b 469 185 409 156 451 169 b 498 283 488 200 498 228 l 498 853 l 132 853 l 152 1014 l 710 1014 l 710 339 "},"Ĵ":{"ha":861,"x_min":0,"x_max":0,"o":"m 710 339 b 325 -16 710 89 603 -16 b 127 7 240 -16 183 -7 l 102 190 b 352 156 174 173 242 156 b 469 185 409 156 451 169 b 498 283 488 200 498 228 l 498 853 l 132 853 l 152 1014 l 710 1014 l 710 339 m 315 1305 l 552 1305 l 715 1128 l 535 1128 l 434 1249 l 333 1128 l 153 1128 "},"K":{"ha":861,"x_min":0,"x_max":0,"o":"m 101 0 l 101 1014 l 310 1014 l 310 590 l 372 590 b 588 1014 460 735 522 859 l 803 1014 b 539 531 735 847 656 697 l 539 519 b 859 0 636 394 751 228 l 612 0 b 373 422 533 172 455 299 l 310 422 l 310 0 "},"Ķ":{"ha":861,"x_min":0,"x_max":0,"o":"m 101 0 l 101 1014 l 310 1014 l 310 590 l 372 590 b 588 1014 460 735 522 859 l 803 1014 b 539 531 735 847 656 697 l 539 519 b 859 0 636 394 751 228 l 612 0 b 373 422 533 172 455 299 l 310 422 l 310 0 m 427 -351 b 303 -237 357 -351 303 -308 b 428 -124 303 -167 356 -124 b 565 -278 505 -124 565 -172 b 351 -541 565 -415 459 -496 l 293 -469 b 449 -350 359 -436 422 -403 b 427 -351 442 -351 435 -351 "},"L":{"ha":861,"x_min":0,"x_max":0,"o":"m 130 1014 l 334 1014 l 334 169 l 794 169 l 768 0 l 130 0 "},"Ĺ":{"ha":861,"x_min":0,"x_max":0,"o":"m 130 1014 l 334 1014 l 334 169 l 794 169 l 768 0 l 130 0 m 311 1128 l 485 1304 l 269 1304 l 137 1128 "},"Ľ":{"ha":861,"x_min":0,"x_max":0,"o":"m 130 1014 l 334 1014 l 334 169 l 794 169 l 768 0 l 130 0 m 452 1127 l 623 1127 l 594 859 l 440 859 "},"Ļ":{"ha":861,"x_min":0,"x_max":0,"o":"m 130 1014 l 334 1014 l 334 169 l 794 169 l 768 0 l 130 0 m 427 -351 b 303 -237 357 -351 303 -308 b 428 -124 303 -167 356 -124 b 565 -278 505 -124 565 -172 b 351 -541 565 -415 459 -496 l 293 -469 b 449 -350 359 -436 422 -403 b 427 -351 442 -351 435 -351 "},"Ŀ":{"ha":861,"x_min":0,"x_max":0,"o":"m 657 478 b 553 585 596 478 553 520 b 657 690 553 650 596 690 b 760 585 718 690 760 650 b 657 478 760 520 718 478 m 130 1014 l 334 1014 l 334 169 l 794 169 l 768 0 l 130 0 "},"Ł":{"ha":861,"x_min":0,"x_max":0,"o":"m 575 649 l 334 532 l 334 169 l 794 169 l 768 0 l 130 0 l 130 433 l 2 370 l 2 545 l 130 607 l 130 1014 l 334 1014 l 334 706 l 575 824 "},"M":{"ha":861,"x_min":0,"x_max":0,"o":"m 269 1014 l 426 614 l 435 614 l 610 1014 l 760 1014 l 799 0 l 626 0 l 609 683 l 599 683 l 453 272 l 405 272 l 253 683 l 244 683 l 231 0 l 63 0 l 103 1014 "},"N":{"ha":861,"x_min":0,"x_max":0,"o":"m 101 1014 l 308 1014 l 587 327 l 595 327 l 595 1014 l 761 1014 l 761 0 l 554 0 l 274 682 l 266 682 l 266 0 l 101 0 "},"Ń":{"ha":861,"x_min":0,"x_max":0,"o":"m 101 1014 l 308 1014 l 587 327 l 595 327 l 595 1014 l 761 1014 l 761 0 l 554 0 l 274 682 l 266 682 l 266 0 l 101 0 m 519 1128 l 692 1304 l 476 1304 l 345 1128 "},"Ň":{"ha":861,"x_min":0,"x_max":0,"o":"m 101 1014 l 308 1014 l 587 327 l 595 327 l 595 1014 l 761 1014 l 761 0 l 554 0 l 274 682 l 266 682 l 266 0 l 101 0 m 313 1128 l 549 1128 l 712 1305 l 532 1305 l 431 1183 l 329 1305 l 150 1305 "},"Ņ":{"ha":861,"x_min":0,"x_max":0,"o":"m 101 1014 l 308 1014 l 587 327 l 595 327 l 595 1014 l 761 1014 l 761 0 l 554 0 l 274 682 l 266 682 l 266 0 l 101 0 m 427 -351 b 303 -237 357 -351 303 -308 b 428 -124 303 -167 356 -124 b 565 -278 505 -124 565 -172 b 351 -541 565 -415 459 -496 l 293 -469 b 449 -350 359 -436 422 -403 b 427 -351 442 -351 435 -351 "},"Ɲ":{"ha":861,"x_min":0,"x_max":0,"o":"m 61 -285 b -28 -268 27 -285 -4 -277 l -53 -102 b 31 -120 -28 -113 3 -120 b 85 -102 44 -120 69 -119 b 101 0 100 -86 101 -62 l 101 1014 l 308 1014 l 587 327 l 595 327 l 595 1014 l 761 1014 l 761 0 l 554 0 l 274 682 l 266 682 l 266 -25 b 61 -285 266 -165 192 -285 "},"Ñ":{"ha":861,"x_min":0,"x_max":0,"o":"m 101 1014 l 308 1014 l 587 327 l 595 327 l 595 1014 l 761 1014 l 761 0 l 554 0 l 274 682 l 266 682 l 266 0 l 101 0 m 301 1321 b 519 1231 408 1321 449 1231 b 595 1316 558 1231 586 1258 l 727 1290 b 559 1115 714 1180 651 1115 b 342 1205 452 1115 412 1205 b 266 1120 303 1205 275 1177 l 134 1146 b 301 1321 147 1256 210 1321 "},"Ŋ":{"ha":861,"x_min":0,"x_max":0,"o":"m 522 -285 b 428 -268 485 -285 454 -277 l 404 -102 b 485 -120 426 -113 456 -120 b 542 -102 501 -120 526 -119 b 558 -10 557 -87 558 -65 l 274 682 l 266 682 l 266 0 l 101 0 l 101 1014 l 308 1014 l 587 327 l 595 327 l 595 1015 l 761 1015 l 761 -25 b 522 -285 761 -165 669 -285 "},"O":{"ha":861,"x_min":0,"x_max":0,"o":"m 416 -13 b 65 513 127 -13 65 270 b 451 1026 65 858 229 1026 b 796 501 739 1026 796 743 b 416 -13 796 156 638 -13 m 434 142 b 551 178 497 142 532 159 b 588 408 569 197 588 238 b 427 865 588 749 565 865 b 310 830 364 865 329 849 b 274 617 291 810 274 764 b 434 142 274 276 296 142 "},"Ó":{"ha":861,"x_min":0,"x_max":0,"o":"m 416 -13 b 65 513 127 -13 65 270 b 451 1026 65 858 229 1026 b 796 501 739 1026 796 743 b 416 -13 796 156 638 -13 m 434 142 b 551 178 497 142 532 159 b 588 408 569 197 588 238 b 427 865 588 749 565 865 b 310 830 364 865 329 849 b 274 617 291 810 274 764 b 434 142 274 276 296 142 m 519 1128 l 692 1304 l 476 1304 l 345 1128 "},"Ŏ":{"ha":861,"x_min":0,"x_max":0,"o":"m 416 -13 b 65 513 127 -13 65 270 b 451 1026 65 858 229 1026 b 796 501 739 1026 796 743 b 416 -13 796 156 638 -13 m 434 142 b 551 178 497 142 532 159 b 588 408 569 197 588 238 b 427 865 588 749 565 865 b 310 830 364 865 329 849 b 274 617 291 810 274 764 b 434 142 274 276 296 142 m 317 1305 b 431 1215 317 1251 350 1215 b 545 1305 511 1215 545 1251 l 670 1305 b 431 1116 676 1183 594 1116 b 192 1305 267 1116 185 1183 l 317 1305 "},"Ô":{"ha":861,"x_min":0,"x_max":0,"o":"m 416 -13 b 65 513 127 -13 65 270 b 451 1026 65 858 229 1026 b 796 501 739 1026 796 743 b 416 -13 796 156 638 -13 m 434 142 b 551 178 497 142 532 159 b 588 408 569 197 588 238 b 427 865 588 749 565 865 b 310 830 364 865 329 849 b 274 617 291 810 274 764 b 434 142 274 276 296 142 m 313 1305 l 549 1305 l 712 1128 l 532 1128 l 431 1249 l 329 1128 l 150 1128 "},"Ö":{"ha":861,"x_min":0,"x_max":0,"o":"m 416 -13 b 65 513 127 -13 65 270 b 451 1026 65 858 229 1026 b 796 501 739 1026 796 743 b 416 -13 796 156 638 -13 m 434 142 b 551 178 497 142 532 159 b 588 408 569 197 588 238 b 427 865 588 749 565 865 b 310 830 364 865 329 849 b 274 617 291 810 274 764 b 434 142 274 276 296 142 m 240 1129 b 135 1229 178 1129 135 1168 b 240 1328 135 1290 178 1328 b 346 1229 303 1328 346 1290 b 240 1129 346 1168 303 1129 m 622 1129 b 517 1229 559 1129 517 1168 b 622 1328 517 1290 559 1328 b 728 1229 685 1328 728 1290 b 622 1129 728 1168 685 1129 "},"Ọ":{"ha":861,"x_min":0,"x_max":0,"o":"m 416 -13 b 65 513 127 -13 65 270 b 451 1026 65 858 229 1026 b 796 501 739 1026 796 743 b 416 -13 796 156 638 -13 m 434 142 b 551 178 497 142 532 159 b 588 408 569 197 588 238 b 427 865 588 749 565 865 b 310 830 364 865 329 849 b 274 617 291 810 274 764 b 434 142 274 276 296 142 m 431 -365 b 299 -242 352 -365 299 -317 b 431 -122 299 -168 352 -122 b 562 -242 509 -122 562 -168 b 431 -365 562 -317 509 -365 "},"Ò":{"ha":861,"x_min":0,"x_max":0,"o":"m 416 -13 b 65 513 127 -13 65 270 b 451 1026 65 858 229 1026 b 796 501 739 1026 796 743 b 416 -13 796 156 638 -13 m 434 142 b 551 178 497 142 532 159 b 588 408 569 197 588 238 b 427 865 588 749 565 865 b 310 830 364 865 329 849 b 274 617 291 810 274 764 b 434 142 274 276 296 142 m 342 1128 l 169 1304 l 385 1304 l 516 1128 "},"Ő":{"ha":861,"x_min":0,"x_max":0,"o":"m 416 -13 b 65 513 127 -13 65 270 b 451 1026 65 858 229 1026 b 796 501 739 1026 796 743 b 416 -13 796 156 638 -13 m 434 142 b 551 178 497 142 532 159 b 588 408 569 197 588 238 b 427 865 588 749 565 865 b 310 830 364 865 329 849 b 274 617 291 810 274 764 b 434 142 274 276 296 142 m 311 1304 l 467 1304 l 351 1128 l 221 1128 m 597 1304 l 753 1304 l 637 1128 l 507 1128 "},"Ō":{"ha":861,"x_min":0,"x_max":0,"o":"m 416 -13 b 65 513 127 -13 65 270 b 451 1026 65 858 229 1026 b 796 501 739 1026 796 743 b 416 -13 796 156 638 -13 m 434 142 b 551 178 497 142 532 159 b 588 408 569 197 588 238 b 427 865 588 749 565 865 b 310 830 364 865 329 849 b 274 617 291 810 274 764 b 434 142 274 276 296 142 m 668 1179 l 193 1179 l 193 1302 l 668 1302 "},"Ǫ":{"ha":861,"x_min":0,"x_max":0,"o":"m 434 142 b 551 178 497 142 532 159 b 588 408 569 197 588 238 b 427 865 588 749 565 865 b 310 830 364 865 329 849 b 274 617 291 810 274 764 b 434 142 274 276 296 142 m 65 513 b 451 1026 65 858 229 1026 b 796 501 739 1026 796 743 b 516 -1 796 210 683 44 b 417 -130 441 -54 417 -94 b 497 -184 417 -162 435 -184 l 517 -184 l 517 -303 l 447 -303 b 239 -170 278 -303 239 -237 b 335 -5 239 -112 269 -61 b 65 513 115 44 65 294 "},"Ø":{"ha":861,"x_min":0,"x_max":0,"o":"m 416 -13 b 301 5 373 -13 334 -7 l 215 -179 l 50 -104 l 155 120 b 65 513 85 224 65 375 b 451 1026 65 858 229 1026 b 561 1010 492 1026 529 1021 l 647 1193 l 812 1118 l 708 895 b 796 501 777 791 796 639 b 416 -13 796 156 638 -13 m 434 142 b 551 178 497 142 532 159 b 588 408 569 197 588 238 b 576 685 588 526 585 617 l 355 165 b 434 142 376 150 401 142 m 274 617 b 286 330 274 497 276 401 l 506 845 b 427 865 485 859 459 865 b 310 830 364 865 329 849 b 274 617 291 810 274 764 "},"Ǿ":{"ha":861,"x_min":0,"x_max":0,"o":"m 416 -13 b 301 5 373 -13 334 -7 l 215 -179 l 50 -104 l 155 120 b 65 513 85 224 65 375 b 451 1026 65 858 229 1026 b 561 1010 492 1026 529 1021 l 647 1193 l 812 1118 l 708 895 b 796 501 777 791 796 639 b 416 -13 796 156 638 -13 m 434 142 b 551 178 497 142 532 159 b 588 408 569 197 588 238 b 576 685 588 526 585 617 l 355 165 b 434 142 376 150 401 142 m 481 1128 l 654 1304 l 438 1304 l 307 1128 m 274 617 b 286 330 274 497 276 401 l 506 845 b 427 865 485 859 459 865 b 310 830 364 865 329 849 b 274 617 291 810 274 764 "},"Õ":{"ha":861,"x_min":0,"x_max":0,"o":"m 416 -13 b 65 513 127 -13 65 270 b 451 1026 65 858 229 1026 b 796 501 739 1026 796 743 b 416 -13 796 156 638 -13 m 434 142 b 551 178 497 142 532 159 b 588 408 569 197 588 238 b 427 865 588 749 565 865 b 310 830 364 865 329 849 b 274 617 291 810 274 764 b 434 142 274 276 296 142 m 301 1321 b 519 1231 408 1321 449 1231 b 595 1316 558 1231 586 1258 l 727 1290 b 559 1115 714 1180 651 1115 b 342 1205 452 1115 412 1205 b 266 1120 303 1205 275 1177 l 134 1146 b 301 1321 147 1256 210 1321 "},"Œ":{"ha":861,"x_min":0,"x_max":0,"o":"m 416 0 b 65 513 127 0 65 283 b 446 1014 65 842 227 1011 l 840 1014 l 860 845 l 633 845 l 633 588 l 772 588 l 772 427 l 633 427 l 633 169 l 860 169 l 840 0 l 416 0 m 274 617 b 434 156 274 290 296 156 l 446 156 l 446 853 l 427 853 b 310 817 364 853 329 836 b 274 617 291 798 274 751 "},"P":{"ha":861,"x_min":0,"x_max":0,"o":"m 99 0 l 99 1014 l 472 1014 b 799 731 663 1014 799 932 b 331 335 799 488 620 371 l 308 333 l 308 0 m 325 488 b 590 709 476 506 590 565 b 404 861 590 810 533 861 l 308 861 l 308 486 l 325 488 "},"Þ":{"ha":861,"x_min":0,"x_max":0,"o":"m 99 0 l 99 1014 l 308 1014 l 308 860 l 472 860 b 799 577 663 860 799 778 b 331 182 799 335 620 217 l 308 179 l 308 0 m 325 334 b 590 556 476 352 590 411 b 404 708 590 656 533 708 l 308 708 l 308 332 l 325 334 "},"Q":{"ha":861,"x_min":0,"x_max":0,"o":"m 445 1026 b 65 546 208 1026 65 860 b 782 -196 65 103 346 -138 l 858 -42 b 499 74 713 -13 592 19 b 399 154 461 97 427 123 b 347 130 382 144 364 137 l 432 45 b 499 74 454 53 476 63 b 796 595 647 150 796 306 b 445 1026 796 796 723 1026 m 271 590 b 317 820 271 747 297 803 b 417 852 335 839 369 852 b 588 587 558 852 588 738 b 399 154 588 328 503 213 b 271 590 315 246 271 380 "},"R":{"ha":861,"x_min":0,"x_max":0,"o":"m 101 0 l 101 1014 l 476 1014 b 803 768 650 1014 803 955 b 580 449 803 637 724 526 l 835 0 l 592 0 l 358 461 l 357 483 b 584 732 520 551 584 631 b 424 860 584 826 529 860 l 310 860 l 310 0 "},"Ŕ":{"ha":861,"x_min":0,"x_max":0,"o":"m 101 0 l 101 1014 l 476 1014 b 803 768 650 1014 803 955 b 580 449 803 637 724 526 l 835 0 l 592 0 l 358 461 l 357 483 b 584 732 520 551 584 631 b 424 860 584 826 529 860 l 310 860 l 310 0 m 519 1128 l 692 1304 l 476 1304 l 345 1128 "},"Ř":{"ha":861,"x_min":0,"x_max":0,"o":"m 101 0 l 101 1014 l 476 1014 b 803 768 650 1014 803 955 b 580 449 803 637 724 526 l 835 0 l 592 0 l 358 461 l 357 483 b 584 732 520 551 584 631 b 424 860 584 826 529 860 l 310 860 l 310 0 m 313 1128 l 549 1128 l 712 1305 l 532 1305 l 431 1183 l 329 1305 l 150 1305 "},"Ŗ":{"ha":861,"x_min":0,"x_max":0,"o":"m 101 0 l 101 1014 l 476 1014 b 803 768 650 1014 803 955 b 580 449 803 637 724 526 l 835 0 l 592 0 l 358 461 l 357 483 b 584 732 520 551 584 631 b 424 860 584 826 529 860 l 310 860 l 310 0 m 427 -351 b 303 -237 357 -351 303 -308 b 428 -124 303 -167 356 -124 b 565 -278 505 -124 565 -172 b 351 -541 565 -415 459 -496 l 293 -469 b 449 -350 359 -436 422 -403 b 427 -351 442 -351 435 -351 "},"S":{"ha":861,"x_min":0,"x_max":0,"o":"m 744 834 b 502 856 656 851 575 856 b 315 824 377 856 335 840 b 292 769 302 815 292 797 b 489 601 292 690 385 649 b 772 304 630 536 764 481 b 346 -14 772 109 609 -14 b 97 26 248 -14 160 6 l 90 202 b 415 156 190 172 312 156 b 556 186 485 156 532 165 b 577 244 569 197 577 218 b 356 429 577 317 533 343 b 107 724 205 503 107 572 b 553 1032 107 956 333 1032 b 735 1013 613 1032 673 1026 l 744 834 "},"Ś":{"ha":861,"x_min":0,"x_max":0,"o":"m 744 834 b 502 856 656 851 575 856 b 315 824 377 856 335 840 b 292 769 302 815 292 797 b 489 601 292 690 385 649 b 772 304 630 536 764 481 b 346 -14 772 109 609 -14 b 97 26 248 -14 160 6 l 90 202 b 415 156 190 172 312 156 b 556 186 485 156 532 165 b 577 244 569 197 577 218 b 356 429 577 317 533 343 b 107 724 205 503 107 572 b 553 1032 107 956 333 1032 b 735 1013 613 1032 673 1026 l 744 834 m 519 1128 l 692 1304 l 476 1304 l 345 1128 "},"Š":{"ha":861,"x_min":0,"x_max":0,"o":"m 744 834 b 502 856 656 851 575 856 b 315 824 377 856 335 840 b 292 769 302 815 292 797 b 489 601 292 690 385 649 b 772 304 630 536 764 481 b 346 -14 772 109 609 -14 b 97 26 248 -14 160 6 l 90 202 b 415 156 190 172 312 156 b 556 186 485 156 532 165 b 577 244 569 197 577 218 b 356 429 577 317 533 343 b 107 724 205 503 107 572 b 553 1032 107 956 333 1032 b 735 1013 613 1032 673 1026 l 744 834 m 313 1128 l 549 1128 l 712 1305 l 532 1305 l 431 1183 l 329 1305 l 150 1305 "},"Ş":{"ha":861,"x_min":0,"x_max":0,"o":"m 744 834 b 502 856 656 851 575 856 b 315 824 377 856 335 840 b 292 769 302 815 292 797 b 489 601 292 690 385 649 b 772 304 630 536 764 481 b 488 -1 772 147 666 37 l 489 -110 b 611 -273 569 -131 611 -178 b 386 -434 611 -370 566 -434 l 324 -434 l 324 -330 l 369 -330 b 465 -262 438 -330 465 -306 b 372 -185 465 -210 426 -192 l 372 -13 l 346 -14 b 97 26 248 -14 160 6 l 90 202 b 415 156 190 172 312 156 b 556 186 485 156 532 165 b 577 244 569 197 577 218 b 356 429 577 317 533 343 b 107 724 205 503 107 572 b 553 1032 107 956 333 1032 b 735 1013 613 1032 673 1026 l 744 834 "},"Ŝ":{"ha":861,"x_min":0,"x_max":0,"o":"m 744 834 b 502 856 656 851 575 856 b 315 824 377 856 335 840 b 292 769 302 815 292 797 b 489 601 292 690 385 649 b 772 304 630 536 764 481 b 346 -14 772 109 609 -14 b 97 26 248 -14 160 6 l 90 202 b 415 156 190 172 312 156 b 556 186 485 156 532 165 b 577 244 569 197 577 218 b 356 429 577 317 533 343 b 107 724 205 503 107 572 b 553 1032 107 956 333 1032 b 735 1013 613 1032 673 1026 l 744 834 m 313 1305 l 549 1305 l 712 1128 l 532 1128 l 431 1249 l 329 1128 l 150 1128 "},"Ș":{"ha":861,"x_min":0,"x_max":0,"o":"m 744 834 b 502 856 656 851 575 856 b 315 824 377 856 335 840 b 292 769 302 815 292 797 b 489 601 292 690 385 649 b 772 304 630 536 764 481 b 346 -14 772 109 609 -14 b 97 26 248 -14 160 6 l 90 202 b 415 156 190 172 312 156 b 556 186 485 156 532 165 b 577 244 569 197 577 218 b 356 429 577 317 533 343 b 107 724 205 503 107 572 b 553 1032 107 956 333 1032 b 735 1013 613 1032 673 1026 l 744 834 m 427 -351 b 303 -237 357 -351 303 -308 b 428 -124 303 -167 356 -124 b 565 -278 505 -124 565 -172 b 351 -541 565 -415 459 -496 l 293 -469 b 449 -350 359 -436 422 -403 b 427 -351 442 -351 435 -351 "},"ẞ":{"ha":861,"x_min":0,"x_max":0,"o":"m 99 0 l 99 1014 l 745 1014 l 745 892 l 634 569 b 813 322 736 531 813 452 b 481 -9 813 147 677 35 l 458 -13 l 426 140 l 474 151 b 608 323 552 165 608 238 b 463 511 608 419 538 474 l 463 603 l 549 859 l 296 859 l 296 0 "},"T":{"ha":861,"x_min":0,"x_max":0,"o":"m 329 0 l 329 845 l 54 845 l 68 1014 l 792 1014 l 806 845 l 533 845 l 533 0 "},"Ŧ":{"ha":861,"x_min":0,"x_max":0,"o":"m 174 594 l 329 594 l 329 845 l 54 845 l 68 1014 l 792 1014 l 806 845 l 533 845 l 533 594 l 687 594 l 687 424 l 533 424 l 533 0 l 329 0 l 329 424 l 174 424 "},"Ť":{"ha":861,"x_min":0,"x_max":0,"o":"m 329 0 l 329 845 l 54 845 l 68 1014 l 792 1014 l 806 845 l 533 845 l 533 0 m 313 1128 l 549 1128 l 712 1305 l 532 1305 l 431 1183 l 329 1305 l 150 1305 "},"Ţ":{"ha":861,"x_min":0,"x_max":0,"o":"m 489 0 l 490 -110 b 613 -273 571 -131 613 -178 b 388 -434 613 -370 567 -434 l 326 -434 l 326 -330 l 371 -330 b 467 -262 440 -330 467 -306 b 374 -185 467 -210 428 -192 l 374 0 l 329 0 l 329 845 l 54 845 l 68 1014 l 792 1014 l 806 845 l 533 845 l 533 0 "},"Ț":{"ha":861,"x_min":0,"x_max":0,"o":"m 329 0 l 329 845 l 54 845 l 68 1014 l 792 1014 l 806 845 l 533 845 l 533 0 m 429 -351 b 306 -237 359 -351 306 -308 b 430 -124 306 -167 358 -124 b 566 -278 507 -124 566 -172 b 353 -541 566 -415 461 -496 l 295 -469 b 451 -350 361 -436 424 -403 b 429 -351 444 -351 437 -351 "},"U":{"ha":861,"x_min":0,"x_max":0,"o":"m 404 -13 b 78 292 205 -13 78 91 l 78 1014 l 288 1014 l 288 306 b 438 160 288 196 353 160 b 543 183 488 160 526 168 b 577 290 561 197 577 219 l 577 1014 l 783 1014 l 783 321 b 404 -13 783 73 610 -13 "},"Ú":{"ha":861,"x_min":0,"x_max":0,"o":"m 404 -13 b 78 292 205 -13 78 91 l 78 1014 l 288 1014 l 288 306 b 438 160 288 196 353 160 b 543 183 488 160 526 168 b 577 290 561 197 577 219 l 577 1014 l 783 1014 l 783 321 b 404 -13 783 73 610 -13 m 519 1128 l 692 1304 l 476 1304 l 345 1128 "},"Ŭ":{"ha":861,"x_min":0,"x_max":0,"o":"m 404 -13 b 78 292 205 -13 78 91 l 78 1014 l 288 1014 l 288 306 b 438 160 288 196 353 160 b 543 183 488 160 526 168 b 577 290 561 197 577 219 l 577 1014 l 783 1014 l 783 321 b 404 -13 783 73 610 -13 m 317 1305 b 431 1215 317 1251 350 1215 b 545 1305 511 1215 545 1251 l 670 1305 b 431 1116 676 1183 594 1116 b 192 1305 267 1116 185 1183 l 317 1305 "},"Û":{"ha":861,"x_min":0,"x_max":0,"o":"m 404 -13 b 78 292 205 -13 78 91 l 78 1014 l 288 1014 l 288 306 b 438 160 288 196 353 160 b 543 183 488 160 526 168 b 577 290 561 197 577 219 l 577 1014 l 783 1014 l 783 321 b 404 -13 783 73 610 -13 m 313 1305 l 549 1305 l 712 1128 l 532 1128 l 431 1249 l 329 1128 l 150 1128 "},"Ü":{"ha":861,"x_min":0,"x_max":0,"o":"m 404 -13 b 78 292 205 -13 78 91 l 78 1014 l 288 1014 l 288 306 b 438 160 288 196 353 160 b 543 183 488 160 526 168 b 577 290 561 197 577 219 l 577 1014 l 783 1014 l 783 321 b 404 -13 783 73 610 -13 m 240 1129 b 135 1229 178 1129 135 1168 b 240 1328 135 1290 178 1328 b 346 1229 303 1328 346 1290 b 240 1129 346 1168 303 1129 m 622 1129 b 517 1229 559 1129 517 1168 b 622 1328 517 1290 559 1328 b 728 1229 685 1328 728 1290 b 622 1129 728 1168 685 1129 "},"Ụ":{"ha":861,"x_min":0,"x_max":0,"o":"m 404 -13 b 78 292 205 -13 78 91 l 78 1014 l 288 1014 l 288 306 b 438 160 288 196 353 160 b 543 183 488 160 526 168 b 577 290 561 197 577 219 l 577 1014 l 783 1014 l 783 321 b 404 -13 783 73 610 -13 m 431 -365 b 299 -242 352 -365 299 -317 b 431 -122 299 -168 352 -122 b 562 -242 509 -122 562 -168 b 431 -365 562 -317 509 -365 "},"Ù":{"ha":861,"x_min":0,"x_max":0,"o":"m 404 -13 b 78 292 205 -13 78 91 l 78 1014 l 288 1014 l 288 306 b 438 160 288 196 353 160 b 543 183 488 160 526 168 b 577 290 561 197 577 219 l 577 1014 l 783 1014 l 783 321 b 404 -13 783 73 610 -13 m 342 1128 l 169 1304 l 385 1304 l 516 1128 "},"Ű":{"ha":861,"x_min":0,"x_max":0,"o":"m 404 -13 b 78 292 205 -13 78 91 l 78 1014 l 288 1014 l 288 306 b 438 160 288 196 353 160 b 543 183 488 160 526 168 b 577 290 561 197 577 219 l 577 1014 l 783 1014 l 783 321 b 404 -13 783 73 610 -13 m 311 1304 l 467 1304 l 351 1128 l 221 1128 m 597 1304 l 753 1304 l 637 1128 l 507 1128 "},"Ū":{"ha":861,"x_min":0,"x_max":0,"o":"m 404 -13 b 78 292 205 -13 78 91 l 78 1014 l 288 1014 l 288 306 b 438 160 288 196 353 160 b 543 183 488 160 526 168 b 577 290 561 197 577 219 l 577 1014 l 783 1014 l 783 321 b 404 -13 783 73 610 -13 m 668 1179 l 193 1179 l 193 1302 l 668 1302 "},"Ų":{"ha":861,"x_min":0,"x_max":0,"o":"m 78 1014 l 288 1014 l 288 306 b 438 160 288 196 353 160 b 543 183 488 160 526 168 b 577 290 561 197 577 219 l 577 1014 l 783 1014 l 783 321 b 531 -1 783 126 676 31 b 432 -130 456 -54 432 -94 b 512 -184 432 -162 451 -184 l 532 -184 l 532 -303 l 462 -303 b 254 -170 294 -303 254 -237 b 344 -10 254 -113 283 -64 b 78 292 180 10 78 112 "},"Ů":{"ha":861,"x_min":0,"x_max":0,"o":"m 404 -13 b 78 292 205 -13 78 91 l 78 1014 l 288 1014 l 288 306 b 438 160 288 196 353 160 b 543 183 488 160 526 168 b 577 290 561 197 577 219 l 577 1014 l 783 1014 l 783 321 b 404 -13 783 73 610 -13 m 431 970 b 264 1142 333 970 264 1043 b 431 1313 264 1240 333 1313 b 598 1142 528 1313 598 1240 b 431 970 598 1043 528 970 m 431 1052 b 517 1142 484 1052 517 1090 b 431 1231 517 1192 484 1231 b 344 1142 378 1231 344 1192 b 431 1052 344 1090 378 1052 "},"Ũ":{"ha":861,"x_min":0,"x_max":0,"o":"m 404 -13 b 78 292 205 -13 78 91 l 78 1014 l 288 1014 l 288 306 b 438 160 288 196 353 160 b 543 183 488 160 526 168 b 577 290 561 197 577 219 l 577 1014 l 783 1014 l 783 321 b 404 -13 783 73 610 -13 m 301 1321 b 519 1231 408 1321 449 1231 b 595 1316 558 1231 586 1258 l 727 1290 b 559 1115 714 1180 651 1115 b 342 1205 452 1115 412 1205 b 266 1120 303 1205 275 1177 l 134 1146 b 301 1321 147 1256 210 1321 "},"V":{"ha":861,"x_min":0,"x_max":0,"o":"m 269 1014 b 433 255 298 748 350 479 l 449 255 b 613 1014 532 479 584 748 l 803 1014 b 532 0 766 676 687 340 l 338 0 b 58 1014 176 346 101 671 l 269 1014 "},"W":{"ha":861,"x_min":0,"x_max":0,"o":"m 550 0 b 435 554 501 178 465 369 l 422 554 b 301 0 393 369 353 177 l 186 0 b 21 1014 99 322 40 655 l 208 1014 b 277 413 221 808 244 611 l 291 413 b 381 845 333 570 360 710 l 495 845 b 576 413 513 710 539 570 l 593 413 b 668 1014 628 606 655 808 l 841 1014 b 676 0 822 655 763 322 l 550 0 "},"Ẃ":{"ha":861,"x_min":0,"x_max":0,"o":"m 550 0 b 435 554 501 178 465 369 l 422 554 b 301 0 393 369 353 177 l 186 0 b 21 1014 99 322 40 655 l 208 1014 b 277 413 221 808 244 611 l 291 413 b 381 845 333 570 360 710 l 495 845 b 576 413 513 710 539 570 l 593 413 b 668 1014 628 606 655 808 l 841 1014 b 676 0 822 655 763 322 l 550 0 m 519 1128 l 692 1304 l 476 1304 l 345 1128 "},"Ŵ":{"ha":861,"x_min":0,"x_max":0,"o":"m 550 0 b 435 554 501 178 465 369 l 422 554 b 301 0 393 369 353 177 l 186 0 b 21 1014 99 322 40 655 l 208 1014 b 277 413 221 808 244 611 l 291 413 b 381 845 333 570 360 710 l 495 845 b 576 413 513 710 539 570 l 593 413 b 668 1014 628 606 655 808 l 841 1014 b 676 0 822 655 763 322 l 550 0 m 313 1305 l 549 1305 l 712 1128 l 532 1128 l 431 1249 l 329 1128 l 150 1128 "},"Ẅ":{"ha":861,"x_min":0,"x_max":0,"o":"m 550 0 b 435 554 501 178 465 369 l 422 554 b 301 0 393 369 353 177 l 186 0 b 21 1014 99 322 40 655 l 208 1014 b 277 413 221 808 244 611 l 291 413 b 381 845 333 570 360 710 l 495 845 b 576 413 513 710 539 570 l 593 413 b 668 1014 628 606 655 808 l 841 1014 b 676 0 822 655 763 322 l 550 0 m 240 1129 b 135 1229 178 1129 135 1168 b 240 1328 135 1290 178 1328 b 346 1229 303 1328 346 1290 b 240 1129 346 1168 303 1129 m 622 1129 b 517 1229 559 1129 517 1168 b 622 1328 517 1290 559 1328 b 728 1229 685 1328 728 1290 b 622 1129 728 1168 685 1129 "},"Ẁ":{"ha":861,"x_min":0,"x_max":0,"o":"m 550 0 b 435 554 501 178 465 369 l 422 554 b 301 0 393 369 353 177 l 186 0 b 21 1014 99 322 40 655 l 208 1014 b 277 413 221 808 244 611 l 291 413 b 381 845 333 570 360 710 l 495 845 b 576 413 513 710 539 570 l 593 413 b 668 1014 628 606 655 808 l 841 1014 b 676 0 822 655 763 322 l 550 0 m 342 1128 l 169 1304 l 385 1304 l 516 1128 "},"X":{"ha":861,"x_min":0,"x_max":0,"o":"m 264 1014 l 452 675 l 620 1014 l 824 1014 l 542 513 l 826 0 l 603 0 l 414 343 l 251 0 l 34 0 l 316 522 l 44 1014 "},"Y":{"ha":861,"x_min":0,"x_max":0,"o":"m 328 0 l 328 435 b 31 1014 188 631 91 818 l 246 1014 b 433 601 288 859 363 718 l 449 601 b 637 1014 519 718 594 859 l 831 1014 b 533 428 774 820 673 624 l 533 0 "},"Ý":{"ha":861,"x_min":0,"x_max":0,"o":"m 328 0 l 328 435 b 31 1014 188 631 91 818 l 246 1014 b 433 601 288 859 363 718 l 449 601 b 637 1014 519 718 594 859 l 831 1014 b 533 428 774 820 673 624 l 533 0 m 519 1128 l 692 1304 l 477 1304 l 345 1128 "},"Ŷ":{"ha":861,"x_min":0,"x_max":0,"o":"m 328 0 l 328 435 b 31 1014 188 631 91 818 l 246 1014 b 433 601 288 859 363 718 l 449 601 b 637 1014 519 718 594 859 l 831 1014 b 533 428 774 820 673 624 l 533 0 m 313 1305 l 549 1305 l 712 1128 l 532 1128 l 431 1250 l 329 1128 l 150 1128 "},"Ÿ":{"ha":861,"x_min":0,"x_max":0,"o":"m 328 0 l 328 435 b 31 1014 188 631 91 818 l 246 1014 b 433 601 288 859 363 718 l 449 601 b 637 1014 519 718 594 859 l 831 1014 b 533 428 774 820 673 624 l 533 0 m 240 1129 b 135 1229 178 1129 135 1168 b 240 1328 135 1290 178 1328 b 346 1229 303 1328 346 1290 b 240 1129 346 1168 303 1129 m 622 1129 b 517 1229 559 1129 517 1168 b 622 1328 517 1290 559 1328 b 728 1229 685 1328 728 1290 b 622 1129 728 1168 685 1129 "},"Ỳ":{"ha":861,"x_min":0,"x_max":0,"o":"m 328 0 l 328 435 b 31 1014 188 631 91 818 l 246 1014 b 433 601 288 859 363 718 l 449 601 b 637 1014 519 718 594 859 l 831 1014 b 533 428 774 820 673 624 l 533 0 m 342 1128 l 169 1304 l 385 1304 l 516 1128 "},"Ȳ":{"ha":861,"x_min":0,"x_max":0,"o":"m 328 0 l 328 435 b 31 1014 188 631 91 818 l 246 1014 b 433 601 288 859 363 718 l 449 601 b 637 1014 519 718 594 859 l 831 1014 b 533 428 774 820 673 624 l 533 0 m 668 1179 l 193 1179 l 193 1302 l 668 1302 "},"Ỹ":{"ha":861,"x_min":0,"x_max":0,"o":"m 328 0 l 328 435 b 31 1014 188 631 91 818 l 246 1014 b 433 601 288 859 363 718 l 449 601 b 637 1014 519 718 594 859 l 831 1014 b 533 428 774 820 673 624 l 533 0 m 301 1321 b 519 1231 409 1321 449 1231 b 595 1316 558 1231 586 1258 l 727 1290 b 559 1115 714 1180 651 1115 b 342 1205 452 1115 412 1205 b 266 1120 303 1205 275 1177 l 134 1146 b 301 1321 147 1256 210 1321 "},"Z":{"ha":861,"x_min":0,"x_max":0,"o":"m 726 1014 l 745 916 l 352 176 l 806 176 l 742 0 l 106 0 l 89 104 l 488 849 l 63 849 l 119 1014 "},"Ź":{"ha":861,"x_min":0,"x_max":0,"o":"m 726 1014 l 745 916 l 352 176 l 806 176 l 742 0 l 106 0 l 89 104 l 488 849 l 63 849 l 119 1014 m 519 1128 l 692 1304 l 476 1304 l 345 1128 "},"Ž":{"ha":861,"x_min":0,"x_max":0,"o":"m 726 1014 l 745 916 l 352 176 l 806 176 l 742 0 l 106 0 l 89 104 l 488 849 l 63 849 l 119 1014 m 313 1128 l 549 1128 l 712 1305 l 532 1305 l 431 1183 l 329 1305 l 150 1305 "},"Ż":{"ha":861,"x_min":0,"x_max":0,"o":"m 726 1014 l 745 916 l 352 176 l 806 176 l 742 0 l 106 0 l 89 104 l 488 849 l 63 849 l 119 1014 m 428 1129 b 321 1229 364 1129 321 1168 b 428 1328 321 1290 364 1328 b 536 1229 492 1328 536 1290 b 428 1129 536 1168 492 1129 "},"a":{"ha":861,"x_min":0,"x_max":0,"o":"m 544 0 l 544 61 l 531 61 b 290 -16 451 6 361 -16 b 76 175 158 -16 76 60 b 544 428 76 367 345 418 l 544 506 b 423 584 544 563 492 584 b 103 521 349 584 238 566 l 121 707 b 451 758 219 736 336 758 b 748 542 651 758 748 694 l 748 0 m 283 212 b 396 126 283 154 331 126 b 544 165 447 126 499 142 l 544 297 b 347 286 492 301 408 303 b 283 212 302 274 283 251 "},"á":{"ha":861,"x_min":0,"x_max":0,"o":"m 544 0 l 544 61 l 531 61 b 290 -16 451 6 361 -16 b 76 175 158 -16 76 60 b 544 428 76 367 345 418 l 544 506 b 423 584 544 563 492 584 b 103 521 349 584 238 566 l 121 707 b 451 758 219 736 336 758 b 748 542 651 758 748 694 l 748 0 m 519 885 l 692 1135 l 476 1135 l 345 885 m 283 212 b 396 126 283 154 331 126 b 544 165 447 126 499 142 l 544 297 b 347 286 492 301 408 303 b 283 212 302 274 283 251 "},"ă":{"ha":861,"x_min":0,"x_max":0,"o":"m 544 0 l 544 61 l 531 61 b 290 -16 451 6 361 -16 b 76 175 158 -16 76 60 b 544 428 76 367 345 418 l 544 506 b 423 584 544 563 492 584 b 103 521 349 584 238 566 l 121 707 b 451 758 219 736 336 758 b 748 542 651 758 748 694 l 748 0 m 317 1135 b 431 1001 317 1049 350 1001 b 545 1135 511 1001 545 1049 l 670 1135 b 431 878 676 968 594 878 b 192 1135 267 878 185 968 l 317 1135 m 283 212 b 396 126 283 154 331 126 b 544 165 447 126 499 142 l 544 297 b 347 286 492 301 408 303 b 283 212 302 274 283 251 "},"â":{"ha":861,"x_min":0,"x_max":0,"o":"m 544 0 l 544 61 l 531 61 b 290 -16 451 6 361 -16 b 76 175 158 -16 76 60 b 544 428 76 367 345 418 l 544 506 b 423 584 544 563 492 584 b 103 521 349 584 238 566 l 121 707 b 451 758 219 736 336 758 b 748 542 651 758 748 694 l 748 0 m 313 1135 l 548 1135 l 712 885 l 539 885 l 431 1064 l 322 885 l 150 885 m 283 212 b 396 126 283 154 331 126 b 544 165 447 126 499 142 l 544 297 b 347 286 492 301 408 303 b 283 212 302 274 283 251 "},"ä":{"ha":861,"x_min":0,"x_max":0,"o":"m 544 0 l 544 61 l 531 61 b 290 -16 451 6 361 -16 b 76 175 158 -16 76 60 b 544 428 76 367 345 418 l 544 506 b 423 584 544 563 492 584 b 103 521 349 584 238 566 l 121 707 b 451 758 219 736 336 758 b 748 542 651 758 748 694 l 748 0 m 240 862 b 123 984 170 862 123 910 b 240 1103 123 1058 170 1103 b 357 984 310 1103 357 1058 b 240 862 357 910 310 862 m 622 862 b 504 984 551 862 504 910 b 622 1103 504 1058 551 1103 b 738 984 691 1103 738 1058 b 622 862 738 910 691 862 m 283 212 b 396 126 283 154 331 126 b 544 165 447 126 499 142 l 544 297 b 347 286 492 301 408 303 b 283 212 302 274 283 251 "},"à":{"ha":861,"x_min":0,"x_max":0,"o":"m 544 0 l 544 61 l 531 61 b 290 -16 451 6 361 -16 b 76 175 158 -16 76 60 b 544 428 76 367 345 418 l 544 506 b 423 584 544 563 492 584 b 103 521 349 584 238 566 l 121 707 b 451 758 219 736 336 758 b 748 542 651 758 748 694 l 748 0 m 342 885 l 169 1135 l 385 1135 l 516 885 m 283 212 b 396 126 283 154 331 126 b 544 165 447 126 499 142 l 544 297 b 347 286 492 301 408 303 b 283 212 302 274 283 251 "},"ā":{"ha":861,"x_min":0,"x_max":0,"o":"m 544 0 l 544 61 l 531 61 b 290 -16 451 6 361 -16 b 76 175 158 -16 76 60 b 544 428 76 367 345 418 l 544 506 b 423 584 544 563 492 584 b 103 521 349 584 238 566 l 121 707 b 451 758 219 736 336 758 b 748 542 651 758 748 694 l 748 0 m 668 907 l 193 907 l 193 1030 l 668 1030 m 283 212 b 396 126 283 154 331 126 b 544 165 447 126 499 142 l 544 297 b 347 286 492 301 408 303 b 283 212 302 274 283 251 "},"ą":{"ha":861,"x_min":0,"x_max":0,"o":"m 748 0 b 649 -130 673 -54 649 -94 b 728 -184 649 -162 667 -184 l 748 -184 l 748 -303 l 678 -303 b 471 -170 510 -303 471 -237 b 573 0 471 -110 503 -58 l 544 0 l 544 61 l 531 61 b 290 -16 451 6 361 -16 b 76 175 158 -16 76 60 b 544 428 76 367 345 418 l 544 506 b 423 584 544 563 492 584 b 103 521 349 584 238 566 l 121 707 b 451 758 219 736 336 758 b 748 542 651 758 748 694 l 748 0 m 283 212 b 396 126 283 154 331 126 b 544 165 447 126 499 142 l 544 297 b 347 286 492 301 408 303 b 283 212 302 274 283 251 "},"å":{"ha":861,"x_min":0,"x_max":0,"o":"m 544 0 l 544 61 l 531 61 b 290 -16 451 6 361 -16 b 76 175 158 -16 76 60 b 544 428 76 367 345 418 l 544 506 b 423 584 544 563 492 584 b 103 521 349 584 238 566 l 121 707 b 451 758 219 736 336 758 b 748 542 651 758 748 694 l 748 0 m 431 841 b 264 1013 333 841 264 914 b 431 1184 264 1112 333 1184 b 598 1013 528 1184 598 1112 b 431 841 598 914 528 841 m 431 924 b 517 1013 484 924 517 962 b 431 1101 517 1064 484 1101 b 344 1013 378 1101 344 1064 b 431 924 344 962 378 924 m 283 212 b 396 126 283 154 331 126 b 544 165 447 126 499 142 l 544 297 b 347 286 492 301 408 303 b 283 212 302 274 283 251 "},"ã":{"ha":861,"x_min":0,"x_max":0,"o":"m 544 0 l 544 61 l 531 61 b 290 -16 451 6 361 -16 b 76 175 158 -16 76 60 b 544 428 76 367 345 418 l 544 506 b 423 584 544 563 492 584 b 103 521 349 584 238 566 l 121 707 b 451 758 219 736 336 758 b 748 542 651 758 748 694 l 748 0 m 296 1144 b 515 1020 403 1144 445 1020 b 590 1138 553 1020 581 1060 l 722 1103 b 554 864 708 951 645 864 b 336 988 447 864 405 988 b 261 869 297 988 270 948 l 129 905 b 296 1144 142 1056 205 1144 m 283 212 b 396 126 283 154 331 126 b 544 165 447 126 499 142 l 544 297 b 347 286 492 301 408 303 b 283 212 302 274 283 251 "},"æ":{"ha":861,"x_min":0,"x_max":0,"o":"m 618 -17 b 440 63 542 -17 483 10 l 410 63 b 219 -17 367 19 299 -17 b 34 168 113 -17 34 48 b 363 427 34 342 203 415 l 363 494 b 247 589 363 569 300 589 b 60 526 191 589 124 566 l 77 706 b 262 758 132 740 195 758 b 453 673 338 758 411 733 b 618 758 497 733 558 758 b 823 439 758 758 823 637 l 823 336 l 515 336 b 659 140 524 223 561 140 b 799 172 701 140 747 155 l 796 26 b 618 -17 745 3 683 -17 m 194 208 b 292 119 194 153 225 119 b 398 142 326 119 364 129 b 369 299 382 185 372 238 b 263 288 336 300 301 299 b 194 208 212 274 194 251 m 683 447 l 684 467 b 594 614 684 560 651 614 b 544 594 578 614 558 610 b 513 447 529 577 516 533 "},"ǽ":{"ha":861,"x_min":0,"x_max":0,"o":"m 618 -17 b 440 63 542 -17 483 10 l 410 63 b 219 -17 367 19 299 -17 b 34 168 113 -17 34 48 b 363 427 34 342 203 415 l 363 494 b 247 589 363 569 300 589 b 60 526 191 589 124 566 l 77 706 b 262 758 132 740 195 758 b 453 673 338 758 411 733 b 618 758 497 733 558 758 b 823 439 758 758 823 637 l 823 336 l 515 336 b 659 140 524 223 561 140 b 799 172 701 140 747 155 l 796 26 b 618 -17 745 3 683 -17 m 519 885 l 692 1135 l 476 1135 l 345 885 m 194 208 b 292 119 194 153 225 119 b 398 142 326 119 364 129 b 369 299 382 185 372 238 b 263 288 336 300 301 299 b 194 208 212 274 194 251 m 683 447 l 684 467 b 594 614 684 560 651 614 b 544 594 578 614 558 610 b 513 447 529 577 516 533 "},"b":{"ha":861,"x_min":0,"x_max":0,"o":"m 802 412 b 387 -16 802 115 610 -16 b 173 28 310 -16 240 -1 l 119 0 l 80 0 l 80 1063 l 285 1063 l 285 660 l 297 660 b 522 757 353 718 425 757 b 802 412 692 757 802 638 m 285 161 b 422 133 328 143 373 133 b 526 159 463 133 495 140 b 590 365 557 178 590 226 b 424 602 590 482 565 602 b 285 573 381 602 334 591 l 285 161 "},"c":{"ha":861,"x_min":0,"x_max":0,"o":"m 544 758 b 747 731 621 758 688 747 l 762 549 b 490 568 660 562 553 568 b 351 538 415 568 379 558 b 299 396 328 521 299 486 b 533 157 299 217 403 157 b 765 191 606 157 692 172 l 763 35 b 499 -17 715 13 628 -17 b 93 353 238 -17 93 109 b 544 758 93 654 310 758 "},"ć":{"ha":861,"x_min":0,"x_max":0,"o":"m 544 758 b 747 731 621 758 688 747 l 762 549 b 490 568 660 562 553 568 b 351 538 415 568 379 558 b 299 396 328 521 299 486 b 533 157 299 217 403 157 b 765 191 606 157 692 172 l 763 35 b 499 -17 715 13 628 -17 b 93 353 238 -17 93 109 b 544 758 93 654 310 758 m 562 885 l 735 1135 l 519 1135 l 388 885 "},"č":{"ha":861,"x_min":0,"x_max":0,"o":"m 544 758 b 747 731 621 758 688 747 l 762 549 b 490 568 660 562 553 568 b 351 538 415 568 379 558 b 299 396 328 521 299 486 b 533 157 299 217 403 157 b 765 191 606 157 692 172 l 763 35 b 499 -17 715 13 628 -17 b 93 353 238 -17 93 109 b 544 758 93 654 310 758 m 356 885 l 591 885 l 754 1135 l 582 1135 l 474 957 l 365 1135 l 192 1135 "},"ç":{"ha":861,"x_min":0,"x_max":0,"o":"m 544 758 b 747 731 621 758 688 747 l 762 549 b 490 568 660 562 553 568 b 351 538 415 568 379 558 b 299 396 328 521 299 486 b 533 157 299 217 403 157 b 765 191 606 157 692 172 l 763 35 b 499 -17 715 13 628 -17 l 488 -17 l 489 -110 b 611 -273 569 -131 611 -178 b 386 -434 611 -370 566 -434 l 324 -434 l 324 -330 l 369 -330 b 465 -262 438 -330 465 -306 b 372 -185 465 -210 426 -192 l 372 -5 b 93 353 192 31 93 152 b 544 758 93 654 310 758 "},"ĉ":{"ha":861,"x_min":0,"x_max":0,"o":"m 544 758 b 747 731 621 758 688 747 l 762 549 b 490 568 660 562 553 568 b 351 538 415 568 379 558 b 299 396 328 521 299 486 b 533 157 299 217 403 157 b 765 191 606 157 692 172 l 763 35 b 499 -17 715 13 628 -17 b 93 353 238 -17 93 109 b 544 758 93 654 310 758 m 356 1135 l 591 1135 l 754 885 l 582 885 l 474 1064 l 365 885 l 192 885 "},"ċ":{"ha":861,"x_min":0,"x_max":0,"o":"m 544 758 b 747 731 621 758 688 747 l 762 549 b 490 568 660 562 553 568 b 351 538 415 568 379 558 b 299 396 328 521 299 486 b 533 157 299 217 403 157 b 765 191 606 157 692 172 l 763 35 b 499 -17 715 13 628 -17 b 93 353 238 -17 93 109 b 544 758 93 654 310 758 m 474 865 b 342 986 395 865 342 912 b 474 1106 342 1060 395 1106 b 605 986 552 1106 605 1060 b 474 865 605 912 552 865 "},"d":{"ha":861,"x_min":0,"x_max":0,"o":"m 59 328 b 474 757 59 626 251 757 b 576 747 510 757 544 753 l 576 1063 l 781 1063 l 781 0 l 586 0 l 586 81 l 565 81 b 340 -16 508 23 436 -16 b 59 328 169 -16 59 103 m 272 376 b 438 139 272 258 296 139 b 576 168 481 139 527 150 l 576 580 b 440 608 533 598 488 608 b 335 582 399 608 366 601 b 272 376 304 563 272 515 "},"ď":{"ha":861,"x_min":0,"x_max":0,"o":"m 60 328 b 430 757 60 625 242 757 b 501 750 452 757 476 755 l 501 1063 l 700 1063 l 700 0 l 510 0 l 510 81 l 492 81 b 307 -16 444 23 390 -16 b 60 328 162 -16 60 103 m 773 1176 l 924 1176 l 899 908 l 763 908 m 253 376 b 388 139 253 258 283 139 b 501 166 419 139 458 149 l 501 594 b 426 608 474 603 450 608 b 311 579 390 608 339 601 b 253 376 283 557 253 515 "},"đ":{"ha":861,"x_min":0,"x_max":0,"o":"m 59 328 b 474 757 59 626 251 757 b 576 747 510 757 544 753 l 576 870 l 279 870 l 279 974 l 576 974 l 576 1063 l 781 1063 l 781 974 l 837 974 l 837 870 l 781 870 l 781 0 l 586 0 l 586 81 l 565 81 b 340 -16 508 23 436 -16 b 59 328 169 -16 59 103 m 272 376 b 438 139 272 258 296 139 b 576 168 481 139 527 150 l 576 580 b 440 608 533 598 488 608 b 335 582 399 608 366 601 b 272 376 304 563 272 515 "},"ð":{"ha":861,"x_min":0,"x_max":0,"o":"m 751 979 l 586 921 l 587 919 b 794 400 673 810 794 619 b 424 -17 794 86 599 -17 b 63 326 221 -17 63 96 b 413 682 63 580 259 682 b 524 665 454 682 490 675 b 417 833 492 726 454 781 l 401 856 l 191 781 l 160 873 l 338 935 b 265 1017 312 967 289 992 l 443 1079 b 521 1000 468 1057 494 1031 l 721 1070 m 260 347 b 438 128 260 246 279 128 b 546 153 489 128 522 138 b 603 353 572 172 603 231 b 585 502 603 406 597 456 b 418 539 535 528 479 539 b 311 514 374 539 336 530 b 260 347 285 497 260 438 "},"e":{"ha":861,"x_min":0,"x_max":0,"o":"m 339 585 b 285 452 317 566 289 529 l 590 452 l 590 467 b 442 614 590 570 538 614 b 339 585 388 614 358 600 m 85 349 b 483 758 85 645 289 758 b 776 439 687 758 776 633 l 776 342 l 288 342 b 540 140 302 219 358 140 b 746 172 619 140 692 155 l 742 26 b 483 -17 679 4 590 -17 b 85 349 224 -17 85 104 "},"é":{"ha":861,"x_min":0,"x_max":0,"o":"m 339 585 b 285 452 317 566 289 529 l 590 452 l 590 467 b 442 614 590 570 538 614 b 339 585 388 614 358 600 m 542 885 l 716 1135 l 500 1135 l 368 885 m 85 349 b 483 758 85 645 289 758 b 776 439 687 758 776 633 l 776 342 l 288 342 b 540 140 302 219 358 140 b 746 172 619 140 692 155 l 742 26 b 483 -17 679 4 590 -17 b 85 349 224 -17 85 104 "},"ĕ":{"ha":861,"x_min":0,"x_max":0,"o":"m 339 585 b 285 452 317 566 289 529 l 590 452 l 590 467 b 442 614 590 570 538 614 b 339 585 388 614 358 600 m 340 1135 b 453 1001 340 1049 373 1001 b 568 1135 535 1001 568 1049 l 693 1135 b 453 878 699 968 617 878 b 215 1135 290 878 209 968 l 340 1135 m 85 349 b 483 758 85 645 289 758 b 776 439 687 758 776 633 l 776 342 l 288 342 b 540 140 302 219 358 140 b 746 172 619 140 692 155 l 742 26 b 483 -17 679 4 590 -17 b 85 349 224 -17 85 104 "},"ě":{"ha":861,"x_min":0,"x_max":0,"o":"m 339 585 b 285 452 317 566 289 529 l 590 452 l 590 467 b 442 614 590 570 538 614 b 339 585 388 614 358 600 m 337 885 l 571 885 l 735 1135 l 562 1135 l 453 957 l 345 1135 l 173 1135 m 85 349 b 483 758 85 645 289 758 b 776 439 687 758 776 633 l 776 342 l 288 342 b 540 140 302 219 358 140 b 746 172 619 140 692 155 l 742 26 b 483 -17 679 4 590 -17 b 85 349 224 -17 85 104 "},"ê":{"ha":861,"x_min":0,"x_max":0,"o":"m 339 585 b 285 452 317 566 289 529 l 590 452 l 590 467 b 442 614 590 570 538 614 b 339 585 388 614 358 600 m 337 1135 l 571 1135 l 735 885 l 562 885 l 453 1064 l 345 885 l 173 885 m 85 349 b 483 758 85 645 289 758 b 776 439 687 758 776 633 l 776 342 l 288 342 b 540 140 302 219 358 140 b 746 172 619 140 692 155 l 742 26 b 483 -17 679 4 590 -17 b 85 349 224 -17 85 104 "},"ë":{"ha":861,"x_min":0,"x_max":0,"o":"m 339 585 b 285 452 317 566 289 529 l 590 452 l 590 467 b 442 614 590 570 538 614 b 339 585 388 614 358 600 m 263 862 b 146 984 193 862 146 910 b 263 1103 146 1058 193 1103 b 380 984 333 1103 380 1058 b 263 862 380 910 333 862 m 644 862 b 528 984 575 862 528 910 b 644 1103 528 1058 575 1103 b 762 984 715 1103 762 1058 b 644 862 762 910 715 862 m 85 349 b 483 758 85 645 289 758 b 776 439 687 758 776 633 l 776 342 l 288 342 b 540 140 302 219 358 140 b 746 172 619 140 692 155 l 742 26 b 483 -17 679 4 590 -17 b 85 349 224 -17 85 104 "},"ė":{"ha":861,"x_min":0,"x_max":0,"o":"m 339 585 b 285 452 317 566 289 529 l 590 452 l 590 467 b 442 614 590 570 538 614 b 339 585 388 614 358 600 m 453 865 b 322 986 376 865 322 912 b 453 1106 322 1060 376 1106 b 585 986 532 1106 585 1060 b 453 865 585 912 532 865 m 85 349 b 483 758 85 645 289 758 b 776 439 687 758 776 633 l 776 342 l 288 342 b 540 140 302 219 358 140 b 746 172 619 140 692 155 l 742 26 b 483 -17 679 4 590 -17 b 85 349 224 -17 85 104 "},"ẹ":{"ha":861,"x_min":0,"x_max":0,"o":"m 339 585 b 285 452 317 566 289 529 l 590 452 l 590 467 b 442 614 590 570 538 614 b 339 585 388 614 358 600 m 431 -365 b 299 -242 352 -365 299 -317 b 431 -122 299 -168 352 -122 b 562 -242 509 -122 562 -168 b 431 -365 562 -317 509 -365 m 85 349 b 483 758 85 645 289 758 b 776 439 687 758 776 633 l 776 342 l 288 342 b 540 140 302 219 358 140 b 746 172 619 140 692 155 l 742 26 b 483 -17 679 4 590 -17 b 85 349 224 -17 85 104 "},"è":{"ha":861,"x_min":0,"x_max":0,"o":"m 339 585 b 285 452 317 566 289 529 l 590 452 l 590 467 b 442 614 590 570 538 614 b 339 585 388 614 358 600 m 365 885 l 192 1135 l 408 1135 l 540 885 m 85 349 b 483 758 85 645 289 758 b 776 439 687 758 776 633 l 776 342 l 288 342 b 540 140 302 219 358 140 b 746 172 619 140 692 155 l 742 26 b 483 -17 679 4 590 -17 b 85 349 224 -17 85 104 "},"ē":{"ha":861,"x_min":0,"x_max":0,"o":"m 339 585 b 285 452 317 566 289 529 l 590 452 l 590 467 b 442 614 590 570 538 614 b 339 585 388 614 358 600 m 691 907 l 216 907 l 216 1030 l 691 1030 m 85 349 b 483 758 85 645 289 758 b 776 439 687 758 776 633 l 776 342 l 288 342 b 540 140 302 219 358 140 b 746 172 619 140 692 155 l 742 26 b 483 -17 679 4 590 -17 b 85 349 224 -17 85 104 "},"ę":{"ha":861,"x_min":0,"x_max":0,"o":"m 339 585 b 285 452 317 566 289 529 l 590 452 l 590 467 b 442 614 590 570 538 614 b 339 585 388 614 358 600 m 85 349 b 483 758 85 645 289 758 b 776 439 687 758 776 633 l 776 342 l 288 342 b 540 140 302 219 358 140 b 746 172 619 140 692 155 l 742 26 b 561 -13 695 10 634 -6 b 465 -140 488 -66 465 -105 b 544 -194 465 -172 483 -194 l 565 -194 l 565 -313 l 494 -313 b 287 -181 326 -313 287 -247 b 388 -10 287 -121 319 -69 b 85 349 190 17 85 135 "},"ẽ":{"ha":861,"x_min":0,"x_max":0,"o":"m 339 585 b 285 452 317 566 289 529 l 590 452 l 590 467 b 442 614 590 570 538 614 b 339 585 388 614 358 600 m 319 1144 b 538 1020 426 1144 468 1020 b 613 1138 576 1020 604 1060 l 745 1103 b 578 864 732 951 669 864 b 360 988 470 864 428 988 b 284 869 321 988 293 948 l 152 905 b 319 1144 165 1056 228 1144 m 85 349 b 483 758 85 645 289 758 b 776 439 687 758 776 633 l 776 342 l 288 342 b 540 140 302 219 358 140 b 746 172 619 140 692 155 l 742 26 b 483 -17 679 4 590 -17 b 85 349 224 -17 85 104 "},"ə":{"ha":861,"x_min":0,"x_max":0,"o":"m 522 156 b 576 288 545 175 572 212 l 272 288 l 272 274 b 419 126 272 171 323 126 b 522 156 474 126 503 141 m 85 399 l 573 399 b 322 601 559 522 503 601 b 115 569 242 601 169 585 l 119 715 b 378 758 182 737 271 758 b 777 392 638 758 777 637 b 378 -17 777 96 573 -17 b 85 302 174 -17 85 108 "},"f":{"ha":861,"x_min":0,"x_max":0,"o":"m 828 935 b 621 957 776 949 711 957 b 522 928 571 957 540 946 b 497 853 506 912 497 888 l 497 740 l 799 740 l 771 586 l 497 586 l 497 155 l 708 155 l 688 0 l 142 0 l 122 155 l 290 155 l 290 586 l 63 586 l 63 676 l 292 749 b 686 1123 308 949 412 1123 b 797 1111 733 1123 769 1118 l 828 935 "},"g":{"ha":861,"x_min":0,"x_max":0,"o":"m 353 267 l 343 233 b 384 175 331 183 357 180 l 622 132 b 820 -37 701 117 820 95 b 360 -305 820 -217 598 -305 b 24 -135 183 -305 24 -255 b 124 8 24 -81 55 -33 l 219 67 b 192 126 201 84 192 104 b 222 230 192 160 207 195 l 243 284 b 60 501 131 319 60 403 b 408 758 60 664 227 758 b 611 706 489 758 558 739 b 808 767 658 729 735 762 l 834 642 l 669 631 b 723 508 698 604 723 565 b 365 267 723 358 555 267 m 534 493 b 372 627 534 567 501 627 b 274 607 315 627 289 618 b 252 527 260 595 252 575 b 415 393 252 453 284 393 b 512 413 472 393 497 402 b 534 493 526 425 534 445 m 222 -93 b 400 -177 222 -158 305 -177 b 635 -87 544 -177 635 -136 b 523 -26 635 -53 594 -40 l 346 8 b 306 19 332 11 319 15 b 222 -93 265 -7 222 -40 "},"ğ":{"ha":861,"x_min":0,"x_max":0,"o":"m 353 267 l 343 233 b 384 175 331 183 357 180 l 622 132 b 820 -37 701 117 820 95 b 360 -305 820 -217 598 -305 b 24 -135 183 -305 24 -255 b 124 8 24 -81 55 -33 l 219 67 b 192 126 201 84 192 104 b 222 230 192 160 207 195 l 243 284 b 60 501 131 319 60 403 b 408 758 60 664 227 758 b 611 706 489 758 558 739 b 808 767 658 729 735 762 l 834 642 l 669 631 b 723 508 698 604 723 565 b 365 267 723 358 555 267 m 534 493 b 372 627 534 567 501 627 b 274 607 315 627 289 618 b 252 527 260 595 252 575 b 415 393 252 453 284 393 b 512 413 472 393 497 402 b 534 493 526 425 534 445 m 317 1135 b 431 1001 317 1049 350 1001 b 545 1135 511 1001 545 1049 l 670 1135 b 431 878 676 968 594 878 b 192 1135 267 878 185 968 l 317 1135 m 222 -93 b 400 -177 222 -158 305 -177 b 635 -87 544 -177 635 -136 b 523 -26 635 -53 594 -40 l 346 8 b 306 19 332 11 319 15 b 222 -93 265 -7 222 -40 "},"ǧ":{"ha":861,"x_min":0,"x_max":0,"o":"m 353 267 l 343 233 b 384 175 331 183 357 180 l 622 132 b 820 -37 701 117 820 95 b 360 -305 820 -217 598 -305 b 24 -135 183 -305 24 -255 b 124 8 24 -81 55 -33 l 219 67 b 192 126 201 84 192 104 b 222 230 192 160 207 195 l 243 284 b 60 501 131 319 60 403 b 408 758 60 664 227 758 b 611 706 489 758 558 739 b 808 767 658 729 735 762 l 834 642 l 669 631 b 723 508 698 604 723 565 b 365 267 723 358 555 267 m 534 493 b 372 627 534 567 501 627 b 274 607 315 627 289 618 b 252 527 260 595 252 575 b 415 393 252 453 284 393 b 512 413 472 393 497 402 b 534 493 526 425 534 445 m 313 885 l 548 885 l 712 1135 l 539 1135 l 431 957 l 322 1135 l 150 1135 m 222 -93 b 400 -177 222 -158 305 -177 b 635 -87 544 -177 635 -136 b 523 -26 635 -53 594 -40 l 346 8 b 306 19 332 11 319 15 b 222 -93 265 -7 222 -40 "},"ĝ":{"ha":861,"x_min":0,"x_max":0,"o":"m 353 267 l 343 233 b 384 175 331 183 357 180 l 622 132 b 820 -37 701 117 820 95 b 360 -305 820 -217 598 -305 b 24 -135 183 -305 24 -255 b 124 8 24 -81 55 -33 l 219 67 b 192 126 201 84 192 104 b 222 230 192 160 207 195 l 243 284 b 60 501 131 319 60 403 b 408 758 60 664 227 758 b 611 706 489 758 558 739 b 808 767 658 729 735 762 l 834 642 l 669 631 b 723 508 698 604 723 565 b 365 267 723 358 555 267 m 534 493 b 372 627 534 567 501 627 b 274 607 315 627 289 618 b 252 527 260 595 252 575 b 415 393 252 453 284 393 b 512 413 472 393 497 402 b 534 493 526 425 534 445 m 313 1135 l 548 1135 l 712 885 l 539 885 l 431 1064 l 322 885 l 150 885 m 222 -93 b 400 -177 222 -158 305 -177 b 635 -87 544 -177 635 -136 b 523 -26 635 -53 594 -40 l 346 8 b 306 19 332 11 319 15 b 222 -93 265 -7 222 -40 "},"ģ":{"ha":861,"x_min":0,"x_max":0,"o":"m 353 267 l 343 233 b 384 175 331 183 357 180 l 622 132 b 820 -37 701 117 820 95 b 360 -305 820 -217 598 -305 b 24 -135 183 -305 24 -255 b 124 8 24 -81 55 -33 l 219 67 b 192 126 201 84 192 104 b 222 230 192 160 207 195 l 243 284 b 60 501 131 319 60 403 b 408 758 60 664 227 758 b 611 706 489 758 558 739 b 808 767 658 729 735 762 l 834 642 l 669 631 b 723 508 698 604 723 565 b 365 267 723 358 555 267 m 534 493 b 372 627 534 567 501 627 b 274 607 315 627 289 618 b 252 527 260 595 252 575 b 415 393 252 453 284 393 b 512 413 472 393 497 402 b 534 493 526 425 534 445 m 434 1094 b 558 979 504 1094 558 1050 b 433 865 558 908 506 865 b 297 1020 356 865 297 915 b 510 1283 297 1156 402 1238 l 568 1211 b 412 1092 502 1178 439 1145 b 434 1094 419 1093 426 1094 m 222 -93 b 400 -177 222 -158 305 -177 b 635 -87 544 -177 635 -136 b 523 -26 635 -53 594 -40 l 346 8 b 306 19 332 11 319 15 b 222 -93 265 -7 222 -40 "},"ġ":{"ha":861,"x_min":0,"x_max":0,"o":"m 353 267 l 343 233 b 384 175 331 183 357 180 l 622 132 b 820 -37 701 117 820 95 b 360 -305 820 -217 598 -305 b 24 -135 183 -305 24 -255 b 124 8 24 -81 55 -33 l 219 67 b 192 126 201 84 192 104 b 222 230 192 160 207 195 l 243 284 b 60 501 131 319 60 403 b 408 758 60 664 227 758 b 611 706 489 758 558 739 b 808 767 658 729 735 762 l 834 642 l 669 631 b 723 508 698 604 723 565 b 365 267 723 358 555 267 m 534 493 b 372 627 534 567 501 627 b 274 607 315 627 289 618 b 252 527 260 595 252 575 b 415 393 252 453 284 393 b 512 413 472 393 497 402 b 534 493 526 425 534 445 m 431 865 b 299 986 352 865 299 912 b 431 1106 299 1060 352 1106 b 562 986 509 1106 562 1060 b 431 865 562 912 509 865 m 222 -93 b 400 -177 222 -158 305 -177 b 635 -87 544 -177 635 -136 b 523 -26 635 -53 594 -40 l 346 8 b 306 19 332 11 319 15 b 222 -93 265 -7 222 -40 "},"h":{"ha":861,"x_min":0,"x_max":0,"o":"m 561 0 l 561 506 b 461 600 561 576 524 600 b 298 542 399 600 344 576 l 298 0 l 94 0 l 94 1063 l 298 1063 l 298 636 l 307 636 b 555 757 358 710 449 757 b 765 558 688 757 764 681 l 767 0 "},"ħ":{"ha":861,"x_min":0,"x_max":0,"o":"m 561 0 l 561 506 b 461 600 561 576 524 600 b 298 542 399 600 344 576 l 298 0 l 94 0 l 94 870 l 24 870 l 24 974 l 94 974 l 94 1063 l 298 1063 l 298 974 l 582 974 l 582 870 l 298 870 l 298 636 l 307 636 b 555 757 358 710 449 757 b 765 558 688 757 764 681 l 767 0 "},"ĥ":{"ha":861,"x_min":0,"x_max":0,"o":"m 561 0 l 561 506 b 461 600 561 576 524 600 b 298 542 399 600 344 576 l 298 0 l 94 0 l 94 1063 l 298 1063 l 298 636 l 307 636 b 555 757 358 710 449 757 b 765 558 688 757 764 681 l 767 0 m 80 1353 l 317 1353 l 479 1177 l 299 1177 l 198 1299 l 97 1177 l -83 1177 "},"i":{"ha":861,"x_min":0,"x_max":0,"o":"m 329 579 l 100 579 l 114 741 l 534 741 l 534 244 b 622 149 534 184 549 149 b 743 169 663 149 710 160 l 731 19 b 538 -16 681 -1 614 -16 b 328 195 399 -16 328 38 m 405 865 b 274 986 326 865 274 912 b 405 1106 274 1060 326 1106 b 536 986 483 1106 536 1060 b 405 865 536 912 483 865 "},"ı":{"ha":861,"x_min":0,"x_max":0,"o":"m 329 579 l 100 579 l 114 741 l 534 741 l 534 244 b 622 149 534 184 549 149 b 743 169 663 149 710 160 l 731 19 b 538 -16 681 -1 614 -16 b 328 195 399 -16 328 38 "},"í":{"ha":861,"x_min":0,"x_max":0,"o":"m 329 579 l 100 579 l 114 741 l 534 741 l 534 244 b 622 149 534 184 549 149 b 743 169 663 149 710 160 l 731 19 b 538 -16 681 -1 614 -16 b 328 195 399 -16 328 38 m 494 885 l 667 1135 l 451 1135 l 319 885 "},"ĭ":{"ha":861,"x_min":0,"x_max":0,"o":"m 329 579 l 100 579 l 114 741 l 534 741 l 534 244 b 622 149 534 184 549 149 b 743 169 663 149 710 160 l 731 19 b 538 -16 681 -1 614 -16 b 328 195 399 -16 328 38 m 291 1135 b 405 1001 291 1049 324 1001 b 519 1135 485 1001 519 1049 l 644 1135 b 405 878 650 968 569 878 b 166 1135 241 878 160 968 l 291 1135 "},"î":{"ha":861,"x_min":0,"x_max":0,"o":"m 329 579 l 100 579 l 114 741 l 534 741 l 534 244 b 622 149 534 184 549 149 b 743 169 663 149 710 160 l 731 19 b 538 -16 681 -1 614 -16 b 328 195 399 -16 328 38 m 288 1135 l 522 1135 l 686 885 l 513 885 l 405 1064 l 297 885 l 124 885 "},"ï":{"ha":861,"x_min":0,"x_max":0,"o":"m 329 579 l 100 579 l 114 741 l 534 741 l 534 244 b 622 149 534 184 549 149 b 743 169 663 149 710 160 l 731 19 b 538 -16 681 -1 614 -16 b 328 195 399 -16 328 38 m 214 862 b 97 984 144 862 97 910 b 214 1103 97 1058 144 1103 b 331 984 284 1103 331 1058 b 214 862 331 910 284 862 m 596 862 b 478 984 526 862 478 910 b 596 1103 478 1058 526 1103 b 713 984 665 1103 713 1058 b 596 862 713 910 665 862 "},"ị":{"ha":861,"x_min":0,"x_max":0,"o":"m 329 579 l 100 579 l 114 741 l 534 741 l 534 244 b 622 149 534 184 549 149 b 743 169 663 149 710 160 l 731 19 b 538 -16 681 -1 614 -16 b 328 195 399 -16 328 38 m 405 865 b 274 986 326 865 274 912 b 405 1106 274 1060 326 1106 b 536 986 483 1106 536 1060 b 405 865 536 912 483 865 m 431 -365 b 299 -242 352 -365 299 -317 b 431 -122 299 -168 352 -122 b 562 -242 509 -122 562 -168 b 431 -365 562 -317 509 -365 "},"ì":{"ha":861,"x_min":0,"x_max":0,"o":"m 329 579 l 100 579 l 114 741 l 534 741 l 534 244 b 622 149 534 184 549 149 b 743 169 663 149 710 160 l 731 19 b 538 -16 681 -1 614 -16 b 328 195 399 -16 328 38 m 317 885 l 143 1135 l 359 1135 l 490 885 "},"ī":{"ha":861,"x_min":0,"x_max":0,"o":"m 329 579 l 100 579 l 114 741 l 534 741 l 534 244 b 622 149 534 184 549 149 b 743 169 663 149 710 160 l 731 19 b 538 -16 681 -1 614 -16 b 328 195 399 -16 328 38 m 642 907 l 167 907 l 167 1030 l 642 1030 "},"į":{"ha":861,"x_min":0,"x_max":0,"o":"m 329 579 l 100 579 l 114 741 l 534 741 l 534 244 b 622 149 534 184 549 149 b 743 169 663 149 710 160 l 731 19 b 665 -1 711 11 690 4 b 567 -130 591 -55 567 -94 b 647 -184 567 -162 586 -184 l 667 -184 l 667 -303 l 597 -303 b 390 -170 429 -303 390 -237 b 478 -12 390 -114 417 -65 b 328 195 379 3 328 62 m 405 865 b 274 986 326 865 274 912 b 405 1106 274 1060 326 1106 b 536 986 483 1106 536 1060 b 405 865 536 912 483 865 "},"ĳ":{"ha":861,"x_min":0,"x_max":0,"o":"m 224 865 b 92 986 145 865 92 912 b 224 1106 92 1060 145 1106 b 355 986 302 1106 355 1060 b 224 865 355 912 302 865 m 779 741 l 779 59 b 372 -318 779 -198 654 -318 b 258 -304 319 -318 286 -311 l 227 -126 b 404 -147 275 -139 334 -147 b 537 -117 451 -147 510 -136 b 571 -28 553 -106 571 -84 l 571 579 l 459 579 l 478 741 m 652 865 b 520 986 574 865 520 912 b 652 1106 520 1060 574 1106 b 783 986 730 1106 783 1060 b 652 865 783 912 730 865 m 153 579 l 42 579 l 56 741 l 358 741 l 353 221 b 413 157 353 169 372 157 b 481 167 435 157 456 161 l 469 11 b 333 -16 439 -3 392 -16 b 153 190 213 -16 153 35 "},"j":{"ha":861,"x_min":0,"x_max":0,"o":"m 663 741 l 663 59 b 233 -318 663 -198 539 -318 b 120 -304 182 -318 148 -311 l 90 -126 b 266 -147 137 -139 196 -147 b 421 -117 335 -147 394 -136 b 456 -28 438 -106 456 -84 l 456 579 l 108 579 l 128 741 m 536 865 b 404 986 458 865 404 912 b 536 1106 404 1060 458 1106 b 667 986 615 1106 667 1060 b 536 865 667 912 615 865 "},"ȷ":{"ha":861,"x_min":0,"x_max":0,"o":"m 663 741 l 663 59 b 233 -318 663 -198 539 -318 b 120 -304 182 -318 148 -311 l 90 -126 b 266 -147 137 -139 196 -147 b 421 -117 335 -147 394 -136 b 456 -28 438 -106 456 -84 l 456 579 l 108 579 l 128 741 "},"ĵ":{"ha":861,"x_min":0,"x_max":0,"o":"m 663 741 l 663 59 b 233 -318 663 -198 539 -318 b 120 -304 182 -318 148 -311 l 90 -126 b 266 -147 137 -139 196 -147 b 421 -117 335 -147 394 -136 b 456 -28 438 -106 456 -84 l 456 579 l 108 579 l 128 741 m 419 1135 l 653 1135 l 817 885 l 644 885 l 536 1064 l 428 885 l 255 885 "},"k":{"ha":861,"x_min":0,"x_max":0,"o":"m 298 1063 l 298 469 l 375 469 b 588 741 464 563 531 649 l 808 741 b 534 418 719 609 633 515 l 534 409 b 863 0 631 308 754 176 l 612 0 b 381 313 544 115 467 216 l 298 313 l 298 0 l 94 0 l 94 1063 "},"ķ":{"ha":861,"x_min":0,"x_max":0,"o":"m 298 1063 l 298 469 l 375 469 b 588 741 464 563 531 649 l 808 741 b 534 418 719 609 633 515 l 534 409 b 863 0 631 308 754 176 l 612 0 b 381 313 544 115 467 216 l 298 313 l 298 0 l 94 0 l 94 1063 m 427 -351 b 303 -237 357 -351 303 -308 b 428 -124 303 -167 356 -124 b 565 -278 505 -124 565 -172 b 351 -541 565 -415 459 -496 l 293 -469 b 449 -350 359 -436 422 -403 b 427 -351 442 -351 435 -351 "},"ĸ":{"ha":861,"x_min":0,"x_max":0,"o":"m 94 0 l 94 742 l 298 742 l 298 469 l 375 469 b 588 741 464 563 531 649 l 808 741 b 534 418 719 609 633 515 l 534 409 b 863 0 631 308 754 176 l 612 0 b 381 313 544 115 467 216 l 298 313 l 298 0 "},"l":{"ha":861,"x_min":0,"x_max":0,"o":"m 329 901 l 100 901 l 114 1063 l 534 1063 l 534 244 b 622 149 534 184 549 149 b 743 169 663 149 710 160 l 731 19 b 538 -16 681 -1 614 -16 b 328 195 399 -16 328 38 "},"ĺ":{"ha":861,"x_min":0,"x_max":0,"o":"m 329 901 l 100 901 l 114 1063 l 534 1063 l 534 244 b 622 149 534 184 549 149 b 743 169 663 149 710 160 l 731 19 b 538 -16 681 -1 614 -16 b 328 195 399 -16 328 38 m 519 1176 l 692 1353 l 476 1353 l 345 1176 "},"ľ":{"ha":861,"x_min":0,"x_max":0,"o":"m 329 901 l 100 901 l 114 1063 l 534 1063 l 534 244 b 622 149 534 184 549 149 b 743 169 663 149 710 160 l 731 19 b 538 -16 681 -1 614 -16 b 328 195 399 -16 328 38 m 660 1176 l 831 1176 l 802 908 l 648 908 "},"ļ":{"ha":861,"x_min":0,"x_max":0,"o":"m 329 901 l 100 901 l 114 1063 l 534 1063 l 534 244 b 622 149 534 184 549 149 b 743 169 663 149 710 160 l 731 19 b 538 -16 681 -1 614 -16 b 328 195 399 -16 328 38 m 518 -354 b 394 -240 448 -354 394 -310 b 519 -126 394 -169 447 -126 b 656 -281 596 -126 656 -175 b 442 -544 656 -417 550 -499 l 384 -472 b 540 -353 450 -439 513 -406 b 518 -354 533 -353 526 -354 "},"ŀ":{"ha":861,"x_min":0,"x_max":0,"o":"m 756 478 b 653 585 694 478 653 520 b 756 690 653 650 694 690 b 859 585 817 690 859 650 b 756 478 859 520 817 478 m 329 901 l 100 901 l 114 1063 l 534 1063 l 534 244 b 622 149 534 184 549 149 b 743 169 663 149 710 160 l 731 19 b 538 -16 681 -1 614 -16 b 328 195 399 -16 328 38 "},"ł":{"ha":861,"x_min":0,"x_max":0,"o":"m 717 657 l 534 568 l 534 244 b 622 149 534 184 549 149 b 743 169 663 149 710 160 l 731 19 b 538 -16 681 -1 614 -16 b 328 195 399 -16 328 38 l 328 468 l 144 378 l 144 553 l 329 643 l 329 901 l 100 901 l 114 1063 l 534 1063 l 534 743 l 717 832 "},"m":{"ha":861,"x_min":0,"x_max":0,"o":"m 344 0 l 344 535 b 301 590 344 577 325 590 b 244 567 278 590 260 581 l 244 0 l 74 0 l 74 741 l 235 741 l 235 638 l 246 638 b 403 757 268 694 317 757 b 513 638 468 757 504 721 l 522 638 b 674 757 543 694 589 757 b 785 603 748 757 785 711 l 788 0 l 617 0 l 617 535 b 572 590 617 577 597 590 b 514 567 549 590 531 580 l 516 0 "},"n":{"ha":861,"x_min":0,"x_max":0,"o":"m 561 0 l 561 506 b 461 600 561 576 524 600 b 298 542 399 600 344 576 l 298 0 l 94 0 l 94 741 l 288 741 l 288 636 l 297 636 b 555 757 349 710 449 757 b 765 558 688 757 764 681 l 767 0 "},"ń":{"ha":861,"x_min":0,"x_max":0,"o":"m 561 0 l 561 506 b 461 600 561 576 524 600 b 298 542 399 600 344 576 l 298 0 l 94 0 l 94 741 l 288 741 l 288 636 l 297 636 b 555 757 349 710 449 757 b 765 558 688 757 764 681 l 767 0 m 519 885 l 692 1135 l 476 1135 l 345 885 "},"ň":{"ha":861,"x_min":0,"x_max":0,"o":"m 561 0 l 561 506 b 461 600 561 576 524 600 b 298 542 399 600 344 576 l 298 0 l 94 0 l 94 741 l 288 741 l 288 636 l 297 636 b 555 757 349 710 449 757 b 765 558 688 757 764 681 l 767 0 m 313 885 l 548 885 l 712 1135 l 539 1135 l 431 957 l 322 1135 l 150 1135 "},"ņ":{"ha":861,"x_min":0,"x_max":0,"o":"m 561 0 l 561 506 b 461 600 561 576 524 600 b 298 542 399 600 344 576 l 298 0 l 94 0 l 94 741 l 288 741 l 288 636 l 297 636 b 555 757 349 710 449 757 b 765 558 688 757 764 681 l 767 0 m 427 -351 b 303 -237 357 -351 303 -308 b 428 -124 303 -167 356 -124 b 565 -278 505 -124 565 -172 b 351 -541 565 -415 459 -496 l 293 -469 b 449 -350 359 -436 422 -403 b 427 -351 442 -351 435 -351 "},"ɲ":{"ha":861,"x_min":0,"x_max":0,"o":"m 58 -285 b -35 -268 22 -285 -9 -277 l -59 -102 b 22 -120 -37 -113 -8 -120 b 78 -102 38 -120 62 -119 b 94 14 94 -86 94 -62 l 94 741 l 288 741 l 288 636 l 297 636 b 555 757 349 710 449 757 b 765 558 688 757 764 681 l 767 0 l 561 0 l 561 506 b 461 600 561 576 524 600 b 298 542 399 600 344 576 l 298 -25 b 58 -285 298 -165 206 -285 "},"ñ":{"ha":861,"x_min":0,"x_max":0,"o":"m 561 0 l 561 506 b 461 600 561 576 524 600 b 298 542 399 600 344 576 l 298 0 l 94 0 l 94 741 l 288 741 l 288 636 l 297 636 b 555 757 349 710 449 757 b 765 558 688 757 764 681 l 767 0 m 296 1144 b 515 1020 403 1144 445 1020 b 590 1138 553 1020 581 1060 l 722 1103 b 554 864 708 951 645 864 b 336 988 447 864 405 988 b 261 869 297 988 270 948 l 129 905 b 296 1144 142 1056 205 1144 "},"ŋ":{"ha":861,"x_min":0,"x_max":0,"o":"m 527 -285 b 435 -268 492 -285 460 -277 l 410 -102 b 483 -120 431 -113 462 -120 b 545 -102 505 -120 529 -119 b 561 14 561 -86 561 -62 l 561 506 b 461 600 561 576 524 600 b 298 542 399 600 344 576 l 298 0 l 94 0 l 94 741 l 288 741 l 288 636 l 297 636 b 555 757 349 710 449 757 b 765 558 688 757 764 681 l 767 14 l 767 -25 b 527 -285 767 -165 675 -285 "},"o":{"ha":861,"x_min":0,"x_max":0,"o":"m 424 -17 b 63 367 221 -17 63 113 b 442 758 63 655 265 758 b 794 374 642 758 794 628 b 424 -17 794 86 599 -17 m 438 128 b 546 153 489 128 522 138 b 597 327 572 172 597 231 b 419 614 597 485 578 614 b 311 589 369 614 336 606 b 260 417 285 572 260 513 b 438 128 260 258 279 128 "},"ó":{"ha":861,"x_min":0,"x_max":0,"o":"m 424 -17 b 63 367 221 -17 63 113 b 442 758 63 655 265 758 b 794 374 642 758 794 628 b 424 -17 794 86 599 -17 m 438 128 b 546 153 489 128 522 138 b 597 327 572 172 597 231 b 419 614 597 485 578 614 b 311 589 369 614 336 606 b 260 417 285 572 260 513 b 438 128 260 258 279 128 m 519 885 l 692 1135 l 476 1135 l 345 885 "},"ŏ":{"ha":861,"x_min":0,"x_max":0,"o":"m 424 -17 b 63 367 221 -17 63 113 b 442 758 63 655 265 758 b 794 374 642 758 794 628 b 424 -17 794 86 599 -17 m 438 128 b 546 153 489 128 522 138 b 597 327 572 172 597 231 b 419 614 597 485 578 614 b 311 589 369 614 336 606 b 260 417 285 572 260 513 b 438 128 260 258 279 128 m 317 1135 b 431 1001 317 1049 350 1001 b 545 1135 511 1001 545 1049 l 670 1135 b 431 878 676 968 594 878 b 192 1135 267 878 185 968 l 317 1135 "},"ô":{"ha":861,"x_min":0,"x_max":0,"o":"m 424 -17 b 63 367 221 -17 63 113 b 442 758 63 655 265 758 b 794 374 642 758 794 628 b 424 -17 794 86 599 -17 m 438 128 b 546 153 489 128 522 138 b 597 327 572 172 597 231 b 419 614 597 485 578 614 b 311 589 369 614 336 606 b 260 417 285 572 260 513 b 438 128 260 258 279 128 m 313 1135 l 548 1135 l 712 885 l 539 885 l 431 1064 l 322 885 l 150 885 "},"ö":{"ha":861,"x_min":0,"x_max":0,"o":"m 424 -17 b 63 367 221 -17 63 113 b 442 758 63 655 265 758 b 794 374 642 758 794 628 b 424 -17 794 86 599 -17 m 438 128 b 546 153 489 128 522 138 b 597 327 572 172 597 231 b 419 614 597 485 578 614 b 311 589 369 614 336 606 b 260 417 285 572 260 513 b 438 128 260 258 279 128 m 240 862 b 123 984 170 862 123 910 b 240 1103 123 1058 170 1103 b 357 984 310 1103 357 1058 b 240 862 357 910 310 862 m 622 862 b 504 984 551 862 504 910 b 622 1103 504 1058 551 1103 b 738 984 691 1103 738 1058 b 622 862 738 910 691 862 "},"ọ":{"ha":861,"x_min":0,"x_max":0,"o":"m 424 -17 b 63 367 221 -17 63 113 b 442 758 63 655 265 758 b 794 374 642 758 794 628 b 424 -17 794 86 599 -17 m 438 128 b 546 153 489 128 522 138 b 597 327 572 172 597 231 b 419 614 597 485 578 614 b 311 589 369 614 336 606 b 260 417 285 572 260 513 b 438 128 260 258 279 128 m 431 -365 b 299 -242 352 -365 299 -317 b 431 -122 299 -168 352 -122 b 562 -242 509 -122 562 -168 b 431 -365 562 -317 509 -365 "},"ò":{"ha":861,"x_min":0,"x_max":0,"o":"m 424 -17 b 63 367 221 -17 63 113 b 442 758 63 655 265 758 b 794 374 642 758 794 628 b 424 -17 794 86 599 -17 m 438 128 b 546 153 489 128 522 138 b 597 327 572 172 597 231 b 419 614 597 485 578 614 b 311 589 369 614 336 606 b 260 417 285 572 260 513 b 438 128 260 258 279 128 m 342 885 l 169 1135 l 385 1135 l 516 885 "},"ő":{"ha":861,"x_min":0,"x_max":0,"o":"m 424 -17 b 63 367 221 -17 63 113 b 442 758 63 655 265 758 b 794 374 642 758 794 628 b 424 -17 794 86 599 -17 m 438 128 b 546 153 489 128 522 138 b 597 327 572 172 597 231 b 419 614 597 485 578 614 b 311 589 369 614 336 606 b 260 417 285 572 260 513 b 438 128 260 258 279 128 m 311 1135 l 467 1135 l 351 885 l 221 885 m 597 1135 l 753 1135 l 637 885 l 507 885 "},"ō":{"ha":861,"x_min":0,"x_max":0,"o":"m 424 -17 b 63 367 221 -17 63 113 b 442 758 63 655 265 758 b 794 374 642 758 794 628 b 424 -17 794 86 599 -17 m 438 128 b 546 153 489 128 522 138 b 597 327 572 172 597 231 b 419 614 597 485 578 614 b 311 589 369 614 336 606 b 260 417 285 572 260 513 b 438 128 260 258 279 128 m 668 907 l 193 907 l 193 1030 l 668 1030 "},"ǫ":{"ha":861,"x_min":0,"x_max":0,"o":"m 438 128 b 546 153 489 128 522 138 b 597 327 572 172 597 231 b 419 614 597 485 578 614 b 311 589 369 614 336 606 b 260 417 285 572 260 513 b 438 128 260 258 279 128 m 556 0 b 456 -130 481 -54 456 -94 b 536 -184 456 -162 475 -184 l 556 -184 l 556 -303 l 486 -303 b 278 -170 318 -303 278 -237 b 365 -13 278 -115 306 -66 b 63 367 192 10 63 138 b 442 758 63 655 265 758 b 794 374 642 758 794 628 b 548 1 794 154 680 42 l 556 0 "},"ø":{"ha":861,"x_min":0,"x_max":0,"o":"m 424 -17 b 289 5 376 -17 331 -10 l 178 -156 l 28 -53 l 141 110 b 63 367 92 172 63 258 b 442 758 63 655 265 758 b 573 736 489 758 533 751 l 683 897 l 833 795 l 719 631 b 794 374 766 568 794 483 b 424 -17 794 86 599 -17 m 438 128 b 546 153 489 128 522 138 b 597 327 572 172 597 231 b 583 485 597 385 594 440 l 351 147 b 438 128 374 135 403 128 m 260 417 b 276 253 260 356 263 299 l 509 594 b 419 614 486 607 456 614 b 311 589 369 614 336 606 b 260 417 285 572 260 513 "},"ǿ":{"ha":861,"x_min":0,"x_max":0,"o":"m 424 -17 b 289 5 376 -17 331 -10 l 178 -156 l 28 -53 l 141 110 b 63 367 92 172 63 258 b 442 758 63 655 265 758 b 573 736 489 758 533 751 l 683 897 l 833 795 l 719 631 b 794 374 766 568 794 483 b 424 -17 794 86 599 -17 m 438 128 b 546 153 489 128 522 138 b 597 327 572 172 597 231 b 583 485 597 385 594 440 l 351 147 b 438 128 374 135 403 128 m 519 885 l 692 1135 l 476 1135 l 345 885 m 260 417 b 276 253 260 356 263 299 l 509 594 b 419 614 486 607 456 614 b 311 589 369 614 336 606 b 260 417 285 572 260 513 "},"õ":{"ha":861,"x_min":0,"x_max":0,"o":"m 424 -17 b 63 367 221 -17 63 113 b 442 758 63 655 265 758 b 794 374 642 758 794 628 b 424 -17 794 86 599 -17 m 438 128 b 546 153 489 128 522 138 b 597 327 572 172 597 231 b 419 614 597 485 578 614 b 311 589 369 614 336 606 b 260 417 285 572 260 513 b 438 128 260 258 279 128 m 296 1144 b 515 1020 403 1144 445 1020 b 590 1138 553 1020 581 1060 l 722 1103 b 554 864 708 951 645 864 b 336 988 447 864 405 988 b 261 869 297 988 270 948 l 129 905 b 296 1144 142 1056 205 1144 "},"œ":{"ha":861,"x_min":0,"x_max":0,"o":"m 618 -17 b 425 85 533 -17 467 17 b 260 -17 385 10 326 -17 b 33 367 112 -17 33 88 b 269 758 33 667 148 758 b 433 641 335 758 395 724 b 618 758 477 724 548 758 b 823 439 758 758 823 637 l 823 336 l 515 336 b 659 140 524 223 561 140 b 797 172 701 140 745 155 l 796 26 b 618 -17 745 3 683 -17 m 267 127 b 324 147 289 127 311 133 b 354 324 340 163 353 228 b 271 613 356 480 338 613 b 219 596 255 613 233 610 b 190 419 203 578 190 515 b 267 127 188 260 202 127 m 683 447 l 684 467 b 594 614 684 560 651 614 b 544 594 578 614 558 610 b 513 447 529 577 516 533 "},"p":{"ha":861,"x_min":0,"x_max":0,"o":"m 802 412 b 387 -16 802 115 610 -16 b 285 -6 351 -16 317 -12 l 285 -278 l 80 -278 l 80 741 l 275 741 l 275 660 l 297 660 b 522 757 353 718 425 757 b 802 412 692 757 802 638 m 285 161 b 422 133 328 143 373 133 b 526 159 463 133 495 140 b 590 365 557 178 590 226 b 424 602 590 482 565 602 b 285 573 381 602 334 591 l 285 161 "},"þ":{"ha":861,"x_min":0,"x_max":0,"o":"m 298 663 b 522 757 355 719 426 757 b 802 412 692 757 802 638 b 387 -16 802 115 610 -16 b 298 -9 356 -16 326 -14 l 298 -255 l 99 -255 l 99 1063 l 298 1063 m 298 156 b 422 133 338 141 378 133 b 526 159 463 133 495 140 b 589 365 557 178 589 226 b 424 602 589 482 565 602 b 298 578 385 602 342 593 l 298 156 "},"q":{"ha":861,"x_min":0,"x_max":0,"o":"m 59 329 b 474 757 59 626 251 757 b 688 713 551 757 621 742 l 742 741 l 781 741 l 781 -278 l 576 -278 l 576 81 l 565 81 b 340 -16 508 23 436 -16 b 59 329 169 -16 59 103 m 272 376 b 438 139 272 259 296 139 b 576 168 481 139 527 150 l 576 580 b 440 608 533 598 488 608 b 335 582 399 608 366 601 b 272 376 304 563 272 515 "},"r":{"ha":861,"x_min":0,"x_max":0,"o":"m 438 558 l 449 558 b 734 757 486 679 611 757 b 792 750 753 757 772 755 l 797 566 b 453 477 668 568 562 536 l 453 162 l 674 162 l 654 0 l 93 0 l 73 162 l 248 162 l 248 579 l 67 579 l 87 741 l 438 741 "},"ŕ":{"ha":861,"x_min":0,"x_max":0,"o":"m 438 558 l 449 558 b 734 757 486 679 611 757 b 792 750 753 757 772 755 l 797 566 b 453 477 668 568 562 536 l 453 162 l 674 162 l 654 0 l 93 0 l 73 162 l 248 162 l 248 579 l 67 579 l 87 741 l 438 741 m 519 885 l 692 1135 l 476 1135 l 345 885 "},"ř":{"ha":861,"x_min":0,"x_max":0,"o":"m 438 558 l 449 558 b 734 757 486 679 611 757 b 792 750 753 757 772 755 l 797 566 b 453 477 668 568 562 536 l 453 162 l 674 162 l 654 0 l 93 0 l 73 162 l 248 162 l 248 579 l 67 579 l 87 741 l 438 741 m 313 885 l 548 885 l 712 1135 l 539 1135 l 431 957 l 322 1135 l 150 1135 "},"ŗ":{"ha":861,"x_min":0,"x_max":0,"o":"m 438 558 l 449 558 b 734 757 486 679 611 757 b 792 750 753 757 772 755 l 797 566 b 453 477 668 568 562 536 l 453 162 l 674 162 l 654 0 l 93 0 l 73 162 l 248 162 l 248 579 l 67 579 l 87 741 l 438 741 m 392 -351 b 268 -237 322 -351 268 -308 b 392 -124 268 -167 320 -124 b 528 -278 469 -124 528 -172 b 315 -541 528 -415 424 -496 l 258 -469 b 414 -350 324 -436 387 -403 b 392 -351 407 -351 399 -351 "},"s":{"ha":861,"x_min":0,"x_max":0,"o":"m 514 758 b 717 733 592 758 658 748 l 723 566 b 420 599 596 588 508 599 b 308 577 349 599 321 588 b 295 547 299 569 295 560 b 487 459 295 503 351 491 b 751 247 642 422 751 386 b 356 -15 751 100 627 -15 b 129 10 264 -15 188 -3 l 113 196 b 461 137 236 163 374 137 b 557 159 521 137 544 149 b 571 194 565 167 571 178 b 321 307 571 260 472 267 b 114 506 202 338 114 389 b 514 758 114 674 288 758 "},"ś":{"ha":861,"x_min":0,"x_max":0,"o":"m 514 758 b 717 733 592 758 658 748 l 723 566 b 420 599 596 588 508 599 b 308 577 349 599 321 588 b 295 547 299 569 295 560 b 487 459 295 503 351 491 b 751 247 642 422 751 386 b 356 -15 751 100 627 -15 b 129 10 264 -15 188 -3 l 113 196 b 461 137 236 163 374 137 b 557 159 521 137 544 149 b 571 194 565 167 571 178 b 321 307 571 260 472 267 b 114 506 202 338 114 389 b 514 758 114 674 288 758 m 519 885 l 692 1135 l 476 1135 l 345 885 "},"š":{"ha":861,"x_min":0,"x_max":0,"o":"m 514 758 b 717 733 592 758 658 748 l 723 566 b 420 599 596 588 508 599 b 308 577 349 599 321 588 b 295 547 299 569 295 560 b 487 459 295 503 351 491 b 751 247 642 422 751 386 b 356 -15 751 100 627 -15 b 129 10 264 -15 188 -3 l 113 196 b 461 137 236 163 374 137 b 557 159 521 137 544 149 b 571 194 565 167 571 178 b 321 307 571 260 472 267 b 114 506 202 338 114 389 b 514 758 114 674 288 758 m 313 885 l 548 885 l 712 1135 l 539 1135 l 431 957 l 322 1135 l 150 1135 "},"ş":{"ha":861,"x_min":0,"x_max":0,"o":"m 514 758 b 717 733 592 758 658 748 l 723 566 b 420 599 596 588 508 599 b 308 577 349 599 321 588 b 295 547 299 569 295 560 b 487 459 295 503 351 491 b 751 247 642 422 751 386 b 488 -5 751 126 667 27 l 489 -110 b 611 -273 569 -131 611 -178 b 386 -434 611 -370 566 -434 l 324 -434 l 324 -330 l 369 -330 b 465 -262 438 -330 465 -306 b 372 -185 465 -210 426 -192 l 372 -15 l 356 -15 b 129 10 264 -15 188 -3 l 113 196 b 461 137 236 163 374 137 b 557 159 521 137 544 149 b 571 194 565 167 571 178 b 321 307 571 260 472 267 b 114 506 202 338 114 389 b 514 758 114 674 288 758 "},"ŝ":{"ha":861,"x_min":0,"x_max":0,"o":"m 514 758 b 717 733 592 758 658 748 l 723 566 b 420 599 596 588 508 599 b 308 577 349 599 321 588 b 295 547 299 569 295 560 b 487 459 295 503 351 491 b 751 247 642 422 751 386 b 356 -15 751 100 627 -15 b 129 10 264 -15 188 -3 l 113 196 b 461 137 236 163 374 137 b 557 159 521 137 544 149 b 571 194 565 167 571 178 b 321 307 571 260 472 267 b 114 506 202 338 114 389 b 514 758 114 674 288 758 m 313 1135 l 548 1135 l 712 885 l 539 885 l 431 1064 l 322 885 l 150 885 "},"ș":{"ha":861,"x_min":0,"x_max":0,"o":"m 514 758 b 717 733 592 758 658 748 l 723 566 b 420 599 596 588 508 599 b 308 577 349 599 321 588 b 295 547 299 569 295 560 b 487 459 295 503 351 491 b 751 247 642 422 751 386 b 356 -15 751 100 627 -15 b 129 10 264 -15 188 -3 l 113 196 b 461 137 236 163 374 137 b 557 159 521 137 544 149 b 571 194 565 167 571 178 b 321 307 571 260 472 267 b 114 506 202 338 114 389 b 514 758 114 674 288 758 m 427 -351 b 303 -237 357 -351 303 -308 b 428 -124 303 -167 356 -124 b 565 -278 505 -124 565 -172 b 351 -541 565 -415 459 -496 l 293 -469 b 449 -350 359 -436 422 -403 b 427 -351 442 -351 435 -351 "},"ß":{"ha":861,"x_min":0,"x_max":0,"o":"m 438 924 b 329 890 387 924 348 909 b 296 629 310 869 296 823 l 296 0 l 98 0 l 98 542 b 463 1079 98 927 233 1079 b 767 840 616 1079 767 1008 b 575 571 767 697 663 607 l 575 564 b 816 305 712 531 816 472 b 441 0 816 105 655 0 l 406 0 l 406 146 l 447 146 b 624 303 572 146 624 228 b 406 493 624 419 494 481 l 406 573 b 570 801 507 604 570 709 b 438 924 570 890 513 924 "},"t":{"ha":861,"x_min":0,"x_max":0,"o":"m 56 680 l 378 913 l 443 913 l 443 741 l 759 741 l 730 585 l 451 585 l 451 244 b 575 149 451 184 473 149 b 743 169 630 149 697 160 l 730 19 b 512 -16 672 -1 602 -16 b 247 195 338 -16 247 38 l 247 585 l 56 585 "},"ŧ":{"ha":861,"x_min":0,"x_max":0,"o":"m 56 517 l 247 517 l 247 646 l 56 646 l 56 713 l 378 944 l 443 944 l 443 773 l 759 773 l 730 646 l 451 646 l 451 517 l 759 517 l 730 390 l 451 390 l 451 244 b 575 149 451 184 473 149 b 743 169 630 149 697 160 l 730 19 b 512 -16 672 -1 602 -16 b 247 195 338 -16 247 38 l 247 390 l 56 390 "},"ť":{"ha":861,"x_min":0,"x_max":0,"o":"m 660 1127 l 831 1127 l 802 859 l 648 859 m 56 680 l 378 913 l 443 913 l 443 741 l 759 741 l 730 585 l 451 585 l 451 244 b 575 149 451 184 473 149 b 743 169 630 149 697 160 l 730 19 b 512 -16 672 -1 602 -16 b 247 195 338 -16 247 38 l 247 585 l 56 585 "},"ţ":{"ha":861,"x_min":0,"x_max":0,"o":"m 56 680 l 378 913 l 443 913 l 443 741 l 759 741 l 730 585 l 451 585 l 451 244 b 575 149 451 184 473 149 b 743 169 630 149 697 160 l 730 19 b 547 -15 680 2 620 -12 l 548 -110 b 671 -273 628 -131 671 -178 b 446 -434 671 -370 625 -434 l 384 -434 l 384 -330 l 428 -330 b 525 -262 497 -330 525 -306 b 431 -185 525 -210 485 -192 l 431 -11 b 247 195 310 5 247 64 l 247 585 l 56 585 "},"ț":{"ha":861,"x_min":0,"x_max":0,"o":"m 487 -351 b 363 -237 417 -351 363 -308 b 488 -124 363 -167 415 -124 b 624 -278 565 -124 624 -172 b 410 -541 624 -415 519 -496 l 353 -469 b 508 -350 418 -436 481 -403 b 487 -351 501 -351 494 -351 m 56 680 l 378 913 l 443 913 l 443 741 l 759 741 l 730 585 l 451 585 l 451 244 b 575 149 451 184 473 149 b 743 169 630 149 697 160 l 730 19 b 512 -16 672 -1 602 -16 b 247 195 338 -16 247 38 l 247 585 l 56 585 "},"u":{"ha":861,"x_min":0,"x_max":0,"o":"m 300 741 l 300 235 b 400 141 300 165 338 141 b 563 198 463 141 518 165 l 563 741 l 767 741 l 767 0 l 574 0 l 574 105 l 564 105 b 306 -16 513 30 413 -16 b 97 183 174 -16 97 59 l 94 741 "},"ú":{"ha":861,"x_min":0,"x_max":0,"o":"m 300 741 l 300 235 b 400 141 300 165 338 141 b 563 198 463 141 518 165 l 563 741 l 767 741 l 767 0 l 574 0 l 574 105 l 564 105 b 306 -16 513 30 413 -16 b 97 183 174 -16 97 59 l 94 741 m 519 885 l 692 1135 l 476 1135 l 345 885 "},"ŭ":{"ha":861,"x_min":0,"x_max":0,"o":"m 300 741 l 300 235 b 400 141 300 165 338 141 b 563 198 463 141 518 165 l 563 741 l 767 741 l 767 0 l 574 0 l 574 105 l 564 105 b 306 -16 513 30 413 -16 b 97 183 174 -16 97 59 l 94 741 m 317 1135 b 431 1001 317 1049 350 1001 b 545 1135 511 1001 545 1049 l 670 1135 b 431 878 676 968 594 878 b 192 1135 267 878 185 968 l 317 1135 "},"û":{"ha":861,"x_min":0,"x_max":0,"o":"m 300 741 l 300 235 b 400 141 300 165 338 141 b 563 198 463 141 518 165 l 563 741 l 767 741 l 767 0 l 574 0 l 574 105 l 564 105 b 306 -16 513 30 413 -16 b 97 183 174 -16 97 59 l 94 741 m 313 1135 l 548 1135 l 712 885 l 539 885 l 431 1064 l 322 885 l 150 885 "},"ü":{"ha":861,"x_min":0,"x_max":0,"o":"m 300 741 l 300 235 b 400 141 300 165 338 141 b 563 198 463 141 518 165 l 563 741 l 767 741 l 767 0 l 574 0 l 574 105 l 564 105 b 306 -16 513 30 413 -16 b 97 183 174 -16 97 59 l 94 741 m 240 862 b 123 984 170 862 123 910 b 240 1103 123 1058 170 1103 b 357 984 310 1103 357 1058 b 240 862 357 910 310 862 m 622 862 b 504 984 551 862 504 910 b 622 1103 504 1058 551 1103 b 738 984 691 1103 738 1058 b 622 862 738 910 691 862 "},"ụ":{"ha":861,"x_min":0,"x_max":0,"o":"m 300 741 l 300 235 b 400 141 300 165 338 141 b 563 198 463 141 518 165 l 563 741 l 767 741 l 767 0 l 574 0 l 574 105 l 564 105 b 306 -16 513 30 413 -16 b 97 183 174 -16 97 59 l 94 741 m 431 -365 b 299 -242 352 -365 299 -317 b 431 -122 299 -168 352 -122 b 562 -242 509 -122 562 -168 b 431 -365 562 -317 509 -365 "},"ù":{"ha":861,"x_min":0,"x_max":0,"o":"m 300 741 l 300 235 b 400 141 300 165 338 141 b 563 198 463 141 518 165 l 563 741 l 767 741 l 767 0 l 574 0 l 574 105 l 564 105 b 306 -16 513 30 413 -16 b 97 183 174 -16 97 59 l 94 741 m 342 885 l 169 1135 l 385 1135 l 516 885 "},"ű":{"ha":861,"x_min":0,"x_max":0,"o":"m 300 741 l 300 235 b 400 141 300 165 338 141 b 563 198 463 141 518 165 l 563 741 l 767 741 l 767 0 l 574 0 l 574 105 l 564 105 b 306 -16 513 30 413 -16 b 97 183 174 -16 97 59 l 94 741 m 311 1135 l 467 1135 l 351 885 l 221 885 m 597 1135 l 753 1135 l 637 885 l 507 885 "},"ū":{"ha":861,"x_min":0,"x_max":0,"o":"m 300 741 l 300 235 b 400 141 300 165 338 141 b 563 198 463 141 518 165 l 563 741 l 767 741 l 767 0 l 574 0 l 574 105 l 564 105 b 306 -16 513 30 413 -16 b 97 183 174 -16 97 59 l 94 741 m 668 907 l 193 907 l 193 1030 l 668 1030 "},"ų":{"ha":861,"x_min":0,"x_max":0,"o":"m 300 741 l 300 235 b 400 141 300 165 338 141 b 563 198 463 141 518 165 l 563 741 l 767 741 l 767 0 l 763 0 l 767 -1 b 667 -131 692 -55 667 -94 b 747 -185 667 -162 687 -185 l 767 -185 l 767 -303 l 697 -303 b 490 -171 530 -303 490 -237 b 593 0 490 -110 522 -58 l 574 0 l 574 105 l 564 105 b 306 -16 513 30 413 -16 b 97 183 174 -16 97 59 l 94 741 "},"ů":{"ha":861,"x_min":0,"x_max":0,"o":"m 300 741 l 300 235 b 400 141 300 165 338 141 b 563 198 463 141 518 165 l 563 741 l 767 741 l 767 0 l 574 0 l 574 105 l 564 105 b 306 -16 513 30 413 -16 b 97 183 174 -16 97 59 l 94 741 m 431 841 b 264 1013 333 841 264 914 b 431 1184 264 1112 333 1184 b 598 1013 528 1184 598 1112 b 431 841 598 914 528 841 m 431 924 b 517 1013 484 924 517 962 b 431 1101 517 1064 484 1101 b 344 1013 378 1101 344 1064 b 431 924 344 962 378 924 "},"ũ":{"ha":861,"x_min":0,"x_max":0,"o":"m 300 741 l 300 235 b 400 141 300 165 338 141 b 563 198 463 141 518 165 l 563 741 l 767 741 l 767 0 l 574 0 l 574 105 l 564 105 b 306 -16 513 30 413 -16 b 97 183 174 -16 97 59 l 94 741 m 296 1144 b 515 1020 403 1144 445 1020 b 590 1138 553 1020 581 1060 l 722 1103 b 554 864 708 951 645 864 b 336 988 447 864 405 988 b 261 869 297 988 270 948 l 129 905 b 296 1144 142 1056 205 1144 "},"v":{"ha":861,"x_min":0,"x_max":0,"o":"m 267 741 b 433 210 301 542 363 361 l 449 210 b 616 741 519 361 581 542 l 810 741 b 525 0 760 495 670 248 l 342 0 b 51 741 194 252 106 491 l 267 741 "},"w":{"ha":861,"x_min":0,"x_max":0,"o":"m 550 0 b 435 397 501 131 463 263 l 422 397 b 299 0 392 263 352 131 l 186 0 b 14 741 94 234 33 472 l 206 741 b 281 304 217 585 244 446 l 294 304 b 384 617 338 418 362 519 l 490 617 b 568 304 509 519 530 419 l 583 304 b 665 741 620 442 650 585 l 847 741 b 674 0 828 472 767 234 l 550 0 "},"ẃ":{"ha":861,"x_min":0,"x_max":0,"o":"m 550 0 b 435 397 501 131 463 263 l 422 397 b 299 0 392 263 352 131 l 186 0 b 14 741 94 234 33 472 l 206 741 b 281 304 217 585 244 446 l 294 304 b 384 617 338 418 362 519 l 490 617 b 568 304 509 519 530 419 l 583 304 b 665 741 620 442 650 585 l 847 741 b 674 0 828 472 767 234 l 550 0 m 519 885 l 692 1135 l 476 1135 l 345 885 "},"ŵ":{"ha":861,"x_min":0,"x_max":0,"o":"m 550 0 b 435 397 501 131 463 263 l 422 397 b 299 0 392 263 352 131 l 186 0 b 14 741 94 234 33 472 l 206 741 b 281 304 217 585 244 446 l 294 304 b 384 617 338 418 362 519 l 490 617 b 568 304 509 519 530 419 l 583 304 b 665 741 620 442 650 585 l 847 741 b 674 0 828 472 767 234 l 550 0 m 313 1135 l 548 1135 l 712 885 l 539 885 l 431 1064 l 322 885 l 150 885 "},"ẅ":{"ha":861,"x_min":0,"x_max":0,"o":"m 550 0 b 435 397 501 131 463 263 l 422 397 b 299 0 392 263 352 131 l 186 0 b 14 741 94 234 33 472 l 206 741 b 281 304 217 585 244 446 l 294 304 b 384 617 338 418 362 519 l 490 617 b 568 304 509 519 530 419 l 583 304 b 665 741 620 442 650 585 l 847 741 b 674 0 828 472 767 234 l 550 0 m 240 862 b 123 984 170 862 123 910 b 240 1103 123 1058 170 1103 b 357 984 310 1103 357 1058 b 240 862 357 910 310 862 m 622 862 b 504 984 551 862 504 910 b 622 1103 504 1058 551 1103 b 738 984 691 1103 738 1058 b 622 862 738 910 691 862 "},"ẁ":{"ha":861,"x_min":0,"x_max":0,"o":"m 550 0 b 435 397 501 131 463 263 l 422 397 b 299 0 392 263 352 131 l 186 0 b 14 741 94 234 33 472 l 206 741 b 281 304 217 585 244 446 l 294 304 b 384 617 338 418 362 519 l 490 617 b 568 304 509 519 530 419 l 583 304 b 665 741 620 442 650 585 l 847 741 b 674 0 828 472 767 234 l 550 0 m 342 885 l 169 1135 l 385 1135 l 516 885 "},"x":{"ha":861,"x_min":0,"x_max":0,"o":"m 269 741 l 450 501 l 617 741 l 826 741 l 542 378 l 827 0 l 598 0 l 413 247 l 253 0 l 32 0 l 313 381 l 42 741 "},"y":{"ha":861,"x_min":0,"x_max":0,"o":"m 259 741 b 439 238 300 560 367 381 l 449 238 b 606 741 513 376 567 530 l 808 741 b 583 115 761 517 663 288 l 562 69 b 155 -294 485 -99 321 -294 b 78 -283 124 -294 98 -288 l 36 -107 b 136 -120 63 -114 98 -120 b 335 0 242 -120 299 -70 l 343 16 b 49 741 210 255 122 465 l 259 741 "},"ý":{"ha":861,"x_min":0,"x_max":0,"o":"m 259 741 b 439 238 300 560 367 381 l 449 238 b 606 741 513 376 567 530 l 808 741 b 583 115 761 517 663 288 l 562 69 b 155 -294 485 -99 321 -294 b 78 -283 124 -294 98 -288 l 36 -107 b 136 -120 63 -114 98 -120 b 335 0 242 -120 299 -70 l 343 16 b 49 741 210 255 122 465 l 259 741 m 519 885 l 692 1135 l 476 1135 l 345 885 "},"ŷ":{"ha":861,"x_min":0,"x_max":0,"o":"m 259 741 b 439 238 300 560 367 381 l 449 238 b 606 741 513 376 567 530 l 808 741 b 583 115 761 517 663 288 l 562 69 b 155 -294 485 -99 321 -294 b 78 -283 124 -294 98 -288 l 36 -107 b 136 -120 63 -114 98 -120 b 335 0 242 -120 299 -70 l 343 16 b 49 741 210 255 122 465 l 259 741 m 313 1135 l 548 1135 l 712 885 l 539 885 l 431 1064 l 322 885 l 150 885 "},"ÿ":{"ha":861,"x_min":0,"x_max":0,"o":"m 259 741 b 439 238 300 560 367 381 l 449 238 b 606 741 513 376 567 530 l 808 741 b 583 115 761 517 663 288 l 562 69 b 155 -294 485 -99 321 -294 b 78 -283 124 -294 98 -288 l 36 -107 b 136 -120 63 -114 98 -120 b 335 0 242 -120 299 -70 l 343 16 b 49 741 210 255 122 465 l 259 741 m 240 862 b 123 984 170 862 123 910 b 240 1103 123 1058 170 1103 b 357 984 310 1103 357 1058 b 240 862 357 910 310 862 m 622 862 b 504 984 551 862 504 910 b 622 1103 504 1058 551 1103 b 738 984 691 1103 738 1058 b 622 862 738 910 691 862 "},"ỳ":{"ha":861,"x_min":0,"x_max":0,"o":"m 259 741 b 439 238 300 560 367 381 l 449 238 b 606 741 513 376 567 530 l 808 741 b 583 115 761 517 663 288 l 562 69 b 155 -294 485 -99 321 -294 b 78 -283 124 -294 98 -288 l 36 -107 b 136 -120 63 -114 98 -120 b 335 0 242 -120 299 -70 l 343 16 b 49 741 210 255 122 465 l 259 741 m 342 885 l 169 1135 l 385 1135 l 516 885 "},"ȳ":{"ha":861,"x_min":0,"x_max":0,"o":"m 259 741 b 439 238 300 560 367 381 l 449 238 b 606 741 513 376 567 530 l 808 741 b 583 115 761 517 663 288 l 562 69 b 155 -294 485 -99 321 -294 b 78 -283 124 -294 98 -288 l 36 -107 b 136 -120 63 -114 98 -120 b 335 0 242 -120 299 -70 l 343 16 b 49 741 210 255 122 465 l 259 741 m 668 907 l 193 907 l 193 1030 l 668 1030 "},"ỹ":{"ha":861,"x_min":0,"x_max":0,"o":"m 259 741 b 439 238 300 560 367 381 l 449 238 b 606 741 513 376 567 530 l 808 741 b 583 115 761 517 663 288 l 562 69 b 155 -294 485 -99 321 -294 b 78 -283 124 -294 98 -288 l 36 -107 b 136 -120 63 -114 98 -120 b 335 0 242 -120 299 -70 l 343 16 b 49 741 210 255 122 465 l 259 741 m 296 1144 b 515 1020 403 1144 445 1020 b 590 1138 553 1020 581 1060 l 722 1103 b 554 864 708 951 645 864 b 336 988 447 864 405 988 b 261 869 297 988 270 948 l 129 905 b 296 1144 142 1056 205 1144 "},"z":{"ha":861,"x_min":0,"x_max":0,"o":"m 726 741 l 736 639 l 369 174 l 797 174 l 726 0 l 101 0 l 94 110 l 467 581 l 78 581 l 140 741 "},"ź":{"ha":861,"x_min":0,"x_max":0,"o":"m 726 741 l 736 639 l 369 174 l 797 174 l 726 0 l 101 0 l 94 110 l 467 581 l 78 581 l 140 741 m 519 885 l 692 1135 l 476 1135 l 345 885 "},"ž":{"ha":861,"x_min":0,"x_max":0,"o":"m 726 741 l 736 639 l 369 174 l 797 174 l 726 0 l 101 0 l 94 110 l 467 581 l 78 581 l 140 741 m 313 885 l 548 885 l 712 1135 l 539 1135 l 431 957 l 322 1135 l 150 1135 "},"ż":{"ha":861,"x_min":0,"x_max":0,"o":"m 726 741 l 736 639 l 369 174 l 797 174 l 726 0 l 101 0 l 94 110 l 467 581 l 78 581 l 140 741 m 431 865 b 299 986 352 865 299 912 b 431 1106 299 1060 352 1106 b 562 986 509 1106 562 1060 b 431 865 562 912 509 865 "},"":{"ha":861,"x_min":0,"x_max":0,"o":"m 717 758 b 682 794 717 778 701 794 l 610 794 b 574 758 590 794 574 778 l 574 578 l 287 578 l 287 758 b 251 794 287 778 271 794 l 179 794 b 144 758 160 794 144 778 l 144 256 b 179 220 144 236 160 220 l 251 220 b 287 256 271 220 287 236 l 287 435 l 574 435 l 574 256 b 610 220 574 236 590 220 l 682 220 b 717 256 701 220 717 236 l 717 758 m 861 238 b 700 76 861 149 789 76 l 162 76 b 0 238 72 76 0 149 l 0 776 b 162 938 0 865 72 938 l 700 938 b 861 776 789 938 861 865 l 861 238 "},"":{"ha":861,"x_min":0,"x_max":0,"o":"m 0 507 l 215 879 l 647 879 b 861 508 718 755 790 632 b 646 135 790 383 718 259 l 215 135 l 108 321 m 445 388 b 502 494 494 392 530 451 b 387 562 475 532 422 533 b 471 590 365 610 444 614 b 485 626 486 577 522 622 b 337 588 439 659 355 649 b 397 504 326 547 360 515 b 438 427 433 499 499 451 b 344 444 404 409 369 455 b 389 388 301 416 363 394 b 445 388 408 384 426 383 m 153 424 b 169 457 159 433 155 458 l 245 456 l 264 390 b 304 413 283 392 326 381 b 231 640 281 489 256 564 l 177 640 b 97 391 151 557 122 474 b 146 399 111 395 142 381 l 153 424 m 203 603 b 225 493 207 570 241 513 b 174 494 208 493 190 492 m 580 451 b 575 587 580 497 578 542 b 617 456 588 543 601 499 b 651 478 637 451 650 458 b 688 591 665 515 676 553 b 681 390 681 524 682 457 l 723 390 l 723 640 b 667 624 703 635 669 651 b 632 508 654 585 643 547 b 591 640 616 551 605 596 l 540 640 l 540 390 b 580 392 553 392 572 387 l 580 451 "},"":{"ha":861,"x_min":0,"x_max":0,"o":"m 428 989 b 449 985 435 988 442 987 b 730 825 544 934 636 878 b 847 723 772 796 837 781 b 847 369 849 606 847 488 b 817 252 847 329 855 281 b 533 88 724 196 628 144 b 400 41 492 68 451 24 b 90 216 297 98 194 158 b 1 302 54 237 8 256 b 0 661 -1 422 1 542 b 29 772 1 699 -6 746 b 315 938 124 828 220 883 b 428 989 353 954 385 990 m 440 794 b 197 681 346 799 252 756 b 218 319 115 576 126 415 b 596 290 312 214 487 202 b 644 386 619 313 696 365 b 527 417 604 395 553 471 b 310 429 472 353 359 360 b 353 633 259 492 282 594 b 542 590 415 674 503 651 b 668 654 581 592 628 634 b 440 794 622 735 533 790 "},"":{"ha":861,"x_min":0,"x_max":0,"o":"m 633 525 b 531 315 595 423 531 315 l 458 315 b 572 649 475 342 602 556 b 502 765 560 681 533 721 l 575 763 b 778 315 663 639 724 483 l 710 315 b 633 525 687 391 663 465 m 861 507 b 431 76 861 269 668 76 b 0 507 192 76 0 269 b 431 938 0 744 192 938 b 861 507 668 938 861 744 m 315 692 b 210 483 315 692 248 587 b 134 693 182 544 158 617 l 67 693 b 269 243 120 525 181 367 l 342 242 b 273 359 311 285 285 327 b 390 692 243 435 363 653 l 315 692 m 840 507 b 431 916 840 733 656 916 b 242 871 363 916 299 900 b 422 494 477 890 563 627 b 370 269 371 447 340 353 b 590 130 397 197 479 119 b 840 507 737 192 840 338 "},"":{"ha":861,"x_min":0,"x_max":0,"o":"m 428 989 b 449 985 435 988 442 987 b 730 825 544 934 636 878 b 847 723 772 796 837 781 b 847 369 849 606 847 488 b 817 252 847 329 855 281 b 533 88 724 196 628 144 b 400 41 491 68 451 24 b 90 216 297 98 194 158 b 1 302 54 237 8 256 b 0 661 -1 422 1 542 b 28 772 1 699 -6 746 b 315 938 124 828 220 883 b 428 989 353 954 385 990 m 440 794 b 201 686 349 799 257 758 b 218 319 115 581 124 416 b 596 290 312 214 487 202 b 644 386 619 313 696 365 b 527 417 604 395 553 471 b 310 429 472 353 359 360 b 353 633 259 492 282 594 b 542 590 415 674 503 651 b 668 654 581 592 628 634 b 440 794 622 735 533 790 m 538 537 l 538 489 l 586 489 l 586 442 l 633 442 l 633 489 l 681 489 l 681 537 l 633 537 l 633 583 l 586 583 l 586 537 m 699 537 l 699 489 l 746 489 l 746 442 l 792 442 l 792 489 l 839 489 l 839 537 l 792 537 l 792 583 l 746 583 l 746 537 "},"":{"ha":861,"x_min":0,"x_max":0,"o":"m 861 393 l 548 76 l 115 190 l 0 622 l 314 938 l 747 819 m 443 727 l 22 617 l 328 308 "},"":{"ha":861,"x_min":0,"x_max":0,"o":"m 822 849 l 0 849 l 3 965 l 817 965 m 703 583 l 3 583 l 0 698 l 705 698 m 861 316 l 1 316 l 3 431 l 858 431 m 501 49 l 3 49 l 1 165 l 504 165 "},"":{"ha":861,"x_min":0,"x_max":0,"o":"m 861 749 l 861 157 l 0 157 l 0 857 l 377 857 l 485 749 "},"":{"ha":861,"x_min":0,"x_max":0,"o":"m 651 411 b 621 453 628 415 617 428 b 633 482 622 465 616 481 b 644 554 677 489 661 529 b 585 566 640 590 606 578 b 548 599 569 570 563 590 b 542 659 535 613 577 649 b 455 644 512 676 460 697 b 406 636 445 630 422 638 b 373 676 386 635 392 672 b 298 626 349 672 287 662 b 294 580 309 608 316 591 b 233 570 279 554 258 556 b 201 483 208 557 187 511 b 238 434 228 476 244 463 b 204 397 249 407 222 406 b 240 309 188 370 215 322 b 287 319 255 310 273 332 b 310 265 299 299 329 289 b 385 210 290 225 358 213 b 422 253 406 217 395 259 b 465 252 435 252 451 254 b 515 219 470 228 486 195 b 558 277 540 229 583 243 b 575 319 542 295 565 306 b 643 329 590 351 624 299 b 651 411 644 353 688 398 m 469 358 b 335 433 414 328 338 372 b 451 539 326 496 390 556 b 505 387 516 525 549 438 b 469 358 496 374 483 364 m 861 749 l 861 157 l 0 157 l 0 857 l 377 857 l 485 749 "},"":{"ha":861,"x_min":0,"x_max":0,"o":"m 485 749 l 861 749 l 861 157 l 0 157 l 0 857 l 377 857 m 419 701 l 413 699 b 359 649 392 685 377 665 l 411 597 b 462 544 435 594 476 581 l 506 500 b 565 449 526 486 575 493 b 494 470 556 397 472 422 l 444 520 l 444 410 b 458 335 435 381 482 367 b 413 390 424 281 353 365 l 413 512 b 392 572 413 531 376 544 l 338 626 l 213 499 b 190 442 198 484 172 465 l 387 246 b 443 222 401 231 420 204 l 642 419 b 659 481 660 433 681 458 l 482 658 b 424 701 464 672 451 699 "},"":{"ha":861,"x_min":0,"x_max":0,"o":"m 485 749 l 861 749 l 861 157 l 0 157 l 0 857 l 377 857 m 236 681 b 230 661 233 674 231 668 b 219 558 219 628 214 592 b 178 429 185 524 174 475 b 214 316 180 390 189 347 b 337 249 243 278 288 252 b 433 243 369 245 401 244 b 531 249 466 245 499 245 b 627 289 566 254 600 265 b 689 439 671 325 690 383 b 651 562 694 483 670 528 b 631 681 651 602 647 643 b 503 622 584 672 543 647 b 363 622 458 631 408 631 b 236 681 324 649 283 674 m 341 472 b 420 466 367 469 394 466 b 556 469 465 463 510 476 b 619 352 608 460 633 399 b 511 275 612 301 557 280 b 293 292 439 267 362 264 b 254 426 244 315 235 381 b 341 472 269 459 307 471 m 345 427 b 310 395 327 428 316 410 b 369 341 294 360 337 297 b 345 427 392 367 381 421 m 524 427 b 488 391 504 427 492 408 b 548 341 473 356 518 299 b 524 427 567 367 561 421 "},"":{"ha":861,"x_min":0,"x_max":0,"o":"m 253 351 l 253 307 l 426 307 l 426 351 l 813 351 l 813 611 l 39 611 l 39 351 m 210 522 l 169 522 l 169 394 l 82 394 l 82 568 l 253 568 l 253 394 l 210 394 m 385 351 l 298 351 l 298 568 l 470 568 l 470 394 l 385 394 m 729 522 l 685 522 l 685 394 l 642 394 l 642 522 l 599 522 l 599 394 l 512 394 l 512 568 l 772 568 l 772 394 l 729 394 m 385 440 l 426 440 l 426 522 l 385 522 m 485 749 l 861 749 l 861 157 l 0 157 l 0 857 l 376 857 "},"":{"ha":861,"x_min":0,"x_max":0,"o":"m 800 753 b 861 692 841 753 861 733 l 861 199 b 800 138 861 158 841 138 l 62 138 b 0 199 21 138 0 158 l 0 815 b 62 876 0 856 21 876 l 369 876 b 431 815 410 876 431 856 l 431 753 l 800 753 m 62 815 l 62 753 l 369 753 l 369 815 "},"":{"ha":861,"x_min":0,"x_max":0,"o":"m 0 857 l 242 857 l 350 749 l 700 749 l 700 642 l 108 642 l 0 157 m 162 588 l 861 588 l 700 157 l 0 157 "},"":{"ha":861,"x_min":0,"x_max":0,"o":"m 420 963 b 478 902 452 964 481 935 b 572 801 520 880 550 841 b 629 342 644 661 655 496 b 586 266 621 320 619 234 b 603 635 620 385 627 513 b 480 874 585 723 555 819 b 375 868 458 860 403 826 b 420 963 342 903 373 966 m 420 939 b 401 877 388 940 373 894 b 420 939 449 844 478 940 m 212 776 b 232 776 218 776 225 776 b 296 745 252 773 325 777 b 110 731 234 753 167 760 b 58 601 61 709 42 650 b 68 519 56 575 113 519 b 36 684 38 567 17 628 b 212 776 63 754 144 778 m 631 776 b 785 715 687 775 749 761 b 765 506 833 652 804 565 b 706 467 752 490 718 425 b 786 633 744 515 783 569 b 695 744 792 688 747 733 b 631 776 675 753 594 743 m 528 765 b 536 743 540 765 546 749 b 242 606 431 718 330 672 b 58 372 163 546 84 471 b 112 298 31 319 101 340 b 40 220 133 255 85 203 b 30 326 -7 232 -15 305 b 121 529 26 404 72 473 b 528 765 228 647 373 731 m 419 530 b 444 453 459 531 478 476 b 419 530 385 412 347 528 m 141 460 b 380 288 208 388 290 329 b 694 233 477 244 587 209 b 739 317 752 233 701 290 b 838 281 771 351 836 328 b 747 228 846 234 784 198 b 604 202 703 204 653 199 b 187 383 450 214 305 285 b 136 460 172 404 102 438 l 141 460 m 58 310 b 39 247 25 311 11 265 b 58 310 88 215 117 310 m 781 310 b 764 246 745 310 733 262 b 781 310 813 219 836 310 m 257 256 b 352 109 281 203 304 145 b 501 119 395 72 463 78 b 566 166 524 130 545 205 b 440 61 540 118 497 72 b 268 174 364 48 301 112 b 250 258 261 199 219 242 l 257 256 "},"":{"ha":861,"x_min":0,"x_max":0,"o":"m 460 1115 b 572 729 462 1015 460 865 b 824 314 683 593 824 525 b 439 -101 824 39 619 -101 b 36 340 259 -101 36 15 b 284 952 36 522 124 750 b 460 1115 335 1016 397 1085 m 210 31 b 401 -57 261 -12 325 -41 b 401 1 515 -81 473 -24 b 210 31 353 18 289 28 "},"":{"ha":861,"x_min":0,"x_max":0,"o":"m 616 717 l 431 531 l 244 717 m 618 750 l 210 750 l 24 938 l 431 938 m 657 304 l 454 507 l 658 710 l 860 508 m 861 938 l 861 555 l 478 938 m 0 914 l 406 507 l 0 100 m 860 100 l 681 281 l 860 461 m 24 76 l 431 483 l 837 76 "},"":{"ha":861,"x_min":0,"x_max":0,"o":"m 270 211 b 619 269 389 208 507 230 b 599 327 659 286 642 335 b 298 363 499 343 392 319 b 369 462 259 409 330 450 b 542 509 425 484 485 494 b 409 577 503 540 452 551 b 346 649 380 590 316 609 b 547 676 409 676 480 673 b 569 785 598 685 613 758 b 410 782 522 819 460 796 b 384 764 392 780 332 762 b 497 749 422 763 467 778 b 380 716 488 713 416 726 b 230 695 330 712 277 715 b 285 585 190 653 249 605 b 419 526 326 558 372 540 b 151 435 323 531 217 510 b 204 327 122 392 163 342 b 449 283 279 289 365 273 b 514 278 467 283 518 290 b 371 234 471 251 418 251 l 270 211 m 824 500 b 465 92 828 301 665 113 b 47 308 297 69 122 159 b 109 779 -33 458 -10 656 b 545 890 216 896 394 944 b 822 540 695 839 810 697 l 824 500 "},"":{"ha":861,"x_min":0,"x_max":0,"o":"m 455 697 l 483 930 l 655 913 l 646 844 l 719 969 l 856 867 l 706 609 b 861 315 801 538 861 434 b 431 -67 861 103 667 -67 b 0 315 194 -67 0 103 b 233 656 0 464 96 592 l 162 1048 l 381 1081 l 380 1081 l 451 697 m 430 663 b 35 316 210 663 35 506 b 430 -31 35 125 210 -31 b 824 316 649 -31 824 125 b 430 663 824 506 649 663 m 239 458 b 334 331 288 458 328 402 l 334 315 b 242 173 334 238 293 175 l 239 173 b 144 308 188 173 147 233 l 144 316 b 231 458 144 391 183 452 l 238 458 l 238 458 m 621 458 b 715 331 669 458 710 402 l 716 315 b 623 173 716 238 674 175 l 620 173 b 526 308 569 173 528 233 b 525 316 525 311 525 313 b 613 458 525 391 564 452 l 619 458 l 619 458 m 206 395 b 176 348 190 393 176 372 b 177 345 176 347 176 346 b 208 300 178 320 192 300 l 209 300 b 240 347 226 301 240 322 l 240 353 b 208 395 238 376 225 395 m 588 395 b 558 348 571 393 558 372 l 558 345 b 590 300 559 320 573 300 l 591 300 b 622 347 608 301 622 322 l 622 353 b 590 395 619 376 606 395 "},"":{"ha":861,"x_min":0,"x_max":0,"o":"m 403 1067 b 557 1049 454 1065 508 1067 b 635 1013 585 1042 610 1019 b 760 979 677 1033 739 1026 b 712 873 781 938 754 888 b 733 580 737 778 730 678 b 785 524 724 540 753 533 b 738 478 834 495 772 435 b 733 223 740 393 748 307 b 665 76 722 169 701 118 b 706 1 678 58 719 34 b 605 30 674 -53 635 10 b 413 -13 544 3 478 -10 b 206 18 342 -20 273 -5 b 103 -15 173 6 140 -51 b 140 65 72 15 115 48 b 69 180 105 94 77 134 b 69 453 67 271 69 362 b 13 459 74 495 28 422 b 74 530 -27 499 39 527 b 58 713 68 591 55 651 b 67 847 52 758 63 802 b 14 958 38 872 -6 908 b 148 1001 31 1017 103 1009 b 403 1067 222 1053 315 1063 m 417 1056 b 351 1052 395 1055 373 1054 b 113 936 262 1048 160 1019 b 82 558 53 819 64 683 b 77 335 83 484 78 409 b 109 116 79 262 65 180 b 224 26 133 67 189 63 b 528 15 319 -12 428 -5 b 642 73 572 22 606 52 b 731 298 707 128 724 217 b 723 597 731 397 723 497 b 672 940 717 712 732 836 b 417 1056 624 1031 512 1058 m 508 1013 b 619 914 563 1014 622 973 b 546 815 624 868 592 823 b 426 864 500 802 448 819 b 508 1013 385 924 438 1012 m 677 1013 b 668 969 631 1010 647 993 b 696 921 707 980 715 944 b 745 911 700 883 724 876 b 677 1013 778 958 732 1022 m 524 1006 b 421 884 459 1011 398 949 b 593 850 443 813 546 794 b 524 1006 645 906 596 1002 m 260 1001 b 347 958 293 1001 328 985 b 326 822 379 917 367 853 b 158 893 268 772 157 813 b 260 1001 149 951 203 1003 m 90 997 b 21 921 50 997 15 962 b 83 901 22 882 81 847 b 101 951 73 919 60 958 b 90 997 137 967 137 1006 m 265 994 b 219 985 249 994 233 994 b 198 827 154 963 142 866 b 359 890 253 781 353 815 b 265 994 369 945 319 996 m 465 938 b 490 884 492 936 505 904 b 465 938 444 834 396 939 m 197 929 b 240 901 215 931 238 921 b 197 929 242 821 118 894 m 389 842 b 416 838 398 842 408 842 b 477 776 434 816 460 801 b 440 730 495 740 444 744 b 397 683 451 699 431 646 b 348 712 378 664 335 671 b 310 759 367 750 319 729 b 389 842 317 797 351 835 m 432 806 b 317 765 397 763 324 837 b 435 744 337 716 400 780 b 432 806 493 731 470 801 m 390 750 b 362 741 381 748 371 746 b 377 677 349 726 344 671 b 390 750 397 692 391 727 m 403 747 b 406 683 398 726 395 702 b 403 747 449 658 447 753 m 743 531 b 735 510 732 531 736 517 b 772 468 727 484 752 475 b 785 489 815 467 749 505 b 743 531 824 477 769 543 m 63 522 b 6 494 42 518 19 512 b 16 472 -10 457 53 499 b 63 522 21 422 105 500 m 653 66 b 610 40 635 67 620 53 b 685 -13 632 25 651 -23 b 687 6 678 9 663 46 b 653 66 722 -12 685 74 m 157 62 b 103 -8 131 55 83 25 b 119 4 112 10 148 43 b 190 16 104 -48 173 -1 b 157 62 230 22 177 62 "},"":{"ha":861,"x_min":0,"x_max":0,"o":"m 523 928 b 667 827 569 898 618 865 b 803 725 718 790 763 756 l 861 681 l 858 40 l 567 161 l 566 483 l 549 499 b 513 537 539 510 527 523 b 468 577 498 552 483 566 b 431 594 453 589 440 594 b 395 577 422 594 410 589 b 351 537 380 566 365 552 b 313 499 336 523 324 510 l 296 483 l 294 161 l 3 40 l 0 681 l 60 725 b 192 827 99 756 143 790 b 338 928 243 865 292 898 b 431 974 384 958 415 974 b 523 928 446 974 476 958 "},"":{"ha":861,"x_min":0,"x_max":0,"o":"m 861 76 l 0 76 l 0 938 l 861 938 l 432 508 "},"":{"ha":861,"x_min":0,"x_max":0,"o":"m 572 971 b 706 863 635 974 699 930 b 662 856 705 849 675 860 b 598 901 625 843 631 892 b 521 851 566 919 499 895 b 656 802 556 815 613 822 b 717 684 706 788 729 732 b 555 595 701 613 619 584 b 439 712 495 600 435 647 l 488 712 b 550 668 522 722 519 674 b 642 715 584 650 654 666 b 517 764 613 753 558 747 b 439 860 475 776 435 812 b 572 971 436 928 508 974 m 269 753 l 309 964 l 428 964 l 428 598 l 357 598 l 351 803 l 310 598 l 235 598 l 183 795 l 183 598 l 110 598 l 110 964 l 214 964 m 424 576 b 503 566 451 577 478 572 b 440 483 498 548 449 515 b 305 395 381 490 326 449 b 285 258 292 351 292 304 b 215 176 284 220 258 174 b 202 422 178 252 175 342 b 424 576 231 515 326 580 m 626 572 b 696 563 649 572 673 569 b 823 411 766 549 824 485 l 747 411 b 673 475 708 405 717 472 b 540 426 627 492 551 483 b 565 322 551 392 569 359 b 497 317 578 265 524 301 b 460 485 438 349 435 431 b 626 572 488 549 561 573 m 172 562 b 269 549 205 562 238 558 b 206 460 253 519 219 494 l 101 460 l 101 163 b 207 157 136 160 171 156 b 281 198 238 152 265 171 b 310 340 310 240 303 292 b 383 456 309 389 338 436 b 401 208 426 381 428 288 b 210 63 375 127 296 67 b 0 70 140 60 70 68 l 0 558 l 172 562 m 651 465 b 653 164 706 374 702 256 b 574 175 633 151 596 163 b 571 242 549 191 568 219 b 572 378 585 285 589 333 b 620 465 546 420 566 471 l 651 465 m 705 347 b 785 315 733 340 762 332 b 799 106 858 272 861 158 b 532 74 726 43 619 44 b 438 223 472 94 427 160 l 503 223 b 550 178 538 233 536 202 b 691 149 583 138 644 140 b 699 250 749 153 756 235 l 705 347 m 426 152 b 517 63 453 126 477 81 b 324 72 454 40 385 47 b 393 153 349 97 376 121 "},"":{"ha":861,"x_min":0,"x_max":0,"o":"m 187 548 l 44 759 b 46 237 44 759 46 409 l 187 97 m 230 563 l 230 -9 l 0 220 l 0 789 l 47 836 m 824 183 l 645 452 l 645 1023 l 860 806 l 861 222 m 634 -5 l 85 865 l 238 1021 l 788 149 "},"":{"ha":861,"x_min":0,"x_max":0,"o":"m 707 41 b 356 133 693 51 572 194 b 110 213 173 77 116 213 b 356 576 85 340 320 418 b 351 754 317 638 324 690 b 396 732 365 795 387 768 l 444 741 b 481 791 439 781 480 813 b 497 742 481 773 487 756 b 628 972 544 844 606 972 b 603 868 644 973 613 909 b 548 713 574 790 572 766 b 610 676 576 701 599 708 b 799 640 695 628 724 654 b 835 627 818 653 834 646 b 848 583 840 619 855 613 l 809 548 b 718 494 848 489 743 483 b 597 499 677 508 645 488 b 472 473 544 422 472 473 b 499 308 465 442 408 357 b 707 42 633 229 704 67 l 707 41 m 89 227 b 1 454 33 258 -6 340 b 158 639 15 544 107 630 b 305 690 223 649 266 650 b 333 576 303 647 301 622 b 89 227 295 435 55 351 "},"":{"ha":861,"x_min":0,"x_max":0,"o":"m 47 -101 l 47 1115 l 815 522 "},"":{"ha":861,"x_min":0,"x_max":0,"o":"m 769 688 b 856 598 830 628 854 603 b 856 572 860 590 860 581 b 769 482 854 567 833 546 l 685 399 l 664 421 l 642 442 l 783 585 l 642 727 l 664 749 l 685 772 l 769 688 m 396 695 b 546 692 537 695 543 695 l 600 642 b 609 633 606 637 609 633 l 462 633 l 315 632 l 304 642 b 283 662 299 649 289 657 l 261 683 l 249 695 l 396 695 m 173 614 b 195 592 174 614 183 604 l 217 570 l 146 499 l 75 428 l 217 285 l 196 265 b 174 242 184 253 174 243 l 88 326 b 0 428 1 414 -1 416 b 88 530 1 442 -1 440 m 316 538 b 607 538 317 538 599 538 b 605 533 610 538 609 536 l 553 484 l 544 475 l 249 475 l 257 483 l 285 510 b 310 533 297 521 308 531 b 316 538 313 535 315 538 m 543 381 l 553 372 l 566 360 b 588 340 568 358 577 349 b 610 318 608 321 610 319 l 463 318 b 313 320 333 318 315 319 b 292 340 312 322 302 331 l 262 369 l 249 381 "},"":{"ha":861,"x_min":0,"x_max":0,"o":"m 845 155 b 802 -40 845 65 831 1 b 692 -101 773 -81 737 -101 b 590 -62 657 -101 623 -88 b 501 155 557 -35 528 38 l 428 485 l 176 -90 l 15 -90 l 378 693 b 309 918 359 794 336 869 b 208 992 282 967 248 992 b 124 955 176 992 147 979 b 83 840 100 931 86 892 l 52 840 b 103 1040 54 924 71 990 b 222 1115 134 1090 174 1115 b 308 1078 252 1115 281 1103 b 379 949 335 1053 359 1010 b 474 570 399 888 431 762 l 534 301 b 610 78 558 190 583 115 b 707 21 637 40 669 22 b 815 155 770 21 806 65 l 845 155 "},"":{"ha":861,"x_min":0,"x_max":0,"o":"m 192 843 l 103 843 l 103 172 l 192 172 l 192 76 l 0 76 l 0 938 l 192 938 m 479 657 l 479 192 l 371 192 l 371 657 l 217 657 l 217 757 l 633 757 l 633 657 m 669 171 l 758 171 l 758 842 l 669 842 l 669 938 l 861 938 l 861 76 l 669 76 "},"":{"ha":861,"x_min":0,"x_max":0,"o":"m 841 928 b 853 906 852 927 858 918 l 581 149 l 450 524 l 574 878 b 608 906 578 892 594 905 l 836 928 b 841 928 838 928 840 928 m 247 906 b 281 878 261 905 276 892 l 555 97 b 547 85 558 90 553 85 l 323 85 l 318 85 l 315 86 b 288 109 303 89 292 99 l 1 906 b 19 928 -3 919 4 929 l 247 906 "},"":{"ha":861,"x_min":0,"x_max":0,"o":"m 349 881 l 349 825 l 333 807 l 307 807 b 300 804 304 807 301 806 b 298 797 299 802 298 799 l 295 556 l 295 555 b 297 551 297 554 297 553 b 300 546 298 549 299 547 b 306 544 301 545 303 544 b 313 549 308 545 310 547 l 560 790 b 563 792 560 792 561 792 b 564 797 563 793 564 794 b 565 801 565 799 565 800 b 563 806 565 803 565 804 b 555 807 561 806 559 807 l 534 807 l 519 826 l 519 883 l 535 906 l 846 903 l 861 888 l 861 822 l 154 105 l 75 105 l 52 129 l 51 799 b 48 806 51 801 50 803 b 42 808 47 808 44 808 l 16 810 l 0 825 l 0 894 l 13 909 l 330 903 "},"":{"ha":861,"x_min":0,"x_max":0,"o":"m 861 492 l 861 76 l 445 76 l 445 492 m 415 492 l 415 76 l 0 76 l 0 492 m 861 938 l 861 522 l 445 522 l 445 938 m 415 938 l 415 522 l 0 522 l 0 938 "},"":{"ha":861,"x_min":0,"x_max":0,"o":"m 358 -47 b 431 -69 357 19 469 -12 b 358 -47 410 -101 357 -87 m 358 265 b 431 242 359 331 468 298 b 358 265 410 211 356 224 m 370 81 b 437 116 322 128 425 182 b 370 81 447 78 394 50 m 358 576 b 431 554 357 642 469 610 b 358 576 411 520 357 537 m 358 420 b 431 397 360 488 468 453 b 358 420 411 365 356 382 m 358 888 b 431 865 359 953 468 921 b 358 888 410 833 356 848 m 370 703 b 437 739 322 750 424 805 b 370 703 446 701 395 674 m 370 1015 b 437 1051 322 1062 423 1115 b 370 1015 447 1013 396 987 "},"":{"ha":861,"x_min":0,"x_max":0,"o":"m 602 1019 b 621 1013 607 1013 615 1016 b 460 780 636 910 560 804 b 420 858 400 753 413 820 b 602 1019 447 938 521 999 m 278 776 b 443 735 338 785 386 739 b 606 776 499 742 549 776 b 835 681 692 785 780 749 b 740 553 817 644 752 608 b 759 368 718 494 725 422 b 855 276 781 328 823 306 b 761 100 838 210 801 153 b 640 9 726 64 690 20 b 466 48 578 -3 524 39 b 252 3 390 58 328 -5 b 148 73 211 13 177 43 b 6 388 74 163 20 272 b 36 637 -6 472 -1 560 b 253 776 75 719 161 776 l 278 776 "},"":{"ha":861,"x_min":0,"x_max":0,"o":"m 431 -11 l 0 472 l 192 472 l 192 1025 l 353 924 l 353 291 l 431 204 l 508 292 l 508 924 l 670 1025 l 670 472 l 861 472 "},"":{"ha":861,"x_min":0,"x_max":0,"o":"m 172 663 l 284 351 l 223 351 l 192 434 l 74 434 l 43 351 l 0 351 l 113 663 m 133 599 l 87 474 l 176 474 m 299 406 b 402 384 340 392 374 384 b 451 395 425 384 440 390 b 469 426 464 403 469 412 b 458 451 469 437 466 445 b 417 476 451 460 438 468 l 392 488 b 320 535 358 504 335 521 b 299 585 307 549 299 566 b 333 647 299 610 310 633 b 425 672 356 663 387 672 b 525 660 456 672 489 669 l 525 610 b 433 627 487 622 456 627 b 392 619 415 627 402 624 b 376 594 381 610 376 602 b 387 572 376 585 379 577 b 428 546 394 566 407 557 l 453 535 b 528 488 489 518 515 501 b 548 434 540 474 548 457 b 510 367 548 406 535 381 b 405 342 487 351 451 342 b 299 353 376 342 340 345 l 299 406 m 651 660 l 720 440 l 792 660 l 861 660 l 861 351 l 804 351 l 804 588 l 735 373 l 687 373 l 617 591 l 617 351 l 572 351 l 572 660 "},"":{"ha":861,"x_min":0,"x_max":0,"o":"m 445 849 b 471 826 456 847 468 838 b 471 223 472 626 471 424 b 422 189 478 195 445 165 b 215 364 352 246 285 307 b 65 364 165 365 115 364 b 0 385 42 366 8 357 l 0 599 b 27 663 1 623 -5 658 b 220 665 91 665 156 663 b 328 759 254 697 292 727 b 445 849 367 787 397 835 m 713 844 b 741 831 724 844 733 838 b 851 549 806 751 842 651 b 856 505 853 533 850 517 b 807 301 851 435 836 365 b 719 185 785 259 765 206 b 706 253 674 183 680 232 b 714 758 813 398 816 610 b 713 844 690 781 659 835 m 635 772 b 654 765 642 772 649 769 b 736 558 701 706 731 633 b 676 296 751 467 726 373 b 613 315 666 244 582 270 b 636 683 691 419 703 571 b 635 772 615 708 581 765 m 552 677 b 578 664 562 676 572 672 b 588 385 628 581 637 470 b 523 392 582 340 508 344 b 542 600 563 453 571 534 b 552 677 524 624 508 674 "},"":{"ha":861,"x_min":0,"x_max":0,"o":"m 583 1029 b 760 998 643 1028 706 1026 b 853 911 799 981 840 955 b 819 760 861 859 847 804 l 730 679 l 724 676 b 694 626 709 665 669 646 b 753 533 717 599 755 571 b 614 339 742 449 676 388 b 410 203 547 293 490 224 b 404 197 385 204 379 184 b 301 158 388 174 336 158 b 102 81 237 127 171 100 b 36 -15 88 44 60 16 b 57 59 8 -10 56 39 b 42 75 66 75 56 82 b 0 78 39 95 3 52 l 98 267 l 188 461 b 338 834 225 590 301 705 b 353 880 324 854 353 859 b 247 828 316 867 281 849 b 175 803 222 821 199 776 b 145 779 163 797 153 789 b 115 767 132 770 123 740 b 102 763 137 782 116 785 b 158 806 99 790 135 815 b 164 823 138 822 174 820 b 222 872 163 839 205 859 b 208 883 250 890 220 886 b 314 956 234 913 282 929 b 583 1029 399 993 491 1016 m 425 750 b 398 691 418 728 400 715 b 383 609 400 667 361 625 b 465 640 410 604 436 633 b 628 729 523 663 587 676 b 703 806 651 756 685 773 b 721 839 719 810 708 854 b 733 894 739 826 753 881 b 710 885 719 915 704 907 b 670 918 699 880 695 923 b 551 913 631 925 590 919 b 541 924 552 921 547 924 b 495 907 527 925 503 913 m 544 551 b 310 489 464 550 392 488 b 165 192 263 390 210 292 b 424 317 259 215 342 269 b 572 426 478 347 524 388 b 618 492 597 439 608 467 b 578 547 640 522 604 541 b 544 551 567 550 555 551 "},"":{"ha":861,"x_min":0,"x_max":0,"o":"m 646 938 l 861 722 l 861 507 l 431 76 l 0 507 l 0 722 l 215 938 l 431 722 "},"":{"ha":861,"x_min":0,"x_max":0,"o":"m 694 411 b 861 244 785 411 861 335 b 694 76 861 153 785 76 b 120 124 622 76 120 124 b 0 268 53 134 0 196 b 34 363 0 301 15 340 l 321 722 l 278 794 l 383 938 l 541 938 l 574 866 l 431 866 l 383 794 l 431 722 l 574 722 l 541 651 l 383 651 l 288 411 l 694 411 m 144 196 b 215 268 182 196 215 229 b 144 340 215 306 182 340 b 72 268 106 340 72 306 b 144 196 72 229 106 196 m 694 148 b 790 244 747 148 790 191 b 694 340 790 297 747 340 b 599 244 642 340 599 297 b 694 148 599 191 642 148 "},"":{"ha":861,"x_min":0,"x_max":0,"o":"m 819 528 b 858 464 844 515 853 494 b 793 399 858 421 836 403 l 793 395 b 776 365 793 382 784 374 b 707 348 754 348 733 343 l 698 348 b 590 331 672 317 625 309 b 582 335 586 331 586 335 b 522 322 565 317 543 317 l 478 335 l 483 331 b 526 257 500 309 513 278 b 526 214 530 240 530 227 b 508 192 526 206 517 197 b 504 188 504 192 504 188 b 461 145 504 158 483 149 b 435 145 453 145 444 149 b 414 133 427 145 422 137 b 363 133 397 124 379 124 b 349 133 358 137 353 137 b 289 154 328 124 298 137 b 267 210 281 167 276 192 b 263 219 267 214 263 214 b 250 201 259 214 255 206 b 156 192 224 176 185 176 b 87 266 134 214 104 240 b 1 520 35 343 5 429 b 78 761 -3 606 22 692 b 298 886 134 830 207 873 b 418 865 336 890 384 886 b 513 748 465 834 496 795 b 522 740 513 744 517 740 b 551 731 530 735 543 735 b 763 843 594 822 702 860 l 754 834 b 711 740 728 808 715 774 l 698 692 b 590 606 676 640 642 615 l 560 606 b 551 610 556 601 551 606 b 543 628 547 615 547 623 b 500 593 513 623 504 615 b 543 589 517 593 530 589 b 776 546 621 576 698 567 b 819 528 793 542 806 533 m 629 644 b 625 649 633 644 633 644 b 599 658 616 653 608 653 b 578 649 586 662 586 662 b 560 666 578 666 573 666 b 556 662 556 666 556 666 b 565 636 560 653 560 644 b 569 632 565 632 569 632 b 629 644 594 632 612 636 m 573 735 b 569 722 573 731 569 726 b 590 709 578 718 582 714 b 672 795 612 748 629 778 b 608 709 642 774 625 740 l 608 701 b 651 666 625 688 638 679 b 659 683 651 671 659 675 b 676 748 668 705 672 726 b 694 808 681 765 681 791 b 707 826 698 817 702 822 b 638 804 681 826 659 817 b 573 735 616 787 590 765 m 457 662 b 517 671 478 658 500 658 b 586 675 539 679 565 679 b 616 666 594 671 608 671 b 594 683 608 671 603 679 b 483 726 560 709 526 722 b 474 722 483 726 474 726 b 457 662 461 705 457 683 m 457 662 b 461 623 457 649 457 636 l 465 623 b 530 653 487 632 513 640 b 535 662 530 653 535 658 b 500 653 522 658 513 653 b 457 662 483 649 470 649 m 328 765 b 250 688 285 765 250 735 b 328 610 250 644 285 610 b 406 688 371 610 406 644 b 328 765 406 731 367 765 m 526 503 b 733 511 594 499 668 507 b 728 515 733 515 728 515 b 586 542 676 524 633 533 l 478 554 l 470 554 b 444 524 461 546 453 537 b 414 477 435 507 427 490 b 298 403 379 438 345 413 b 203 413 263 399 233 403 l 194 413 b 104 395 164 391 134 391 b 56 408 91 399 74 403 b 61 399 56 403 61 403 b 164 278 83 352 117 309 b 336 227 216 240 276 223 b 461 343 401 231 453 278 l 461 356 b 449 399 457 374 453 386 b 530 413 478 378 526 386 b 560 408 539 413 551 408 b 603 425 578 408 590 413 b 612 451 612 429 616 442 l 621 451 b 668 468 638 447 659 456 b 664 481 676 477 672 481 b 586 494 633 485 612 490 b 526 503 569 494 543 499 m 328 644 b 281 688 298 644 281 666 b 323 731 281 708 299 728 b 302 722 315 726 306 726 b 298 701 293 718 293 709 b 345 701 315 692 336 692 b 345 722 353 709 353 718 b 324 731 336 726 332 726 l 328 731 b 375 688 353 731 375 714 b 328 644 375 662 353 644 "},"":{"ha":861,"x_min":0,"x_max":0,"o":"m 195 272 l 78 272 l 78 585 l 0 585 l 0 703 l 78 703 l 78 742 l 195 742 m 469 742 b 700 546 587 742 681 656 l 579 546 b 469 624 563 593 520 624 b 352 507 403 624 352 574 b 469 390 352 440 403 390 l 861 390 l 861 272 l 462 272 b 235 507 336 276 235 381 b 469 742 235 636 340 742 "},"":{"ha":861,"x_min":0,"x_max":0,"o":"m 861 39 b 711 -19 813 13 763 -7 b 549 -40 659 -33 606 -40 b 148 107 380 -40 247 9 b 0 506 49 205 0 338 b 148 906 0 674 49 808 b 549 1053 247 1004 380 1053 b 711 1033 605 1053 659 1047 b 861 975 763 1021 813 1001 l 861 757 b 717 832 813 791 765 816 b 570 856 671 848 622 856 b 350 763 476 856 403 825 b 270 506 297 701 270 615 b 350 250 270 398 297 313 b 570 157 403 188 476 157 b 717 181 622 157 671 165 b 861 256 765 197 813 222 l 861 39 "},"":{"ha":861,"x_min":0,"x_max":0,"o":"m 361 894 b 491 865 409 894 453 885 b 588 798 530 846 563 822 l 481 678 b 428 711 463 692 448 707 b 361 726 409 716 390 726 b 299 711 337 726 318 721 b 246 668 279 702 260 688 b 212 601 231 649 222 630 b 197 509 202 572 197 543 b 246 351 197 438 212 384 b 371 293 279 313 318 293 b 438 308 395 293 419 298 b 491 351 458 317 476 331 l 597 231 b 491 149 563 192 530 168 b 361 119 453 129 409 119 b 222 144 313 119 265 129 b 106 216 178 158 140 182 b 34 346 72 249 53 298 b 0 509 10 389 0 447 b 29 673 0 572 10 625 b 106 793 49 721 72 760 b 222 870 140 827 178 851 b 361 894 265 890 313 894 m 693 635 l 741 635 l 760 750 l 818 750 l 799 635 l 861 635 l 861 581 l 785 581 l 775 505 l 838 505 l 838 451 l 760 451 l 741 336 l 683 336 b 708 451 685 341 708 451 l 660 451 l 640 336 l 583 336 l 601 451 l 544 451 l 544 505 l 616 505 l 626 581 l 563 581 l 563 635 l 635 635 l 655 750 l 713 750 m 717 500 l 726 576 l 678 576 l 669 500 "},"":{"ha":861,"x_min":0,"x_max":0,"o":"m 861 217 l 686 196 b 613 465 686 196 635 392 l 861 494 m 0 110 l 0 401 l 315 435 l 371 158 m 579 716 b 592 840 601 767 601 810 b 694 792 622 831 660 814 b 856 618 788 733 856 618 l 575 583 b 549 669 567 613 558 639 b 579 716 563 682 571 699 m 272 579 b 281 554 277 571 277 563 l 0 519 l 153 639 b 272 579 183 605 222 583 m 473 665 b 605 192 490 605 592 217 b 588 136 609 170 605 153 b 499 106 563 110 528 110 b 456 149 477 102 460 124 b 349 613 447 204 358 575 b 328 626 345 626 336 626 b 238 678 290 626 260 643 b 247 810 213 716 226 776 b 264 814 251 818 264 814 b 285 797 264 814 276 806 b 328 746 298 780 311 763 b 341 746 332 742 336 742 b 413 792 362 758 388 776 b 417 801 422 792 417 797 l 379 878 b 388 903 371 890 375 903 b 499 856 435 912 473 899 b 503 737 524 818 519 776 b 477 694 494 720 485 708 b 473 665 469 686 469 678 "},"":{"ha":861,"x_min":0,"x_max":0,"o":"m 376 440 b 167 471 304 445 235 449 b 72 505 133 479 103 492 b 30 526 56 509 42 517 b 0 586 8 543 0 560 l 0 698 b 21 744 0 715 8 732 b 103 788 42 766 72 779 b 287 826 163 809 226 822 b 463 835 347 831 402 835 b 749 792 561 835 655 822 b 826 753 775 783 801 766 b 861 689 848 740 861 719 l 861 582 b 831 522 861 556 852 535 b 775 492 814 509 792 501 b 758 492 771 488 763 492 b 445 569 655 517 552 543 b 428 574 437 574 433 574 l 428 440 l 376 440 m 342 179 b 128 213 269 183 197 192 b 38 252 98 222 68 239 b 0 325 13 269 0 295 l 0 424 b 149 338 38 372 94 355 b 411 308 235 316 321 308 b 428 290 424 308 428 303 l 428 179 l 342 179 m 856 308 b 831 265 856 290 848 278 b 767 231 809 252 788 239 b 745 231 763 226 753 231 l 437 308 b 428 316 433 308 428 316 l 428 436 b 514 415 458 428 484 424 b 753 355 595 394 672 376 l 771 355 b 856 428 805 376 835 389 l 856 308 "},"":{"ha":861,"x_min":0,"x_max":0,"o":"m 311 353 b 323 365 319 360 319 365 b 681 889 441 540 563 718 b 762 901 705 922 725 925 b 823 856 782 889 806 869 b 835 788 847 836 855 812 b 388 138 685 572 538 353 b 278 125 356 92 315 89 l 19 385 b 19 458 -6 410 -6 434 b 72 511 39 483 59 499 b 153 511 103 544 120 544 l 307 357 b 311 353 307 365 311 357 "},"":{"ha":861,"x_min":0,"x_max":0,"o":"m 856 831 b 861 797 861 823 861 806 l 861 217 b 757 88 852 152 817 109 b 718 78 744 83 731 83 l 138 78 b 8 183 73 88 30 122 b 0 222 4 195 4 208 l 0 801 b 108 931 13 862 47 905 b 147 935 117 935 134 935 l 726 935 b 856 831 792 926 835 892 m 761 767 b 675 836 753 810 718 836 l 194 836 b 147 823 177 836 160 831 b 103 745 117 806 103 780 l 103 247 b 194 178 113 204 147 178 l 692 178 b 761 269 735 187 761 222 l 761 767 "},"":{"ha":861,"x_min":0,"x_max":0,"o":"m 464 938 b 531 928 488 933 507 933 b 689 856 588 914 641 890 b 779 760 727 828 756 799 b 856 569 822 703 847 641 b 861 535 856 560 861 550 l 861 474 b 851 421 856 454 856 435 b 779 258 837 363 813 306 b 650 139 746 210 703 172 b 483 81 598 110 545 86 b 454 76 474 81 464 76 l 392 76 b 340 86 373 81 353 81 b 176 158 282 100 224 124 b 57 287 128 191 90 234 b 0 454 28 340 4 392 b 0 483 4 459 0 469 l 0 540 b 9 608 4 565 4 583 b 81 765 24 665 47 717 b 210 880 115 813 163 851 b 368 933 258 909 310 928 b 406 938 383 933 392 938 l 464 938 m 421 866 b 72 497 229 861 67 703 b 435 143 76 301 239 143 b 794 517 636 143 799 310 b 421 866 789 708 626 871 m 431 790 b 449 770 440 790 449 782 l 449 507 b 483 531 459 517 473 522 b 607 617 526 560 569 588 b 617 626 612 622 617 622 b 650 622 626 636 641 631 b 646 588 660 613 655 598 l 598 555 b 492 478 564 531 526 507 b 440 440 474 464 459 454 b 406 454 426 431 406 440 l 406 765 b 426 789 406 780 411 789 b 431 790 427 790 429 790 "},"":{"ha":861,"x_min":0,"x_max":0,"o":"m 428 940 b 860 512 666 940 856 749 b 856 459 860 497 856 478 b 799 360 847 412 823 378 b 661 317 761 326 708 317 l 623 317 b 704 512 670 369 704 435 b 433 783 704 659 585 783 b 323 759 394 783 356 774 b 309 769 319 764 314 764 b 199 792 290 778 247 792 b 81 759 162 792 119 783 b 428 940 157 869 285 940 m 204 716 b 252 712 219 716 238 716 b 161 507 199 659 161 588 b 433 235 161 360 281 235 b 551 265 476 235 513 245 b 628 250 571 260 599 255 b 661 240 638 250 647 250 b 780 255 699 240 737 245 b 428 74 699 145 571 74 b 0 502 190 74 0 265 b 4 550 0 522 -1 531 b 204 716 42 674 124 716 m 299 697 b 338 674 309 688 323 678 b 390 574 356 649 376 612 b 399 545 394 564 394 554 b 299 326 347 435 314 383 b 204 512 242 369 204 435 b 299 697 204 588 242 654 m 409 502 b 480 307 438 407 456 350 l 494 293 b 423 283 471 288 447 283 b 347 298 399 283 371 288 l 347 317 b 352 355 347 331 347 345 b 394 474 356 388 376 435 l 409 502 "},"":{"ha":861,"x_min":0,"x_max":0,"o":"m 481 284 b 465 287 474 277 470 282 l 301 444 l 288 457 b 217 390 263 435 240 413 b 111 288 182 356 146 322 b 90 288 103 280 98 279 b 0 374 62 315 33 342 b 22 390 8 380 15 384 l 278 635 b 297 636 285 642 289 643 l 563 380 b 571 371 566 377 568 374 m 861 464 l 763 370 l 576 550 l 510 487 l 413 580 l 576 737 "},"":{"ha":861,"x_min":0,"x_max":0,"o":"m 553 974 b 694 939 603 974 652 961 b 804 842 738 916 776 883 b 861 661 840 792 861 728 b 844 560 861 626 856 592 b 766 435 828 512 801 469 b 640 362 731 401 688 376 b 553 349 613 353 583 349 b 495 354 533 349 514 351 b 404 388 463 360 432 372 l 98 40 l 63 72 l 62 70 l 19 108 l 20 108 l 0 126 l 306 474 b 247 615 276 515 256 563 b 244 662 245 630 244 646 b 271 790 244 708 253 751 b 385 924 296 845 335 891 b 553 974 435 957 493 974 l 553 974 m 553 872 b 406 810 496 872 443 848 b 344 660 368 772 344 719 b 360 580 344 632 350 605 b 438 485 376 541 403 508 b 553 450 472 463 513 450 b 702 512 612 450 664 474 b 763 661 740 550 763 603 b 728 778 763 704 750 744 b 634 856 705 813 672 840 b 553 872 609 865 582 872 "},"":{"ha":861,"x_min":0,"x_max":0,"o":"m 467 833 b 604 833 504 842 576 838 b 604 733 676 809 676 747 b 471 762 542 719 471 738 b 514 771 471 781 495 781 b 599 771 533 752 581 757 b 576 804 624 785 614 799 b 419 766 538 809 476 794 b 324 738 381 742 362 738 b 228 766 272 733 252 742 b 224 799 219 781 219 785 b 333 819 238 824 305 838 b 300 804 347 809 338 804 b 252 776 257 804 238 794 b 357 785 267 762 319 766 b 466 833 428 819 442 828 l 467 833 m 62 771 b 95 776 90 790 100 790 b 90 752 90 771 90 757 b 267 690 95 728 185 695 b 333 685 290 690 324 685 b 571 685 362 681 519 681 b 814 771 714 695 823 733 b 851 752 804 799 838 781 b 818 699 861 738 847 714 b 676 657 799 685 709 662 b 619 647 666 652 638 652 b 281 647 571 642 333 642 b 128 676 200 657 181 662 b 38 742 72 695 33 724 b 62 771 38 747 48 762 m 48 642 b 52 667 43 671 48 671 b 172 619 67 657 138 624 b 210 614 185 619 200 614 b 633 604 276 600 547 595 b 842 662 738 614 818 638 b 856 662 856 676 856 676 b 799 481 856 638 823 533 b 733 372 790 452 756 405 b 676 276 709 338 681 295 b 447 172 647 200 590 172 b 224 272 305 172 252 195 b 167 372 219 290 195 333 b 105 467 143 410 115 452 l 85 495 b 72 476 85 495 76 485 b 67 367 57 452 52 400 b 162 281 81 328 128 285 b 128 262 205 276 185 262 b 57 281 90 262 81 262 b 0 395 10 315 0 338 b 19 476 0 438 5 447 b 57 519 28 490 48 509 l 76 533 l 62 571 b 48 642 57 595 48 624 "},"":{"ha":861,"x_min":0,"x_max":0,"o":"m 239 560 b 242 563 242 560 246 560 b 313 490 319 563 313 577 b 284 461 313 468 306 461 b 179 454 249 458 214 461 b 119 384 140 444 119 419 b 172 321 119 352 137 328 b 372 314 239 307 306 303 b 453 363 403 321 432 338 b 544 549 499 415 520 483 b 650 746 572 619 604 686 b 822 824 692 799 756 816 b 843 806 836 824 843 816 l 843 774 b 836 715 843 753 847 728 b 783 693 829 693 801 700 b 674 588 731 676 696 637 b 692 563 667 567 674 563 l 710 563 b 763 553 727 560 752 574 b 766 472 776 528 769 500 b 741 458 766 458 752 458 b 660 458 713 458 688 454 b 608 419 632 458 618 447 b 544 303 594 377 572 338 b 333 190 492 233 422 194 l 193 190 b 21 296 115 194 56 226 b 45 500 -15 367 -4 437 b 193 560 81 549 137 553 b 239 560 207 563 224 560 "},"":{"ha":861,"x_min":0,"x_max":0,"o":"m 823 449 b 847 397 851 439 856 420 b 814 308 838 364 823 336 b 763 285 804 285 785 275 b 711 303 749 290 730 299 b 683 271 701 294 692 280 b 650 238 674 261 664 247 b 645 228 645 238 645 233 b 669 177 655 210 659 196 b 650 130 678 158 669 140 b 556 88 617 116 589 102 b 510 107 538 83 519 88 b 486 158 500 126 496 140 b 477 163 481 158 481 163 b 383 158 444 163 416 158 b 365 107 378 144 369 126 b 313 83 355 78 341 74 b 224 116 281 93 252 107 b 201 167 201 126 192 144 b 224 224 210 186 215 205 b 192 252 215 233 201 242 b 158 285 182 261 168 271 b 149 290 158 290 154 290 b 98 266 131 280 117 275 b 51 285 79 256 60 266 b 9 378 37 317 23 345 b 28 425 4 397 9 416 b 79 449 47 435 60 439 b 84 458 79 453 84 453 b 79 551 84 490 79 519 b 28 570 65 556 47 565 b 4 622 -1 579 -5 594 b 37 706 13 650 28 683 b 88 729 47 729 65 739 b 140 710 103 724 121 715 b 177 753 154 724 163 739 b 201 776 182 762 192 767 b 206 785 206 776 206 781 b 182 837 196 804 192 818 b 201 884 173 856 182 874 b 294 926 233 898 262 912 b 341 907 313 931 332 926 b 365 856 351 888 355 874 b 374 851 369 856 369 851 b 467 856 407 851 435 856 b 486 907 472 869 481 888 b 538 931 496 931 515 940 b 626 902 566 921 599 907 b 650 851 650 893 659 874 b 626 794 640 832 636 813 b 659 767 636 785 650 776 b 692 734 669 758 683 748 b 701 729 692 729 697 729 b 753 753 720 739 734 743 b 800 734 772 762 790 753 b 842 640 814 701 828 673 b 823 594 847 622 842 603 b 772 570 804 584 790 579 b 767 561 772 565 767 565 b 772 467 767 528 772 500 b 823 449 785 463 804 453 m 496 350 b 585 579 585 392 622 490 b 355 668 542 668 444 706 b 266 439 266 626 228 528 b 496 350 308 350 407 313 "},"":{"ha":861,"x_min":0,"x_max":0,"o":"m 363 897 b 494 867 412 897 455 887 b 590 799 533 848 567 824 l 484 678 b 431 713 465 693 450 708 b 363 727 412 717 392 727 b 300 713 339 727 319 722 b 247 669 281 703 262 688 b 213 601 233 650 223 631 b 199 509 203 572 199 543 b 247 350 199 437 213 383 b 373 292 281 311 319 292 b 440 306 397 292 422 297 b 494 350 460 316 479 331 l 600 228 b 494 147 567 190 533 166 b 363 117 455 127 412 117 b 223 142 315 117 267 127 b 107 215 179 156 140 181 b 34 345 73 248 53 297 b 0 509 10 393 0 447 b 29 674 0 572 10 626 b 107 795 49 722 73 761 b 223 872 140 828 179 853 b 363 897 267 892 315 897 m 769 558 l 861 558 l 861 476 l 769 476 l 769 374 l 688 374 l 688 476 l 595 476 l 595 558 l 688 558 l 688 654 l 769 654 m 479 553 l 557 553 l 557 485 l 479 485 l 479 398 l 412 398 l 412 485 l 334 485 l 334 553 l 412 553 l 412 635 l 479 635 "},"":{"ha":861,"x_min":0,"x_max":0,"o":"m 861 258 l 431 10 l 0 258 l 0 756 l 431 1004 l 861 756 m 352 301 l 406 356 l 235 497 l 406 636 l 352 690 l 121 496 m 626 495 l 456 356 l 510 301 l 740 496 l 510 690 l 456 636 "},"":{"ha":861,"x_min":0,"x_max":0,"o":"m 0 316 l 0 438 l 173 438 l 202 582 l 51 582 l 51 703 l 231 703 l 277 929 l 439 929 l 392 703 l 554 703 l 601 929 l 763 929 l 716 703 l 861 703 l 861 582 l 693 582 l 658 438 l 809 438 l 809 316 l 635 316 l 589 85 l 427 85 l 474 316 l 312 316 l 265 85 l 98 85 l 144 316 m 364 582 l 335 438 l 497 438 l 526 582 "},"":{"ha":861,"x_min":0,"x_max":0,"o":"m 861 81 l 0 81 l 0 933 l 861 933 m 383 694 l 383 756 l 138 756 l 138 694 m 717 694 l 717 756 l 474 756 l 474 694 m 383 550 l 383 613 l 138 613 l 138 550 m 717 550 l 717 613 l 474 613 l 474 550 m 383 406 l 383 469 l 138 469 l 138 406 m 717 406 l 717 469 l 474 469 l 474 406 m 383 263 l 383 325 l 138 325 l 138 263 m 717 263 l 717 325 l 474 325 l 474 263 "},"":{"ha":861,"x_min":0,"x_max":0,"o":"m 354 947 b 590 851 437 951 520 922 l 483 730 b 493 401 92 991 126 101 l 599 280 b 0 560 377 23 0 236 b 354 947 0 776 174 940 m 861 449 l 822 449 l 808 497 l 740 497 l 726 449 l 687 449 l 754 657 l 793 657 m 395 544 b 397 509 395 526 395 515 b 407 488 398 500 401 493 b 430 481 413 483 420 481 l 431 481 b 449 486 438 481 444 483 b 459 501 454 490 458 494 b 462 541 461 507 462 521 l 462 656 l 497 656 l 497 547 b 492 487 497 519 495 499 b 472 457 490 474 483 465 b 431 445 461 449 448 445 b 389 455 413 445 399 449 b 367 482 379 461 372 470 b 360 546 363 494 360 515 l 360 656 l 395 656 l 395 544 m 595 656 b 631 651 611 656 623 655 b 653 633 639 648 647 642 b 669 601 660 625 665 614 b 675 551 673 587 675 570 b 669 503 675 533 673 517 b 653 472 665 490 660 480 b 631 455 647 465 639 458 b 597 449 622 451 610 449 l 533 449 l 533 656 l 595 656 m 592 484 b 617 487 603 484 611 485 b 628 497 622 489 626 492 b 636 516 632 501 635 507 b 639 552 638 526 639 537 b 636 588 639 567 638 580 b 626 609 635 596 631 603 b 609 619 622 614 616 617 b 581 621 604 621 595 621 l 567 621 l 567 484 l 592 484 m 798 531 l 774 608 l 749 531 "},"":{"ha":861,"x_min":0,"x_max":0,"o":"m 861 519 b 717 168 861 369 815 249 b 292 48 620 88 482 48 l 0 48 l 0 966 l 327 966 b 723 846 499 966 631 926 b 861 519 815 771 861 656 m 631 513 b 333 811 631 708 534 811 l 218 811 l 218 208 l 316 208 b 631 513 528 208 631 306 "},"":{"ha":861,"x_min":0,"x_max":0,"o":"m 701 226 l 701 79 l 344 79 l 47 376 b 8 497 13 406 -13 453 b 144 782 52 592 99 687 b 401 911 229 826 315 868 b 523 903 438 935 490 933 b 848 578 632 795 740 686 l 848 226 m 190 785 l 370 785 b 617 784 452 785 535 787 l 524 876 b 418 899 499 907 453 919 m 160 754 l 160 372 b 175 275 163 340 153 302 b 351 98 233 215 293 157 l 682 98 l 682 232 "},"":{"ha":861,"x_min":0,"x_max":0,"o":"m 451 611 b 104 640 332 611 218 616 b 20 670 74 646 49 660 b 0 700 5 675 0 685 l 0 873 b 15 893 0 883 5 893 b 114 928 49 908 79 923 b 480 958 238 958 356 958 b 777 923 579 958 683 947 b 842 898 797 917 822 908 b 861 868 856 893 861 883 l 861 695 b 847 670 861 685 851 675 b 787 646 826 660 807 651 b 579 616 717 635 649 621 b 451 611 535 611 490 616 m 861 423 b 837 398 861 413 847 398 b 742 368 807 388 772 374 b 317 344 604 344 460 339 b 74 378 238 349 153 353 b 15 403 55 383 35 393 b 0 428 5 408 0 418 l 0 601 b 431 547 144 551 288 547 b 861 601 574 542 717 551 l 861 423 m 861 151 b 837 121 861 141 847 126 b 717 86 797 106 758 91 b 119 91 519 56 322 56 b 20 121 84 97 49 111 b 0 156 5 126 0 136 l 0 324 b 431 269 139 274 282 269 b 861 324 574 269 717 274 l 861 151 "},"":{"ha":861,"x_min":0,"x_max":0,"o":"m 861 313 l 0 313 l 0 428 l 861 428 m 481 586 l 0 586 l 0 701 l 481 701 m 861 858 l 0 858 l 0 973 l 861 973 m 640 41 l 0 41 l 0 156 l 640 156 "},"":{"ha":861,"x_min":0,"x_max":0,"o":"m 850 606 b 841 592 845 601 845 597 b 794 535 826 573 808 554 b 765 478 780 521 765 502 b 756 469 765 474 760 474 b 460 427 657 446 558 432 b 248 441 389 427 319 427 l 97 469 b 88 474 92 469 88 474 b 55 535 88 502 74 521 b 13 573 41 549 26 559 b 36 648 -11 601 -1 634 b 140 690 69 663 107 672 b 309 790 196 719 253 756 b 422 846 347 817 380 836 l 436 846 b 544 799 474 836 511 817 b 624 747 572 785 601 766 b 808 658 685 714 742 681 b 850 620 831 653 845 644 l 850 606 m 431 676 b 351 639 399 676 370 658 b 347 629 351 639 347 634 b 389 531 351 592 365 559 b 413 512 394 521 403 517 b 469 531 436 502 455 512 b 511 629 492 559 507 592 b 507 639 511 634 511 634 b 431 676 488 658 465 676 m 417 168 b 351 178 394 173 375 173 b 168 286 276 192 219 229 b 97 390 140 319 116 351 b 92 399 97 394 92 394 l 92 403 b 765 403 319 347 540 347 l 765 394 b 572 201 723 309 662 239 b 450 173 535 182 492 173 l 441 173 b 417 168 431 168 422 168 "},"":{"ha":861,"x_min":0,"x_max":0,"o":"m 432 706 l 358 706 l 358 781 l 432 781 m 257 621 l 183 621 l 183 695 l 257 695 m 347 621 l 272 621 l 272 695 l 347 695 m 432 621 l 358 621 l 358 695 l 432 695 m 680 685 b 708 669 688 685 699 681 b 742 624 723 658 734 643 b 779 602 749 606 760 599 b 827 594 794 602 813 599 b 835 546 857 587 861 565 b 820 528 831 542 824 535 b 753 505 801 513 779 509 b 719 479 738 501 726 494 b 644 367 701 438 674 401 b 376 233 570 289 485 237 l 208 233 b 15 382 115 240 52 300 b 0 483 3 408 0 464 b 11 520 0 501 3 520 b 619 528 11 520 578 516 b 649 576 652 535 656 542 b 652 658 644 602 644 632 b 680 685 658 675 668 684 m 172 531 l 97 531 l 97 606 l 172 606 m 257 531 l 183 531 l 183 606 l 257 606 m 347 531 l 272 531 l 272 606 l 347 606 m 432 531 l 358 531 l 358 606 l 432 606 m 522 531 l 447 531 l 447 606 l 522 606 m 272 404 b 242 374 257 404 242 393 b 272 344 242 356 257 344 b 302 374 290 344 302 356 b 272 404 302 393 287 404 m 204 332 b 175 326 195 332 185 330 b 90 322 149 319 119 326 b 317 248 145 267 235 237 b 253 297 291 263 265 274 b 204 332 240 322 224 332 "},"":{"ha":861,"x_min":0,"x_max":0,"o":"m 747 715 b 721 513 794 668 783 577 b 609 456 688 480 647 460 b 608 453 609 455 608 454 b 51 114 584 346 170 29 b 147 741 -67 198 41 658 b 160 844 143 772 147 808 b 323 964 191 931 264 985 b 375 772 381 943 403 858 b 487 729 424 762 466 744 b 538 678 502 719 520 701 b 545 685 540 681 542 683 b 747 715 608 750 698 763 "},"":{"ha":861,"x_min":0,"x_max":0,"o":"m 620 993 b 730 874 683 995 736 936 l 730 131 b 593 22 733 56 659 15 l 110 22 b 1 158 36 19 -6 92 l 1 890 b 120 993 3 950 60 999 l 620 993 m 785 361 b 847 342 808 362 835 365 b 851 271 856 319 849 294 b 818 216 854 247 847 217 b 778 216 805 215 792 216 l 778 361 m 785 556 b 847 537 808 556 835 560 b 851 465 856 514 849 489 b 818 410 854 442 847 412 b 778 410 805 410 792 410 l 778 556 m 794 750 b 813 750 801 750 807 751 b 847 731 827 749 840 745 b 851 660 856 708 849 683 b 818 605 854 636 847 606 l 778 604 l 778 750 m 208 824 b 171 764 174 824 169 789 b 176 695 173 741 167 717 b 250 677 192 669 225 679 l 524 677 b 560 739 558 677 562 713 b 549 813 558 764 567 792 b 524 824 542 819 533 824 l 208 824 "},"":{"ha":861,"x_min":0,"x_max":0,"o":"m 0 -6 l 0 567 l 144 567 l 144 580 l 145 710 b 148 752 145 724 146 738 b 477 994 170 910 320 1019 b 719 711 616 972 719 851 l 719 567 l 861 567 l 861 -6 m 575 567 b 576 574 575 571 576 573 l 575 715 b 572 739 575 722 574 731 b 413 853 557 815 492 861 b 288 710 342 847 288 783 l 288 567 l 575 567 "},"":{"ha":861,"x_min":0,"x_max":0,"o":"m 791 763 b 858 692 831 763 861 731 l 858 148 l 0 148 l 0 866 l 365 866 b 435 796 404 866 435 835 l 435 763 l 791 763 "},"":{"ha":861,"x_min":0,"x_max":0,"o":"m 324 719 l 81 507 l 324 294 l 324 152 l 0 451 l 0 563 l 324 862 m 537 289 l 785 502 l 785 507 l 537 719 l 537 867 l 861 568 l 861 446 l 537 147 "},"":{"ha":861,"x_min":0,"x_max":0,"o":"m 601 684 b 801 395 681 598 776 515 b 764 120 819 303 801 206 b 458 -91 711 0 588 -82 b 108 63 326 -101 184 -49 b 39 451 30 175 13 319 b 262 944 73 630 154 797 b 449 1115 314 1010 371 1080 b 492 840 444 1022 458 927 b 238 743 399 850 294 823 b 217 553 201 689 189 613 b 360 458 247 501 308 482 b 452 378 398 443 446 426 b 380 277 461 331 426 287 b 146 343 297 256 209 289 l 120 210 b 485 203 232 161 374 139 b 583 392 551 241 588 317 b 490 536 585 453 544 508 b 334 625 439 566 374 577 b 381 724 311 663 344 710 b 560 710 438 746 505 736 b 601 684 574 704 592 685 m 340 13 b 474 0 384 6 430 -11 b 427 65 517 27 455 60 b 187 106 349 88 268 97 b 340 13 230 65 283 29 "},"":{"ha":861,"x_min":0,"x_max":0,"o":"m 0 167 b 241 550 81 296 159 421 b 431 851 306 649 366 752 l 431 847 b 689 438 517 709 603 572 b 861 163 744 348 805 257 b 0 167 572 167 288 167 m 474 386 l 474 644 l 388 644 l 388 386 m 388 343 l 388 257 l 474 257 l 474 343 "},"":{"ha":861,"x_min":0,"x_max":0,"o":"m 861 507 l 669 140 l 208 140 l 0 507 l 208 874 l 669 874 m 175 356 l 432 209 l 690 356 l 690 646 l 432 805 l 175 646 m 603 405 l 432 307 l 261 405 l 261 601 l 432 707 l 603 601 "},"":{"ha":861,"x_min":0,"x_max":0,"o":"m 433 1115 b 683 699 517 974 600 840 b 785 533 722 642 753 590 l 785 526 b 433 322 664 463 549 392 l 427 322 l 197 456 b 88 533 158 481 113 501 l 88 539 b 203 725 126 597 165 660 b 306 897 235 783 274 840 b 415 1083 338 962 376 1019 b 433 1115 421 1096 427 1103 m 75 392 b 101 379 88 385 94 385 b 274 276 158 347 216 308 b 427 187 324 244 376 219 b 472 213 440 193 459 206 b 785 392 574 276 677 334 b 670 231 747 340 709 283 b 433 -101 594 123 510 8 b 427 -95 427 -101 427 -95 b 267 129 376 -18 318 52 b 126 322 216 193 171 257 b 75 392 107 347 94 366 "},"":{"ha":861,"x_min":0,"x_max":0,"o":"m 206 512 l 411 306 l 411 100 l 0 512 l 406 918 l 406 713 m 440 96 l 440 301 l 646 507 l 440 713 l 440 918 l 861 512 m 263 512 l 411 660 l 411 368 "},"":{"ha":861,"x_min":0,"x_max":0,"o":"m 861 601 l 646 395 l 697 98 l 431 235 l 163 98 l 215 395 l 0 601 l 297 644 l 431 916 l 564 644 "},"":{"ha":861,"x_min":0,"x_max":0,"o":"m 167 1103 b 186 1085 173 1102 180 1097 l 335 785 l 392 913 b 445 913 407 939 431 939 l 553 699 l 696 842 b 745 826 717 863 740 856 l 861 151 l 476 -79 b 427 -90 463 -86 427 -90 b 382 -79 427 -90 394 -85 l 0 146 l 149 1079 b 167 1103 153 1096 159 1103 "},"":{"ha":861,"x_min":0,"x_max":0,"o":"m 428 927 b 647 860 505 926 583 904 b 499 901 598 874 549 892 b 190 834 392 924 277 900 b 126 801 167 828 147 776 b 428 927 203 884 316 928 m 581 868 b 681 822 617 858 651 844 b 779 722 718 793 751 759 b 720 801 765 751 743 777 b 708 833 706 804 683 853 b 753 802 724 828 745 790 b 833 638 801 762 830 701 b 841 598 836 623 825 560 b 853 586 849 627 851 602 b 860 510 860 561 861 536 b 828 409 854 476 843 441 b 819 328 810 384 829 355 b 718 208 801 277 762 236 b 646 140 686 194 676 156 b 515 105 605 119 559 112 b 453 88 496 97 423 110 b 347 107 417 85 382 98 b 344 98 319 116 370 92 b 179 181 283 110 229 145 b 15 453 90 243 31 345 b 3 444 14 481 8 459 b 11 561 1 483 6 522 b 0 557 17 584 8 562 b 37 665 12 593 19 631 b 202 773 66 728 130 779 b 222 733 233 778 227 754 b 335 815 249 771 286 811 b 339 796 360 819 353 808 b 309 613 295 749 272 672 b 324 540 326 593 335 565 b 203 557 298 578 239 588 b 210 386 151 514 160 427 b 178 494 185 415 168 456 b 284 553 185 540 241 580 b 263 498 283 541 261 519 b 306 363 253 449 267 395 b 399 322 328 335 365 328 b 388 314 428 313 400 314 b 483 299 413 290 451 293 b 534 299 499 297 543 324 b 588 328 556 304 577 358 b 644 412 620 342 636 379 b 662 465 651 426 653 467 b 674 469 669 444 672 451 b 674 594 687 510 678 553 b 708 578 663 638 706 577 b 626 779 715 653 683 730 b 697 748 640 785 679 765 b 581 868 672 799 624 833 m 97 845 b 124 783 98 822 107 799 b 54 726 113 768 71 751 b 97 845 56 769 67 813 m 313 710 b 386 697 331 690 362 699 b 409 652 417 706 428 673 b 335 608 388 633 359 624 b 313 710 310 634 301 676 m 279 481 b 295 472 285 478 290 475 b 409 458 327 448 373 434 b 513 444 441 476 489 474 b 465 404 534 405 478 429 b 332 366 428 373 379 357 b 279 481 293 388 271 437 "},"":{"ha":861,"x_min":0,"x_max":0,"o":"m 501 425 l 631 717 l 636 717 l 790 362 b 828 297 805 329 819 306 b 861 287 838 292 847 287 l 861 273 l 650 273 l 650 287 l 669 287 b 706 297 688 287 697 292 b 716 310 711 301 716 306 l 716 324 b 706 348 716 324 711 334 l 674 399 l 519 399 l 515 391 l 538 338 b 590 231 561 283 580 249 b 641 208 599 212 617 208 l 641 184 l 337 184 l 337 208 b 397 217 369 208 388 212 b 412 245 407 222 412 231 b 404 273 412 253 408 262 l 402 273 l 402 278 b 388 310 397 287 393 297 l 365 367 l 154 367 b 126 292 140 329 131 306 b 112 240 117 268 112 249 b 140 212 112 226 122 217 b 187 208 149 208 168 208 l 187 184 l 0 184 l 0 208 b 56 240 23 208 42 222 b 93 319 65 254 79 278 l 299 830 l 327 830 m 351 404 l 262 619 l 252 619 l 168 404 m 665 427 l 599 577 l 533 427 "},"":{"ha":861,"x_min":0,"x_max":0,"o":"m 0 509 b 34 563 5 533 19 543 l 274 803 b 279 798 274 803 279 803 l 366 711 b 366 697 370 707 370 702 b 394 625 361 668 370 640 b 404 606 404 620 404 615 l 404 394 b 394 375 404 384 399 379 b 366 303 370 360 356 331 b 428 254 375 274 399 254 b 491 298 457 254 481 274 b 467 375 500 326 491 356 b 457 394 457 379 457 384 l 457 610 l 462 610 l 539 533 b 544 524 544 528 544 524 l 544 495 b 621 438 549 456 582 433 b 678 519 659 442 688 481 b 601 572 674 553 635 576 b 582 576 597 572 592 572 l 500 658 b 496 673 496 663 496 668 b 419 750 505 716 462 760 b 404 755 414 750 404 750 b 317 837 375 783 347 813 b 317 851 313 841 313 846 b 380 913 342 870 361 894 b 467 913 409 942 438 942 l 832 548 b 832 461 861 519 861 490 l 481 110 b 428 72 467 96 452 76 l 419 72 b 385 91 409 76 394 81 b 294 182 356 119 322 149 l 29 447 b 0 495 24 461 5 476 l 0 509 "},"":{"ha":861,"x_min":0,"x_max":0,"o":"m 485 310 b 509 224 509 285 513 257 l 509 127 b 541 103 509 103 521 94 b 801 582 736 168 854 379 b 330 878 744 790 541 919 b 1 505 147 842 9 692 b 180 151 -7 355 58 237 b 277 103 213 131 244 115 b 306 119 294 99 306 107 l 306 197 b 249 192 285 192 265 192 b 163 249 208 197 180 213 b 119 306 156 274 139 294 l 110 314 b 115 326 107 318 107 326 l 135 326 b 192 285 163 322 180 306 b 306 253 220 241 265 237 b 310 257 306 253 310 253 b 334 306 314 274 322 294 b 281 318 314 310 297 314 b 160 424 220 334 180 367 b 151 468 156 440 156 452 b 188 610 143 517 151 570 l 188 619 b 188 704 180 647 180 676 b 213 720 192 724 192 724 b 297 683 244 716 269 700 b 310 680 301 680 306 680 b 501 680 375 696 435 696 b 513 683 505 680 509 680 b 553 708 525 692 538 700 b 606 724 569 716 586 724 b 618 716 615 724 618 720 b 622 623 631 683 631 655 b 626 610 622 619 622 615 b 659 549 643 590 655 574 b 643 399 672 497 667 448 b 533 318 622 355 582 331 b 484 310 517 314 501 314 l 485 310 "},"":{"ha":861,"x_min":0,"x_max":0,"o":"m 160 977 b 175 963 166 977 173 972 l 270 613 l 585 613 l 680 963 b 711 963 685 981 706 981 l 806 613 l 853 437 b 842 393 858 421 853 403 l 428 33 l 13 393 b 1 437 2 403 -3 421 l 49 613 l 144 963 b 160 977 147 972 153 977 "},"":{"ha":861,"x_min":0,"x_max":0,"o":"m 426 1081 b 676 984 517 1083 621 1063 b 743 653 746 888 740 766 b 752 328 744 545 749 437 b 692 96 752 248 740 163 b 589 17 667 60 626 40 b 315 -11 503 -17 406 -19 b 174 52 261 -8 213 16 b 78 176 120 65 90 126 b 79 510 67 287 77 398 b 69 641 84 553 74 597 b 132 988 59 758 60 888 b 426 1081 206 1070 323 1079 m 522 1037 b 439 988 489 1035 456 1017 b 524 828 392 926 447 824 b 636 917 577 823 635 860 b 522 1037 649 983 585 1040 m 697 1036 b 772 998 726 1037 760 1027 b 722 925 802 967 738 867 b 726 984 701 947 740 961 b 697 1036 693 979 631 1034 m 538 1025 b 573 1014 550 1024 562 1020 b 591 858 633 988 647 895 b 433 913 537 817 449 845 b 538 1025 418 974 477 1031 m 264 1024 b 158 938 215 1026 162 988 b 219 826 151 892 175 844 b 372 901 278 796 360 835 b 264 1024 385 965 327 1027 m 88 1019 b 110 979 128 1018 144 1012 b 78 931 87 977 46 958 b 29 910 90 900 49 871 b 88 1019 -8 953 32 1023 m 268 1012 b 293 1008 276 1011 285 1010 b 338 859 360 997 384 906 b 170 901 290 803 183 826 b 268 1012 155 959 209 1018 m 475 958 b 449 907 453 955 433 928 b 475 958 492 847 554 960 m 204 950 b 213 882 166 940 170 879 b 204 950 265 879 253 960 m 397 860 b 379 857 391 860 385 859 b 329 756 356 834 290 793 b 354 706 371 762 353 732 b 408 691 356 658 397 700 b 451 746 450 659 458 716 b 486 797 462 755 509 762 b 397 860 454 818 441 862 m 439 820 b 448 759 471 813 503 756 b 329 774 411 792 360 741 b 439 820 327 851 406 778 m 397 760 b 399 748 401 758 398 752 b 363 704 404 724 388 666 b 397 760 358 731 362 763 m 413 760 b 445 708 442 759 449 733 b 413 760 424 657 392 733 m 765 537 b 817 513 783 533 804 528 b 794 497 837 483 811 490 b 768 484 833 481 787 460 b 765 537 748 490 753 528 m 58 528 b 28 458 89 511 55 463 b 11 483 -21 456 47 501 b 58 528 -24 488 34 533 m 672 55 b 722 3 699 52 714 26 b 697 -3 726 -53 675 48 b 656 -1 726 -44 664 -30 b 672 55 610 13 634 54 m 157 50 b 200 7 171 53 225 13 b 118 -10 177 -5 105 -69 b 105 -21 148 26 110 3 b 157 50 76 1 128 47 "},"":{"ha":861,"x_min":0,"x_max":0,"o":"m 404 671 b 490 645 435 672 465 663 b 529 583 506 631 540 601 b 451 565 503 578 476 565 b 353 578 429 595 383 600 b 340 444 308 552 293 476 b 449 477 376 419 428 439 l 376 477 b 388 540 341 477 378 526 b 515 541 430 542 472 540 b 547 585 536 539 532 574 b 708 667 581 640 646 668 b 847 535 780 668 848 608 b 695 357 854 447 779 369 b 524 455 624 342 543 383 b 351 355 493 391 422 348 b 224 492 282 359 222 422 b 404 671 222 588 310 671 m 694 592 b 659 583 681 591 669 588 b 629 449 608 563 583 485 b 762 501 676 410 750 447 b 694 592 776 544 740 595 m 207 590 b 214 575 223 594 226 585 b 75 575 168 574 121 575 b 74 590 56 569 62 585 l 207 590 m 182 552 b 198 538 194 554 209 552 b 13 537 136 536 74 538 b 12 552 -7 531 -1 547 l 182 552 m 173 514 b 192 499 185 516 200 515 b 115 499 166 497 140 499 b 108 514 98 494 95 506 l 173 514 "},"":{"ha":861,"x_min":0,"x_max":0,"o":"m 343 913 b 386 830 359 886 374 858 b 431 833 401 833 415 833 l 431 833 b 476 830 447 833 461 833 b 518 913 488 858 503 886 b 633 874 558 904 597 892 b 626 779 633 842 630 810 b 668 751 640 770 655 763 b 708 719 682 742 696 731 b 784 764 732 735 758 751 b 861 663 813 733 840 700 b 809 588 847 640 828 613 l 809 378 l 809 360 l 808 360 l 808 360 l 667 346 b 654 332 660 345 655 340 l 650 270 l 528 262 l 519 319 b 505 331 519 326 512 331 l 357 331 b 342 319 349 331 343 326 l 334 262 l 212 270 l 208 332 b 194 346 207 340 201 345 l 54 360 l 53 360 l 53 588 b 0 663 36 609 17 636 b 78 764 22 700 49 733 b 154 719 104 751 130 735 b 194 751 166 731 180 742 b 235 779 207 763 222 770 b 228 874 231 810 229 842 b 343 913 265 892 304 904 m 233 579 b 149 495 186 579 149 542 b 233 411 149 449 186 411 b 317 495 279 411 317 449 b 233 579 317 542 279 579 m 629 579 b 545 495 583 579 545 542 b 629 411 545 449 583 411 b 713 495 676 411 713 449 b 629 579 713 542 676 579 m 611 545 b 565 490 585 540 565 517 l 565 488 b 621 433 565 458 590 433 b 677 488 652 433 677 458 l 677 490 b 621 546 677 521 652 546 b 611 545 617 546 615 546 m 231 544 b 185 490 206 539 185 517 l 185 490 b 241 433 185 459 210 433 b 297 490 272 433 297 459 l 297 490 b 241 544 296 520 271 544 l 231 544 m 183 256 b 197 242 183 248 190 242 l 346 231 l 347 231 b 362 244 354 231 360 236 l 370 301 l 492 301 l 500 244 b 515 231 501 236 508 231 l 516 231 l 665 242 b 679 256 672 242 678 248 l 683 317 l 809 330 l 809 299 b 431 101 809 165 640 101 l 431 101 b 53 299 222 101 53 165 l 53 329 l 178 317 l 183 256 "},"":{"ha":861,"x_min":0,"x_max":0,"o":"m 740 758 b 640 433 786 712 839 583 b 560 229 582 390 562 303 b 549 217 560 222 555 217 l 496 217 b 484 228 490 217 485 222 b 404 298 479 267 445 298 b 324 228 363 298 329 268 b 313 217 323 222 318 217 l 258 217 b 247 228 253 217 247 222 b 167 298 242 267 208 298 b 87 228 126 298 92 268 b 75 217 86 222 81 217 l 20 217 b 8 227 14 217 9 222 b 127 580 -22 387 34 514 l 176 496 b 263 472 193 465 233 455 l 286 485 l 287 485 b 363 542 314 501 339 521 b 363 560 368 547 368 555 l 362 560 b 346 559 357 564 350 563 b 274 506 313 529 274 506 l 251 493 b 197 508 232 482 208 489 l 145 597 b 163 654 133 617 141 644 b 692 619 463 797 594 519 b 713 669 706 631 713 649 b 642 740 713 708 681 740 b 599 726 627 740 612 735 b 584 727 595 722 588 723 l 569 743 b 569 760 564 748 564 756 b 655 794 592 782 624 794 b 740 758 687 794 717 781 m 524 574 b 500 551 511 574 500 564 l 538 531 b 524 574 556 545 547 574 "},"":{"ha":861,"x_min":0,"x_max":0,"o":"m 401 261 b 387 265 398 265 391 265 l 351 276 b 344 301 340 283 337 290 b 358 333 351 311 355 322 b 383 458 376 372 391 412 b 326 538 380 494 362 523 b 247 584 297 548 269 563 b 165 753 197 631 161 681 l 696 753 b 671 656 696 717 689 685 b 534 538 638 599 592 563 b 474 451 499 519 477 491 b 513 311 469 401 491 354 b 499 276 524 290 520 286 b 481 268 491 272 488 272 b 444 261 469 265 456 265 l 431 261 b 413 261 426 265 419 265 l 401 261 m 861 581 b 850 556 853 574 853 563 b 764 476 832 516 803 488 b 728 423 735 469 728 448 b 746 344 724 394 735 369 b 728 311 757 322 753 315 b 656 315 703 308 681 308 b 649 337 646 319 642 326 b 671 419 663 362 674 387 b 635 469 667 455 660 466 b 617 480 628 469 620 473 b 624 483 620 480 620 483 b 749 595 681 505 721 544 b 767 602 753 602 760 602 l 860 602 l 860 581 l 861 581 m 90 606 b 103 599 97 606 100 606 b 240 483 136 544 183 509 b 229 476 237 480 233 480 b 190 415 201 466 190 448 b 208 351 190 394 197 372 b 219 333 211 344 215 337 b 215 319 222 326 222 319 b 118 319 183 304 151 304 b 111 337 108 319 108 326 b 136 426 125 365 140 394 b 100 469 133 455 125 462 b 7 563 53 483 25 519 b 0 574 3 566 7 574 l 0 606 l 90 606 "},"":{"ha":861,"x_min":0,"x_max":0,"o":"m 792 388 b 827 272 831 362 848 311 b 712 242 801 234 750 222 b 690 260 703 247 694 251 l 499 149 b 503 124 503 140 503 132 b 417 38 503 76 465 38 b 332 124 371 38 332 76 b 337 149 332 132 337 136 l 144 260 b 128 242 140 251 136 247 b 13 272 85 217 34 234 b 42 388 -13 315 4 366 b 64 396 47 392 55 396 l 64 618 b 42 626 55 618 51 622 b 13 742 4 652 -9 703 b 128 772 34 780 85 797 b 144 754 132 767 140 763 l 337 865 b 332 890 332 874 332 882 b 417 976 332 938 371 976 b 503 890 465 976 503 938 b 499 865 503 882 499 878 l 690 754 b 708 772 694 763 699 767 b 822 742 750 797 801 780 b 792 626 848 699 831 648 b 772 618 788 622 780 618 l 772 396 b 792 388 780 396 784 392 m 669 332 b 678 353 669 341 674 345 b 690 371 678 358 686 366 l 439 810 b 417 806 435 806 426 806 b 397 810 413 806 405 810 l 144 371 b 158 353 149 366 153 362 b 166 332 162 349 166 341 l 669 332 m 477 831 l 724 401 l 728 401 l 728 622 b 678 660 708 626 690 639 b 669 724 665 682 665 703 l 481 835 m 162 720 b 153 656 166 699 166 678 b 102 618 140 635 124 622 l 102 396 l 106 396 l 358 835 l 162 720 m 669 294 l 166 294 l 166 290 l 358 178 b 417 204 371 196 392 204 b 477 178 439 204 460 196 l 669 290 "},"":{"ha":861,"x_min":0,"x_max":0,"o":"m 743 497 b 693 427 718 487 703 467 b 698 298 693 388 693 342 b 753 383 728 323 743 348 b 797 308 778 358 792 338 b 773 193 803 273 797 228 b 703 144 758 169 733 153 l 688 128 b 558 44 658 84 618 54 b 539 34 553 39 544 39 b 449 4 514 14 484 9 b 280 39 390 -1 335 4 b 270 44 280 44 275 44 b 135 133 210 54 165 84 b 121 144 131 139 126 144 b 26 303 41 174 16 238 b 71 383 26 333 41 358 b 126 298 76 348 96 323 b 131 338 126 313 131 328 b 135 422 135 367 135 392 b 96 482 135 447 126 467 b 31 517 71 492 51 502 b 6 592 6 537 -9 567 b 36 626 11 606 26 617 b 56 656 46 636 56 647 l 56 706 b 51 721 56 711 51 716 b 31 766 46 736 36 751 b 76 831 26 796 41 821 b 106 835 85 831 96 835 b 76 905 121 875 110 895 b 16 925 56 915 36 915 l 56 965 b 230 960 115 994 170 994 b 290 910 250 945 270 925 b 305 900 294 905 300 905 b 310 915 305 905 310 910 b 354 985 315 940 330 965 b 365 990 360 985 360 990 l 369 990 b 379 935 369 970 365 950 b 464 1015 390 980 419 1000 b 469 945 454 990 454 970 b 544 975 494 960 514 975 l 528 945 b 524 915 528 935 524 925 b 534 900 524 910 524 905 b 558 905 544 895 553 895 b 688 980 594 945 628 975 b 817 935 733 985 783 975 b 822 930 817 935 822 935 b 797 925 817 930 808 930 b 758 910 783 920 767 915 b 738 845 728 890 733 870 l 743 840 l 748 840 b 803 746 813 835 838 796 b 788 666 788 721 783 696 b 808 636 792 651 797 642 b 808 532 852 617 852 562 b 743 497 788 517 763 507 "},"":{"ha":861,"x_min":0,"x_max":0,"o":"m 626 180 b 608 147 617 166 613 156 b 598 113 603 138 598 123 l 583 -35 b 560 -68 583 -53 574 -63 b 455 -101 526 -78 488 -92 l 402 -101 b 383 -97 397 -101 388 -97 b 302 -63 355 -87 326 -78 b 288 -40 297 -58 288 -49 b 283 70 283 -1 283 32 b 254 176 283 108 283 147 l 254 180 b 626 180 374 147 498 147 m 698 786 b 679 585 693 719 684 653 l 660 390 l 646 238 b 598 185 646 204 626 190 b 460 166 550 175 507 171 b 259 185 393 161 326 166 b 226 228 235 190 231 209 b 216 294 226 251 221 276 l 202 428 l 197 471 b 192 485 197 476 192 481 b 164 710 188 562 173 633 b 159 781 159 733 159 758 b 698 786 340 743 522 743 m 159 815 b 188 824 169 819 178 824 l 321 838 b 340 848 326 838 340 848 b 292 967 326 891 326 934 b 183 1087 254 1006 221 1049 b 235 1092 211 1115 211 1115 b 288 1039 254 1072 269 1053 b 383 872 340 996 374 939 b 431 838 393 843 407 838 b 669 824 512 834 588 829 b 703 815 679 824 688 819 b 159 815 622 753 207 758 "},"":{"ha":861,"x_min":0,"x_max":0,"o":"m 392 770 b 387 753 392 765 392 759 l 36 403 b 31 397 36 403 36 397 l 31 748 b 36 753 31 753 31 753 b 392 1115 157 874 272 994 l 392 770 m 831 260 b 825 255 831 255 831 255 l 469 -101 l 464 -101 l 464 249 b 469 255 464 255 464 255 b 831 611 590 370 705 490 b 831 611 825 611 825 611 l 831 260 m 464 688 b 469 693 464 693 464 693 l 815 693 l 464 342 l 464 688 m 398 331 b 392 326 398 326 398 326 l 47 326 b 398 677 163 447 277 562 l 398 331 m 31 255 b 36 260 31 260 31 260 l 381 260 b 31 -90 266 145 151 24 l 31 255 "},"":{"ha":861,"x_min":0,"x_max":0,"o":"m 677 578 b 857 417 739 553 857 504 b 789 331 857 355 789 331 b 783 312 789 324 789 318 b 603 263 720 219 603 263 b 597 306 603 263 597 281 b 398 392 565 306 478 318 b 324 -29 398 392 324 33 b 76 27 324 -29 175 -78 b 206 547 76 27 206 516 l 39 919 b 2 944 39 919 14 900 b 8 981 -4 975 8 981 b 2 1024 8 981 -4 1018 b 151 1067 2 1024 45 1092 b 194 1012 151 1067 163 1067 b 213 993 194 1012 213 1012 b 206 963 219 975 206 963 l 336 665 l 590 876 b 590 906 590 876 578 900 b 622 913 603 913 622 913 l 677 956 b 776 931 677 956 702 987 b 832 869 851 876 832 869 l 783 814 b 764 770 783 814 788 783 b 726 764 745 758 726 764 l 658 702 b 677 578 658 702 615 603 m 801 355 b 826 411 813 361 832 380 b 683 535 826 485 683 535 b 597 653 683 535 584 566 l 410 516 b 404 454 410 516 399 473 b 603 337 417 435 460 361 b 628 380 615 361 628 380 b 714 367 628 380 646 349 b 789 424 783 386 789 424 b 801 355 789 424 813 399 "},"":{"ha":861,"x_min":0,"x_max":0,"o":"m 858 694 l 274 694 l 274 912 l 858 912 m 88 897 b 177 803 138 897 177 855 b 88 709 177 751 138 709 b 0 803 40 709 0 751 b 88 897 0 855 40 897 m 861 399 l 276 399 l 276 615 l 861 615 m 91 601 b 180 507 140 601 180 559 b 91 413 180 456 140 413 b 2 507 42 413 2 455 b 91 601 2 559 42 601 m 861 102 l 276 102 l 276 319 l 861 319 m 91 305 b 180 211 140 305 180 263 b 91 117 180 159 140 117 b 2 211 42 117 2 159 b 91 305 2 263 42 305 "},"":{"ha":861,"x_min":0,"x_max":0,"o":"m 353 813 b 503 589 404 740 451 662 b 758 206 590 460 676 335 l 607 206 l 603 210 b 482 391 564 270 521 331 b 478 391 478 395 482 395 b 357 210 439 331 396 270 l 353 206 l 202 206 l 202 210 b 400 507 267 309 335 408 l 400 511 b 202 808 335 610 267 709 l 202 813 l 353 813 m 155 804 b 253 658 189 757 219 705 b 353 507 288 606 322 558 l 353 503 b 151 201 288 403 219 305 l 0 201 l 0 206 b 56 288 17 231 34 262 b 198 503 103 360 150 429 l 198 507 b 0 808 133 610 69 709 l 151 808 l 155 804 m 861 533 l 590 533 b 525 632 568 567 547 597 l 525 636 l 861 636 m 861 378 l 689 378 b 624 477 667 413 646 442 l 624 481 l 861 481 "},"":{"ha":861,"x_min":0,"x_max":0,"o":"m 861 76 l 627 76 l 622 81 l 431 177 l 240 81 l 235 76 l 0 76 l 0 311 l 5 315 l 101 507 l 5 699 l 0 703 l 0 938 l 235 938 l 240 933 l 431 837 l 622 933 l 627 938 l 861 938 l 861 703 l 857 699 l 761 507 l 857 315 l 861 311 m 450 794 l 718 526 l 809 885 m 53 885 l 144 526 l 412 794 m 412 220 l 144 488 l 53 129 m 809 129 l 718 488 l 450 220 "},"":{"ha":861,"x_min":0,"x_max":0,"o":"m 233 72 l 35 -101 l 35 247 m 749 603 b 826 420 825 528 826 431 l 826 -101 l 650 -101 l 650 417 b 540 507 649 458 629 507 b 159 417 362 507 161 418 l 35 362 l 35 1115 l 211 1115 l 211 622 b 540 681 299 650 421 681 b 749 603 649 681 714 638 m 518 833 b 650 1115 588 922 631 1017 l 826 1115 b 694 833 814 1017 774 922 l 518 833 "},"":{"ha":861,"x_min":0,"x_max":0,"o":"m 0 507 l 215 880 l 646 880 l 861 507 l 646 134 l 215 134 m 539 696 l 322 696 l 213 507 l 322 318 l 539 318 l 648 507 "},"":{"ha":861,"x_min":0,"x_max":0,"o":"m 323 722 l 81 507 l 323 292 l 323 151 l 0 453 l 0 560 l 323 862 m 538 292 l 785 507 l 538 722 l 538 867 l 861 566 l 861 448 l 538 147 "},"":{"ha":861,"x_min":0,"x_max":0,"o":"m 163 185 b 125 171 153 176 139 171 b 92 199 106 176 97 185 b 101 242 87 218 92 233 b 167 308 120 266 144 285 b 177 313 172 308 172 313 b 92 374 149 332 120 351 b 11 455 63 398 35 426 b 6 502 -3 469 -3 483 b 258 724 68 597 149 677 b 579 729 366 772 470 772 b 598 734 589 729 593 729 l 692 828 b 735 838 707 838 721 843 b 764 805 749 833 759 824 b 754 776 764 796 759 786 l 749 772 l 163 185 m 276 413 b 267 644 224 488 219 564 b 92 488 196 606 139 549 b 233 379 134 441 182 408 l 243 379 l 276 413 m 456 640 b 423 677 461 658 447 677 b 285 535 347 677 285 611 b 314 502 285 517 295 502 b 342 531 328 502 342 512 l 342 545 b 423 616 347 588 381 616 b 456 640 442 616 451 625 m 844 507 b 844 465 858 488 858 474 b 522 270 759 365 655 294 b 319 275 456 256 385 261 l 314 275 l 342 303 b 371 337 352 317 361 327 b 390 342 376 342 381 342 b 707 441 508 327 613 365 b 749 478 721 450 735 465 b 764 488 754 478 759 483 b 650 606 731 535 692 573 l 707 663 b 773 597 726 640 754 621 b 844 507 797 569 820 535 "},"":{"ha":861,"x_min":0,"x_max":0,"o":"m 861 100 l 0 100 l 0 914 l 861 914 m 607 760 b 569 722 583 760 569 742 b 607 689 569 703 588 689 b 646 727 631 689 646 703 b 607 760 646 746 626 760 m 295 753 b 287 742 291 753 290 749 b 224 522 267 669 244 593 b 172 335 206 459 191 397 b 181 325 172 330 172 325 l 234 325 b 244 335 239 325 244 330 b 272 440 253 368 263 406 b 287 449 277 444 277 449 l 387 449 b 401 440 397 449 401 444 b 435 335 411 406 426 368 b 449 325 440 325 440 325 l 497 325 b 507 335 512 325 512 325 l 449 522 b 383 742 426 593 406 669 b 373 751 383 751 378 751 l 301 751 b 295 753 299 752 297 753 m 341 664 b 344 660 343 664 344 663 b 373 522 358 617 368 569 b 368 512 378 517 378 512 l 301 512 b 297 522 297 512 297 517 b 330 646 310 560 320 603 b 335 660 330 651 335 656 b 341 664 337 663 340 664 m 580 657 b 574 646 576 658 574 653 l 574 335 b 583 325 574 325 574 325 l 617 325 b 641 349 641 325 641 325 b 636 646 641 444 641 545 b 626 656 636 651 636 656 l 583 656 b 580 657 582 656 581 657 "},"":{"ha":861,"x_min":0,"x_max":0,"o":"m 671 453 b 590 534 626 453 590 489 b 671 616 590 579 626 616 b 753 534 717 616 753 579 b 671 453 753 489 717 453 m 861 140 l 168 140 l 168 702 l 861 702 m 367 462 l 567 249 l 667 367 l 830 181 l 830 670 l 200 670 l 200 253 m 86 797 l 86 385 l 0 385 l 0 874 l 644 874 l 644 797 "},"":{"ha":861,"x_min":0,"x_max":0,"o":"m 453 935 b 540 922 479 935 510 931 b 788 747 642 897 728 837 b 856 550 826 687 852 623 b 861 528 856 541 856 537 l 861 481 b 852 422 856 460 856 442 b 737 207 835 340 797 267 b 471 78 664 130 574 87 l 402 78 b 261 113 356 83 308 96 b 72 267 184 143 119 199 b 0 468 30 327 8 396 l 0 537 b 8 606 0 558 4 584 b 158 845 30 704 81 781 b 385 935 226 897 299 927 l 453 935 m 437 876 b 68 511 231 876 68 713 b 428 147 68 310 226 147 b 797 511 629 147 792 310 b 437 876 797 713 634 871 m 419 772 b 492 700 458 772 492 738 b 419 627 492 661 463 627 b 347 700 381 627 347 661 b 419 772 347 738 376 772 m 497 297 b 510 284 501 292 501 284 b 531 280 518 280 522 280 l 557 280 l 557 246 l 299 246 l 299 280 l 338 280 b 364 306 356 280 364 288 l 364 503 b 338 533 364 520 356 533 l 295 533 l 295 567 b 497 576 364 572 428 572 l 497 297 "},"":{"ha":861,"x_min":0,"x_max":0,"o":"m 431 938 b 667 865 521 938 603 912 b 727 881 684 873 706 881 b 840 769 792 881 840 830 b 813 697 840 740 831 714 b 861 507 844 640 861 576 b 431 76 861 270 667 76 b 0 507 194 76 0 270 b 431 938 0 744 194 938 m 430 869 b 69 507 232 869 69 705 b 430 145 69 309 228 145 b 792 507 633 145 792 305 b 758 662 792 563 779 615 b 731 658 749 658 740 658 b 619 769 667 658 619 709 b 628 808 619 783 624 795 b 431 869 572 847 503 869 l 430 869 m 430 683 b 607 503 529 683 607 601 b 426 326 602 403 525 326 b 249 507 327 331 249 408 b 430 683 253 606 331 683 "},"":{"ha":861,"x_min":0,"x_max":0,"o":"m 857 340 b 853 284 857 323 857 301 b 742 224 840 233 793 207 b 669 199 694 237 699 242 b 626 108 651 173 634 143 l 613 83 b 583 66 608 70 596 66 b 373 100 510 61 442 74 l 313 113 b 308 104 313 108 308 108 b 334 83 317 100 326 92 l 257 70 b 133 66 219 61 176 61 b 94 92 116 66 103 74 b 9 314 69 164 39 242 b 0 349 4 323 0 335 l 0 370 b 17 387 4 378 13 383 b 26 370 17 378 22 374 b 35 357 30 365 30 365 b 60 442 43 387 51 417 b 223 623 90 524 138 592 b 399 640 283 644 339 644 b 442 635 412 640 428 635 b 519 601 472 631 497 618 b 600 576 540 580 566 567 b 608 580 604 580 604 580 b 622 627 634 592 639 601 b 578 687 608 644 592 665 b 467 897 540 756 506 828 b 454 935 458 910 458 922 b 472 953 454 944 458 953 b 574 901 515 953 549 944 b 651 730 604 850 626 790 b 703 640 665 700 681 669 b 750 601 716 623 733 614 b 767 597 754 597 763 597 l 767 614 b 750 700 763 644 754 669 b 733 819 746 738 737 781 b 758 845 733 837 742 845 b 797 815 780 845 788 833 b 835 644 819 760 827 700 b 853 567 840 618 844 592 b 853 485 861 537 857 511 b 857 340 849 438 849 387 m 810 391 b 797 408 810 396 801 404 b 788 413 797 408 793 413 b 681 434 754 430 720 438 b 647 422 673 430 660 426 b 681 391 660 408 669 396 b 793 378 716 374 754 374 b 810 391 797 378 806 387 "},"":{"ha":861,"x_min":0,"x_max":0,"o":"m 836 356 b 817 177 835 304 838 235 b 726 22 800 119 769 67 b 578 -77 683 -22 634 -54 b 403 -101 522 -97 480 -101 b 191 -66 327 -101 259 -94 b 24 63 125 -35 69 8 l 160 238 b 263 155 188 203 222 175 b 396 124 303 134 348 124 b 544 185 459 124 508 144 b 597 375 579 228 597 291 l 597 1115 l 836 1115 l 836 356 "},"":{"ha":861,"x_min":0,"x_max":0,"o":"m 331 423 b 106 181 331 244 247 181 b 0 197 74 181 26 187 l 16 313 b 90 297 37 302 63 297 b 190 423 147 297 190 323 l 190 822 l 331 822 l 331 423 m 457 339 b 615 297 494 318 557 297 b 715 365 683 297 715 323 b 610 454 715 407 683 428 b 436 644 504 491 436 549 b 678 833 436 753 526 833 b 840 801 751 833 803 817 l 809 685 b 678 717 783 696 741 717 b 583 654 615 717 583 691 b 699 565 583 612 620 597 b 861 376 809 523 861 465 b 604 181 861 271 778 181 b 426 218 531 181 463 202 l 457 339 "},"":{"ha":861,"x_min":0,"x_max":0,"o":"m 399 1110 b 606 1027 476 1115 553 1085 b 658 722 681 944 675 824 b 615 581 656 671 629 628 b 699 481 630 540 696 531 b 637 287 684 415 657 351 b 763 283 660 268 732 334 b 790 148 788 244 802 193 b 678 106 780 98 719 90 b 581 74 645 133 594 110 b 553 -40 585 33 612 -28 b 438 -99 551 -101 483 -99 b 310 -76 395 -99 342 -101 b 231 44 285 -35 297 53 b 91 126 185 68 108 71 b 57 351 92 202 84 279 b 56 478 48 393 -5 453 b 186 576 97 508 176 528 b 92 708 179 640 118 657 b 98 897 65 771 113 832 b 165 1010 100 943 145 969 b 399 1110 228 1068 313 1101 m 413 1084 b 306 1044 372 1088 340 1063 b 235 916 258 1021 222 972 b 234 784 228 872 219 828 b 147 812 210 714 188 826 b 131 690 90 799 93 722 b 195 668 146 649 219 714 b 240 531 178 622 212 567 b 367 522 278 506 327 521 b 287 626 340 554 295 580 b 361 549 299 624 332 565 b 553 554 415 503 501 508 b 647 864 629 637 661 753 b 572 949 645 901 617 965 b 599 991 536 976 631 967 b 413 1084 559 1053 484 1082 m 373 967 b 398 952 383 967 394 963 b 322 903 385 936 331 942 b 373 967 292 901 340 976 m 587 890 b 603 860 595 882 599 871 b 560 832 651 820 549 783 b 587 890 603 817 587 866 m 394 888 b 428 845 408 877 420 861 b 367 823 459 791 340 775 b 394 888 426 802 387 860 m 493 871 b 580 751 513 824 548 788 b 482 677 587 701 522 681 b 454 708 451 662 436 728 b 553 749 482 677 572 703 b 490 874 528 788 481 822 l 493 871 m 591 672 b 527 615 581 644 556 620 b 591 672 484 643 572 656 m 387 653 b 503 631 422 633 476 657 b 387 653 493 590 406 619 m 499 419 b 487 351 448 422 468 378 b 528 301 506 342 514 257 b 499 419 530 339 556 410 m 569 405 b 553 377 550 407 556 389 b 551 294 556 355 534 288 b 569 405 566 328 640 394 m 434 390 b 383 333 415 374 391 358 b 492 278 398 302 457 294 b 434 390 498 299 458 362 m 724 269 b 651 183 678 258 622 243 b 715 145 628 131 731 162 b 738 140 658 138 719 126 b 724 269 781 167 758 244 m 416 215 b 280 200 370 214 324 209 b 332 -51 290 115 303 30 b 514 -56 390 -71 454 -70 b 499 162 503 16 503 90 b 416 215 513 219 454 217 m 552 81 b 531 -4 507 81 545 19 b 552 81 578 -48 576 55 "},"":{"ha":861,"x_min":0,"x_max":0,"o":"m 860 904 b 860 808 861 872 861 840 l 860 798 l 831 788 b 740 726 795 776 752 774 b 722 718 739 722 728 719 b 623 702 689 713 656 708 b 608 690 617 701 611 695 b 597 668 603 684 601 676 b 658 649 616 656 631 640 b 724 658 679 655 702 656 b 740 645 730 658 740 649 b 733 594 740 628 735 612 l 592 582 l 613 429 b 624 421 613 426 620 421 b 673 420 641 419 658 420 b 633 478 681 457 642 456 b 762 478 676 496 717 494 l 721 443 b 723 422 722 437 722 429 b 728 377 725 406 731 391 b 735 249 720 334 711 291 b 733 235 736 245 733 240 b 727 166 731 212 726 188 b 678 120 730 116 730 115 b 669 124 676 121 673 123 l 669 199 l 626 199 l 636 114 l 540 114 l 540 194 l 493 194 l 501 101 l 435 101 b 427 122 432 108 426 116 b 419 238 436 163 424 201 b 433 271 426 249 433 260 b 435 357 435 299 435 328 b 433 373 435 363 436 372 b 417 422 411 387 427 411 b 433 445 425 432 433 438 b 420 465 433 451 426 458 l 394 494 b 533 491 442 513 485 513 b 489 458 517 478 503 469 l 489 426 l 535 426 l 544 581 l 265 565 l 265 416 l 316 416 b 322 422 318 418 320 420 l 284 467 b 401 467 324 484 361 484 b 372 440 390 458 378 451 b 369 414 367 433 365 416 b 375 376 385 403 380 385 b 371 272 358 341 369 306 b 378 225 372 256 378 241 b 373 157 378 203 374 180 l 373 135 l 319 135 l 319 214 l 272 210 l 272 131 l 183 131 l 193 202 l 122 202 l 132 122 b 91 122 117 122 104 122 b 71 142 75 120 68 126 b 71 163 72 149 72 156 b 61 214 69 181 76 198 b 65 253 55 220 61 240 b 76 276 66 261 76 268 b 55 417 78 324 79 373 b 61 456 83 431 83 440 l 35 477 b 165 474 88 499 136 497 l 124 444 l 126 422 l 206 417 l 215 562 l 111 562 b 105 597 109 574 109 585 b 122 617 99 615 107 617 b 176 616 140 615 160 610 b 217 649 192 621 215 635 b 179 670 219 665 199 672 b 117 673 159 669 138 672 b 103 679 112 674 104 676 b 71 719 97 697 88 708 b 28 738 56 730 43 733 b 0 751 18 740 10 747 l 0 756 b 24 822 30 768 40 789 b 281 793 108 781 194 788 l 428 803 b 772 879 547 810 662 832 b 847 913 797 890 822 902 l 851 913 b 860 904 855 910 860 907 m 125 372 l 125 255 l 198 259 l 198 368 m 265 274 b 292 260 266 254 281 258 b 319 272 302 260 319 252 b 319 368 321 303 319 335 l 265 368 m 290 627 b 355 627 310 622 333 626 l 347 681 l 283 676 b 290 627 270 655 261 634 m 492 373 l 492 249 l 536 249 l 536 373 m 622 370 l 628 251 l 674 254 l 674 372 m 451 635 b 547 670 488 631 523 635 l 526 695 b 451 635 452 690 449 687 "},"":{"ha":861,"x_min":0,"x_max":0,"o":"m 0 555 b 86 631 76 555 86 596 b 81 717 86 661 81 687 b 76 803 81 747 76 778 b 249 956 76 910 142 956 l 289 956 l 289 859 l 269 859 b 203 778 218 859 203 828 b 208 712 203 758 208 738 b 213 636 208 692 213 667 b 117 504 213 550 178 519 b 213 373 178 489 213 459 b 208 297 213 342 208 317 b 203 236 208 276 203 251 b 269 155 203 185 218 155 l 289 155 l 289 58 l 249 58 b 81 210 147 58 81 99 b 86 297 81 241 81 267 b 92 383 92 327 92 358 b 6 459 92 413 81 459 l 0 555 m 861 469 b 775 393 785 469 775 424 b 781 307 775 363 781 338 b 785 221 785 276 785 246 b 613 69 785 109 715 69 l 573 69 l 573 155 l 593 155 b 659 236 644 155 659 185 b 653 297 659 256 659 276 b 649 373 653 322 649 347 b 745 504 649 459 684 489 b 649 636 684 519 649 550 b 653 712 649 667 653 692 b 659 778 659 738 659 758 b 593 859 659 828 638 854 l 573 859 l 573 956 l 613 956 b 785 803 719 956 785 910 b 781 717 785 773 781 747 b 775 631 775 687 775 656 b 861 555 775 596 785 555 l 861 469 "},"":{"ha":861,"x_min":0,"x_max":0,"o":"m 431 917 b 626 722 538 917 626 830 b 431 527 626 615 538 527 b 235 722 322 527 235 615 b 431 917 235 830 322 917 m 195 487 b 390 292 303 487 390 399 b 195 97 390 184 303 97 b 0 292 88 97 0 184 b 195 487 0 399 88 487 m 665 487 b 861 292 773 487 861 399 b 665 97 860 184 773 97 b 470 292 558 97 470 184 b 665 487 470 399 558 487 "},"":{"ha":861,"x_min":0,"x_max":0,"o":"m 295 772 l 344 772 l 510 1042 l 837 1042 l 499 550 l 499 519 l 861 -28 l 553 -28 l 344 279 l 295 279 l 295 -28 l 203 -28 l 0 741 l 0 1036 l 295 1036 "},"":{"ha":861,"x_min":0,"x_max":0,"o":"m 563 674 b 472 451 573 584 547 504 b 414 414 451 440 430 430 b 403 392 408 408 403 398 b 398 345 403 377 398 361 b 382 324 398 334 392 329 b 360 313 371 324 366 318 b 355 260 344 302 339 276 b 371 239 360 249 366 244 b 366 212 382 228 376 217 b 313 185 350 201 328 196 b 308 149 302 180 297 159 b 350 106 324 138 334 122 b 344 74 360 95 355 79 b 324 63 339 69 328 69 b 313 15 302 53 297 37 b 324 -1 313 10 318 5 b 318 -59 334 -22 334 -43 b 254 -101 302 -80 281 -101 b 180 -96 228 -101 206 -96 b 174 -85 180 -96 174 -91 b 228 249 190 26 212 138 b 254 403 238 297 249 350 b 244 424 254 414 254 424 b 228 408 233 424 228 419 b 201 244 217 356 212 297 b 158 -22 185 153 174 69 b 148 -85 153 -43 153 -64 b 106 -37 122 -75 111 -59 b 106 47 100 -11 100 21 b 148 313 122 138 132 223 b 169 435 158 356 164 393 b 164 456 174 446 169 451 b 90 696 95 520 68 600 b 169 823 100 749 132 786 b 190 775 174 807 185 791 b 313 669 217 722 254 685 b 398 712 355 658 387 674 b 382 775 403 738 398 759 b 318 791 366 791 339 797 l 318 786 b 334 775 324 781 328 775 b 371 733 360 770 371 754 b 324 701 371 712 350 690 b 265 738 302 712 281 722 b 260 1062 158 839 185 993 b 414 1115 302 1105 355 1115 b 621 956 515 1110 594 1051 b 615 813 631 908 631 860 l 567 860 b 563 881 563 865 563 876 b 520 1009 563 929 552 972 b 392 1051 483 1047 440 1057 b 260 876 281 1041 254 945 l 339 876 b 563 674 461 871 552 791 m 753 69 b 663 -80 765 10 727 -49 b 647 -69 653 -80 653 -75 b 520 228 605 31 563 127 b 461 382 499 281 483 329 b 472 408 456 392 461 403 b 589 632 551 467 589 542 b 488 839 589 717 551 786 b 472 860 483 844 477 855 l 477 865 b 615 754 541 849 589 813 b 599 494 653 664 642 578 b 599 462 594 483 594 472 b 621 424 610 451 615 435 b 615 392 626 414 626 403 b 605 377 615 388 610 382 b 615 334 594 356 594 345 b 637 318 621 329 631 324 b 642 286 653 308 653 302 b 621 249 631 276 621 265 b 626 217 621 239 626 228 b 642 201 626 207 631 201 b 679 196 658 201 669 196 b 701 153 706 191 711 175 b 701 106 695 138 695 122 b 733 90 706 90 722 90 b 753 69 749 90 753 79 m 435 382 b 621 -64 499 233 563 85 l 615 -69 b 589 -53 610 -64 599 -59 b 536 21 563 -33 547 -6 b 424 297 499 111 461 207 b 424 329 419 308 424 318 b 435 382 430 345 430 361 "},"":{"ha":861,"x_min":0,"x_max":0,"o":"m 522 382 b 517 310 522 360 517 333 b 508 97 513 240 508 168 l 508 65 b 504 61 508 61 508 61 l 370 88 b 308 97 348 92 330 92 b 250 106 285 101 267 106 b 76 137 192 115 134 128 b 4 154 53 146 26 150 b 0 163 0 154 0 159 b 18 315 9 213 13 266 b 22 347 18 324 22 338 b 26 364 26 351 22 356 b 35 435 31 387 31 409 b 44 507 40 458 44 480 b 67 685 53 565 63 627 b 85 713 67 699 76 708 l 165 739 b 174 752 169 739 174 744 b 232 886 183 801 205 846 b 299 949 250 913 272 935 b 348 953 317 949 330 953 b 401 931 370 953 388 949 b 410 926 406 926 406 926 b 468 899 433 926 455 917 b 499 846 482 882 491 864 b 508 842 499 842 504 842 b 531 851 517 846 522 846 b 540 842 540 851 540 851 b 535 726 540 801 535 766 b 526 574 531 676 531 623 b 517 391 522 511 522 453 b 522 382 522 387 522 387 m 192 404 b 223 378 201 395 210 387 b 254 338 236 369 250 356 b 228 293 259 315 250 297 l 205 293 b 138 324 178 297 156 310 b 129 319 134 328 134 328 b 111 266 125 301 120 284 b 120 240 107 253 111 244 b 250 199 160 208 205 194 b 352 275 299 203 335 231 b 366 342 361 297 366 319 b 344 404 366 364 357 387 b 339 413 344 409 339 409 b 281 463 326 435 303 449 b 254 485 272 467 263 476 b 281 551 241 507 250 542 b 366 542 313 556 339 551 b 375 547 370 538 375 542 l 401 627 b 392 645 406 641 406 641 b 299 650 361 654 330 654 b 160 507 228 636 165 588 b 192 404 151 467 165 431 m 370 917 b 361 922 366 922 366 922 b 330 922 352 926 344 922 b 267 877 303 913 285 899 b 205 752 236 842 219 797 b 210 748 205 748 205 748 b 272 766 232 752 250 761 b 276 770 276 766 276 770 b 281 797 276 779 281 788 b 370 917 299 846 321 891 m 401 824 b 392 882 401 842 397 864 b 383 886 388 891 388 891 b 357 864 375 882 361 873 b 317 788 339 842 326 815 l 317 783 l 321 783 b 383 801 344 788 366 797 b 401 824 401 806 401 806 m 438 815 b 473 828 446 819 460 824 l 473 833 b 446 882 468 851 460 868 b 428 895 442 886 438 891 l 424 895 l 424 891 b 428 873 424 886 428 877 b 433 824 433 860 433 842 b 438 815 433 819 433 815 m 861 128 b 856 119 861 123 861 123 b 701 88 803 110 754 97 b 589 65 665 78 624 69 b 585 69 585 65 580 61 b 589 115 585 83 585 101 b 598 297 593 177 593 235 l 598 342 b 602 387 598 356 598 373 l 602 418 l 616 654 l 616 699 b 620 801 620 735 620 766 l 620 846 b 624 842 624 846 624 846 l 642 824 b 665 801 651 815 660 810 b 687 792 669 792 678 792 b 745 788 705 792 727 788 b 754 779 749 788 754 783 b 763 726 758 761 758 744 l 776 636 b 799 498 785 592 790 542 b 834 270 812 422 821 347 l 848 222 l 861 128 "},"":{"ha":861,"x_min":0,"x_max":0,"o":"m 450 555 b 454 559 454 555 454 555 b 458 563 454 559 458 559 b 463 567 458 563 463 563 b 467 572 467 567 467 567 b 472 576 472 572 472 572 b 476 585 476 576 476 581 l 476 849 b 489 862 476 858 480 862 l 515 862 b 528 849 528 862 528 862 l 528 633 l 532 633 b 536 637 536 633 536 633 l 536 641 l 545 650 b 545 658 549 654 545 658 l 545 823 l 592 823 l 592 701 b 601 706 597 701 597 706 l 649 753 b 653 763 653 753 653 758 l 653 827 b 679 827 662 831 670 827 b 705 827 688 827 701 831 b 705 801 709 823 705 810 l 705 780 b 709 771 705 775 705 775 b 709 771 709 771 705 771 l 748 771 b 757 763 753 771 757 771 l 757 724 l 697 724 b 692 719 692 724 692 724 b 635 663 675 701 653 684 b 644 658 635 658 640 658 l 749 658 b 757 650 757 658 757 658 l 757 619 b 744 606 757 611 757 606 l 588 606 b 579 602 584 606 579 611 l 528 550 l 757 550 l 757 511 b 744 503 757 503 753 503 l 472 503 b 467 499 467 503 467 503 b 463 494 463 499 463 499 b 458 490 458 494 458 494 b 454 485 454 490 454 490 b 450 481 450 485 450 485 b 445 476 445 481 445 481 b 441 472 441 476 441 476 b 450 472 445 468 450 472 l 774 472 b 778 468 778 472 778 472 l 778 438 b 765 425 778 425 778 425 l 381 425 l 376 420 b 359 399 372 412 363 408 b 372 399 363 394 367 399 l 800 399 b 809 390 805 399 809 399 l 809 347 l 315 347 b 303 342 311 347 307 347 l 255 295 b 264 290 255 290 264 290 l 852 290 b 861 282 861 290 861 290 l 861 200 b 848 187 861 187 861 187 l 212 187 b 212 178 208 183 212 178 l 212 78 l 113 78 b 103 88 103 78 103 83 l 103 187 b 95 187 99 191 99 187 l 8 187 b 0 195 0 187 0 187 l 0 282 b 8 290 0 290 4 290 l 108 290 b 108 299 113 295 108 299 l 108 926 b 117 935 108 935 108 935 l 199 935 b 212 922 212 935 212 935 l 212 325 b 229 342 220 330 225 338 b 264 377 242 356 251 369 b 268 386 268 377 268 381 l 268 879 b 298 879 276 883 290 879 b 320 879 307 879 315 883 b 320 858 324 875 320 866 l 320 438 b 376 490 338 455 354 472 b 381 499 381 494 381 499 l 381 879 l 428 879 b 433 875 433 879 433 879 b 450 879 445 883 445 879 l 450 555 m 0 290 b 8 290 4 295 4 290 l 0 290 m 445 555 b 445 567 450 559 445 563 l 445 563 l 445 555 m 744 719 b 757 724 748 724 753 719 l 757 719 l 744 719 "},"":{"ha":861,"x_min":0,"x_max":0,"o":"m 374 76 b 0 451 167 76 0 244 b 383 826 0 658 167 830 b 749 451 585 822 749 658 b 374 76 749 244 581 76 m 529 718 b 417 606 469 718 417 666 b 529 494 417 546 465 494 b 641 606 590 494 641 542 b 529 718 641 666 594 718 m 749 718 b 641 830 689 718 637 765 b 753 938 641 890 689 938 b 861 826 813 938 861 886 b 749 718 861 765 809 718 "},"":{"ha":861,"x_min":0,"x_max":0,"o":"m 708 909 l 861 871 l 861 105 l 660 105 l 660 578 l 488 392 l 373 392 l 201 578 l 201 105 l 0 105 l 0 871 l 153 909 l 431 608 "},"":{"ha":861,"x_min":0,"x_max":0,"o":"m 861 476 b 423 33 715 326 569 180 l 0 472 l 176 472 l 176 981 b 428 824 242 935 398 824 b 670 975 458 824 610 935 l 670 476 l 861 476 "},"":{"ha":861,"x_min":0,"x_max":0,"o":"m 439 1077 b 488 1115 455 1088 472 1093 b 686 790 593 1016 659 912 b 697 730 692 769 697 752 b 609 499 708 647 692 565 b 477 372 560 466 526 422 b 631 449 510 378 631 449 b 488 322 631 449 516 339 b 460 251 460 301 455 278 l 460 245 b 526 -101 522 135 543 19 b 362 306 505 42 449 179 b 152 576 301 367 152 576 b 290 510 152 576 263 510 b 235 890 180 592 180 813 b 439 1077 290 967 328 989 "},"":{"ha":861,"x_min":0,"x_max":0,"o":"m 727 804 b 861 675 805 804 861 744 l 861 343 b 727 210 861 270 801 210 l 146 210 b 0 507 146 214 0 507 l 146 804 l 727 804 m 65 499 b 198 274 65 485 198 274 l 732 274 b 797 339 766 274 797 300 l 797 671 b 732 735 797 705 770 735 l 198 735 l 65 499 m 344 369 l 280 369 l 280 537 l 219 537 l 219 601 l 280 601 l 280 649 l 344 649 m 517 649 b 654 542 581 649 637 606 l 590 542 b 517 589 576 572 547 589 b 439 511 474 589 439 554 b 517 434 439 468 474 434 l 517 429 l 719 429 l 719 365 l 517 365 b 374 507 439 365 374 429 b 517 649 374 585 439 649 "},"":{"ha":861,"x_min":0,"x_max":0,"o":"m 98 519 b 94 538 98 526 98 534 b 67 534 86 546 71 546 b 90 488 55 515 67 495 b 129 495 106 483 117 483 b 188 546 149 511 168 526 b 273 604 215 569 238 592 b 406 585 320 620 367 620 l 429 562 l 437 553 b 449 569 441 562 444 565 b 542 612 472 597 503 612 b 655 569 585 612 624 597 b 722 511 678 550 698 531 b 760 488 733 499 744 492 b 807 511 780 483 799 495 b 799 538 811 522 807 531 b 776 542 792 546 783 546 b 768 522 768 538 764 531 l 768 519 b 752 550 756 526 752 538 b 776 577 752 565 764 573 b 853 531 811 589 846 569 b 846 456 858 507 858 480 b 783 410 834 429 811 417 b 628 425 729 394 678 406 l 522 472 b 386 488 480 492 433 499 b 301 456 359 480 328 468 b 199 413 265 441 234 425 b 71 410 156 398 113 394 b 1 515 28 425 -3 456 b 40 573 4 542 12 565 b 90 573 55 581 74 581 b 98 519 117 562 117 534 "},"":{"ha":861,"x_min":0,"x_max":0,"o":"m 497 994 b 501 984 497 989 501 989 l 730 755 b 735 740 735 750 735 745 l 735 594 b 672 619 715 604 696 609 l 672 692 l 492 692 b 428 755 453 692 428 716 l 428 930 l 63 930 l 63 79 l 312 79 b 326 74 317 79 322 79 b 380 25 341 60 360 40 l 385 21 l 53 21 b 0 94 10 31 0 60 l 0 930 b 39 989 0 959 15 979 b 59 994 49 989 53 994 l 497 994 m 676 750 l 497 930 l 497 750 m 578 563 b 861 317 719 567 848 463 l 861 264 b 667 30 851 157 774 59 b 613 20 647 25 628 20 l 565 20 b 511 30 545 25 531 25 b 317 264 404 59 326 157 b 550 560 302 410 404 541 b 578 563 560 562 569 563 m 584 507 b 370 293 467 507 370 410 b 584 84 370 176 467 79 b 798 298 701 84 798 181 b 584 507 798 415 701 507 m 584 415 b 613 385 599 415 613 400 l 613 361 b 618 322 618 351 618 342 l 676 322 b 710 293 696 322 710 308 b 676 264 710 274 696 264 l 618 264 l 618 196 b 584 172 613 181 599 172 b 555 201 569 172 555 186 l 555 264 l 492 264 b 463 293 477 264 463 278 b 492 322 463 308 477 322 l 555 322 l 555 385 b 584 415 555 400 569 415 "},"":{"ha":861,"x_min":0,"x_max":0,"o":"m 434 828 b 496 774 434 828 465 800 b 640 758 541 777 595 767 l 701 803 b 742 732 701 803 725 763 b 803 685 759 722 790 699 l 861 706 b 749 538 836 641 812 570 b 114 537 651 673 209 687 b 0 708 54 576 33 642 l 54 686 b 123 732 75 705 99 719 l 164 801 b 228 756 164 801 194 778 b 367 776 265 769 333 777 l 433 828 l 434 828 m 749 374 b 112 378 597 186 249 198 l 33 568 b 171 451 74 518 113 482 b 263 428 199 438 263 428 l 432 513 l 600 426 b 692 450 600 426 664 435 b 833 569 731 472 794 512 l 749 374 "},"":{"ha":861,"x_min":0,"x_max":0,"o":"m 861 385 l 434 385 l 434 338 l 244 338 l 244 389 l 0 389 l 0 676 l 861 676 m 47 625 l 47 435 l 143 435 l 143 575 l 190 575 l 190 435 l 237 435 l 237 625 m 473 435 b 469 622 473 500 473 565 l 279 622 l 279 385 l 376 385 l 376 435 l 473 435 m 524 625 l 524 435 l 620 435 l 620 575 l 667 575 l 667 435 l 717 435 l 717 575 l 764 575 l 764 435 l 810 435 l 810 625 m 380 482 l 380 575 l 426 575 l 426 482 "},"":{"ha":861,"x_min":0,"x_max":0,"o":"m 656 99 l 491 635 l 576 664 b 440 858 559 726 502 858 b 297 664 376 858 314 726 l 371 641 l 206 105 l 0 167 l 166 703 l 246 681 b 445 915 263 732 331 915 b 639 681 559 915 622 738 l 708 703 l 861 162 "},"":{"ha":861,"x_min":0,"x_max":0,"o":"m 710 890 b 837 790 769 897 833 852 b 838 220 839 600 837 410 b 848 148 828 192 856 171 b 736 159 811 138 773 153 b 571 166 682 174 626 166 b 456 178 530 181 469 117 b 424 291 443 216 449 259 b 441 392 422 322 387 400 b 615 460 505 386 577 404 b 708 544 644 492 656 540 b 733 591 738 533 756 570 b 615 620 697 610 655 613 b 547 527 563 622 572 557 b 449 506 530 487 481 481 b 340 599 411 535 374 566 b 259 673 308 619 292 658 b 176 628 213 697 217 623 b 86 651 142 623 119 669 b 6 584 63 626 47 583 b 1 668 -6 603 4 641 b 4 806 3 714 -3 760 b 89 890 13 849 52 873 m 65 419 b 90 404 76 419 83 410 b 222 372 129 382 177 372 b 198 304 231 358 197 328 b 139 185 166 272 190 196 b 2 233 93 199 42 212 b 3 331 1 265 -1 299 b 65 419 29 356 31 403 m 303 388 b 356 349 326 385 343 367 b 399 240 381 317 381 274 b 428 158 409 217 443 174 b 310 216 384 167 356 212 b 189 197 268 231 224 181 b 240 306 206 233 228 267 b 303 388 261 333 268 375 "},"":{"ha":861,"x_min":0,"x_max":0,"o":"m 742 933 b 856 813 808 933 861 880 l 856 201 b 737 81 856 134 803 81 l 119 81 b 0 201 53 81 0 134 l 0 813 b 119 933 0 880 53 933 l 742 933 m 235 177 b 359 301 306 177 359 234 b 235 426 359 368 301 426 b 110 301 167 426 110 368 b 235 177 110 234 167 177 m 416 569 l 115 569 l 115 488 l 416 488 m 416 689 l 115 689 l 115 608 l 416 608 m 416 803 l 115 803 l 115 727 l 416 727 m 445 459 l 445 378 l 747 378 l 747 459 m 445 574 l 445 492 l 747 492 l 747 574 m 445 694 l 445 613 l 747 613 l 747 694 m 445 808 l 445 727 l 747 727 l 747 808 "}}}
